# MagicaVoxel @ Ephtracy

# group
g stairs4

# material
mtllib stairs4.mtl
usemtl palette

# normals
vn -1 0 0
vn 1 0 0
vn 0 0 1
vn 0 0 -1
vn 0 -1 0
vn 0 1 0

# texcoords
vt 0.306641 0.5
vt 0.310547 0.5
vt 0.810547 0.5

# verts
v -30 0 30
v -30 0 10
v -30 0 9
v -30 1 30
v -30 1 10
v -30 3 9
v -30 3 6
v -30 4 10
v -30 4 7
v -30 6 6
v -30 6 3
v -30 7 7
v -30 7 4
v -30 9 3
v -30 9 -0
v -30 10 4
v -30 10 1
v -30 12 -0
v -30 12 -3
v -30 13 1
v -30 13 -2
v -30 15 -3
v -30 15 -6
v -30 16 -2
v -30 16 -5
v -30 18 -6
v -30 18 -9
v -30 19 -5
v -30 19 -8
v -30 21 -9
v -30 21 -11
v -30 21 -31
v -30 22 -8
v -30 22 -11
v -30 22 -31
v -10 22 -11
v -10 22 -31
v -10 25 -11
v -10 25 -31
v -10 84 30
v -10 84 10
v -10 85 30
v -10 85 10
v -8 81 30
v -8 81 10
v -8 84 30
v -8 84 10
v -7 25 -11
v -7 25 -31
v -7 28 -11
v -7 28 -31
v -5 78 30
v -5 78 10
v -5 81 30
v -5 81 10
v -4 28 -11
v -4 28 -31
v -4 31 -11
v -4 31 -31
v -2 75 30
v -2 75 10
v -2 78 30
v -2 78 10
v -1 31 -11
v -1 31 -31
v -1 34 -11
v -1 34 -31
v 1 72 30
v 1 72 10
v 1 75 30
v 1 75 10
v 2 34 -11
v 2 34 -31
v 2 37 -11
v 2 37 -31
v 4 69 30
v 4 69 10
v 4 72 30
v 4 72 10
v 5 37 -11
v 5 37 -31
v 5 40 -11
v 5 40 -31
v 7 66 30
v 7 66 10
v 7 69 30
v 7 69 10
v 8 40 -11
v 8 40 -31
v 8 43 -11
v 8 43 -31
v 10 63 30
v 10 63 10
v 10 66 30
v 10 66 10
v 11 42 -10
v 11 42 -11
v 11 43 -11
v 11 45 -7
v 11 45 -10
v 11 46 -8
v 11 46 -11
v 11 48 -4
v 11 48 -7
v 11 49 -5
v 11 49 -8
v 11 51 -1
v 11 51 -4
v 11 52 -2
v 11 52 -5
v 11 54 2
v 11 54 -1
v 11 55 1
v 11 55 -2
v 11 57 5
v 11 57 2
v 11 58 4
v 11 58 1
v 11 60 8
v 11 60 5
v 11 61 7
v 11 61 4
v 11 63 10
v 11 63 8
v 11 64 10
v 11 64 7
v -10 0 30
v -10 0 10
v -10 0 9
v -10 1 30
v -10 1 10
v -10 3 9
v -10 3 6
v -10 4 10
v -10 4 7
v -10 6 6
v -10 6 3
v -10 7 7
v -10 7 4
v -10 9 3
v -10 9 -0
v -10 10 4
v -10 10 1
v -10 12 -0
v -10 12 -3
v -10 13 1
v -10 13 -2
v -10 15 -3
v -10 15 -6
v -10 16 -2
v -10 16 -5
v -10 18 -6
v -10 18 -9
v -10 19 -5
v -10 19 -8
v -10 21 -9
v -10 21 -11
v -10 22 -8
v -10 22 -11
v -9 21 -11
v -9 21 -31
v -9 24 -11
v -9 24 -31
v -7 82 30
v -7 82 10
v -7 85 30
v -7 85 10
v -6 24 -11
v -6 24 -31
v -6 27 -11
v -6 27 -31
v -4 79 30
v -4 79 10
v -4 82 30
v -4 82 10
v -3 27 -11
v -3 27 -31
v -3 30 -11
v -3 30 -31
v -1 76 30
v -1 76 10
v -1 79 30
v -1 79 10
v 0 30 -11
v 0 30 -31
v 0 33 -11
v 0 33 -31
v 2 73 30
v 2 73 10
v 2 76 30
v 2 76 10
v 3 33 -11
v 3 33 -31
v 3 36 -11
v 3 36 -31
v 5 70 30
v 5 70 10
v 5 73 30
v 5 73 10
v 6 36 -11
v 6 36 -31
v 6 39 -11
v 6 39 -31
v 8 67 30
v 8 67 10
v 8 70 30
v 8 70 10
v 9 39 -11
v 9 39 -31
v 9 42 -11
v 9 42 -31
v 11 64 30
v 11 64 10
v 11 67 30
v 11 67 10
v 31 42 -10
v 31 42 -11
v 31 42 -31
v 31 43 -11
v 31 43 -31
v 31 45 -7
v 31 45 -10
v 31 46 -8
v 31 46 -11
v 31 48 -4
v 31 48 -7
v 31 49 -5
v 31 49 -8
v 31 51 -1
v 31 51 -4
v 31 52 -2
v 31 52 -5
v 31 54 2
v 31 54 -1
v 31 55 1
v 31 55 -2
v 31 57 5
v 31 57 2
v 31 58 4
v 31 58 1
v 31 60 8
v 31 60 5
v 31 61 7
v 31 61 4
v 31 63 30
v 31 63 10
v 31 63 8
v 31 64 30
v 31 64 10
v 31 64 7
v -30 0 30
v -30 1 30
v -10 0 30
v -10 1 30
v -10 84 30
v -10 85 30
v -8 81 30
v -8 84 30
v -7 82 30
v -7 85 30
v -5 78 30
v -5 81 30
v -4 79 30
v -4 82 30
v -2 75 30
v -2 78 30
v -1 76 30
v -1 79 30
v 1 72 30
v 1 75 30
v 2 73 30
v 2 76 30
v 4 69 30
v 4 72 30
v 5 70 30
v 5 73 30
v 7 66 30
v 7 69 30
v 8 67 30
v 8 70 30
v 10 63 30
v 10 66 30
v 11 63 30
v 11 64 30
v 11 67 30
v 31 63 30
v 31 64 30
v -30 1 10
v -30 4 10
v -10 1 10
v -10 4 10
v 11 60 8
v 11 63 8
v 31 60 8
v 31 63 8
v -30 4 7
v -30 7 7
v -10 4 7
v -10 7 7
v 11 57 5
v 11 60 5
v 31 57 5
v 31 60 5
v -30 7 4
v -30 10 4
v -10 7 4
v -10 10 4
v 11 54 2
v 11 57 2
v 31 54 2
v 31 57 2
v -30 10 1
v -30 13 1
v -10 10 1
v -10 13 1
v 11 51 -1
v 11 54 -1
v 31 51 -1
v 31 54 -1
v -30 13 -2
v -30 16 -2
v -10 13 -2
v -10 16 -2
v 11 48 -4
v 11 51 -4
v 31 48 -4
v 31 51 -4
v -30 16 -5
v -30 19 -5
v -10 16 -5
v -10 19 -5
v 11 45 -7
v 11 48 -7
v 31 45 -7
v 31 48 -7
v -30 19 -8
v -30 22 -8
v -10 19 -8
v -10 22 -8
v 11 42 -10
v 11 45 -10
v 31 42 -10
v 31 45 -10
v -10 21 -11
v -10 22 -11
v -10 25 -11
v -9 21 -11
v -9 24 -11
v -7 25 -11
v -7 28 -11
v -6 24 -11
v -6 27 -11
v -4 28 -11
v -4 31 -11
v -3 27 -11
v -3 30 -11
v -1 31 -11
v -1 34 -11
v 0 30 -11
v 0 33 -11
v 2 34 -11
v 2 37 -11
v 3 33 -11
v 3 36 -11
v 5 37 -11
v 5 40 -11
v 6 36 -11
v 6 39 -11
v 8 40 -11
v 8 43 -11
v 9 39 -11
v 9 42 -11
v 11 42 -11
v 11 43 -11
v -10 84 10
v -10 85 10
v -8 81 10
v -8 84 10
v -7 82 10
v -7 85 10
v -5 78 10
v -5 81 10
v -4 79 10
v -4 82 10
v -2 75 10
v -2 78 10
v -1 76 10
v -1 79 10
v 1 72 10
v 1 75 10
v 2 73 10
v 2 76 10
v 4 69 10
v 4 72 10
v 5 70 10
v 5 73 10
v 7 66 10
v 7 69 10
v 8 67 10
v 8 70 10
v 10 63 10
v 10 66 10
v 11 63 10
v 11 64 10
v 11 67 10
v -30 0 9
v -30 3 9
v -10 0 9
v -10 3 9
v 11 61 7
v 11 64 7
v 31 61 7
v 31 64 7
v -30 3 6
v -30 6 6
v -10 3 6
v -10 6 6
v 11 58 4
v 11 61 4
v 31 58 4
v 31 61 4
v -30 6 3
v -30 9 3
v -10 6 3
v -10 9 3
v 11 55 1
v 11 58 1
v 31 55 1
v 31 58 1
v -30 9 -0
v -30 12 -0
v -10 9 -0
v -10 12 -0
v 11 52 -2
v 11 55 -2
v 31 52 -2
v 31 55 -2
v -30 12 -3
v -30 15 -3
v -10 12 -3
v -10 15 -3
v 11 49 -5
v 11 52 -5
v 31 49 -5
v 31 52 -5
v -30 15 -6
v -30 18 -6
v -10 15 -6
v -10 18 -6
v 11 46 -8
v 11 49 -8
v 31 46 -8
v 31 49 -8
v -30 18 -9
v -30 21 -9
v -10 18 -9
v -10 21 -9
v 11 43 -11
v 11 46 -11
v 31 43 -11
v 31 46 -11
v -30 21 -31
v -30 22 -31
v -10 21 -31
v -10 22 -31
v -10 25 -31
v -9 21 -31
v -9 24 -31
v -7 25 -31
v -7 28 -31
v -6 24 -31
v -6 27 -31
v -4 28 -31
v -4 31 -31
v -3 27 -31
v -3 30 -31
v -1 31 -31
v -1 34 -31
v 0 30 -31
v 0 33 -31
v 2 34 -31
v 2 37 -31
v 3 33 -31
v 3 36 -31
v 5 37 -31
v 5 40 -31
v 6 36 -31
v 6 39 -31
v 8 40 -31
v 8 43 -31
v 9 39 -31
v 9 42 -31
v 11 42 -31
v 11 43 -31
v 31 42 -31
v 31 43 -31
v -30 0 30
v -10 0 30
v -30 0 10
v -10 0 10
v -30 0 9
v -10 0 9
v -30 3 9
v -10 3 9
v -30 3 6
v -10 3 6
v -30 6 6
v -10 6 6
v -30 6 3
v -10 6 3
v -30 9 3
v -10 9 3
v -30 9 -0
v -10 9 -0
v -30 12 -0
v -10 12 -0
v -30 12 -3
v -10 12 -3
v -30 15 -3
v -10 15 -3
v -30 15 -6
v -10 15 -6
v -30 18 -6
v -10 18 -6
v -30 18 -9
v -10 18 -9
v -30 21 -9
v -10 21 -9
v -30 21 -11
v -10 21 -11
v -9 21 -11
v -30 21 -31
v -10 21 -31
v -9 21 -31
v -9 24 -11
v -6 24 -11
v -9 24 -31
v -6 24 -31
v -6 27 -11
v -3 27 -11
v -6 27 -31
v -3 27 -31
v -3 30 -11
v 0 30 -11
v -3 30 -31
v 0 30 -31
v 0 33 -11
v 3 33 -11
v 0 33 -31
v 3 33 -31
v 3 36 -11
v 6 36 -11
v 3 36 -31
v 6 36 -31
v 6 39 -11
v 9 39 -11
v 6 39 -31
v 9 39 -31
v 11 42 -10
v 31 42 -10
v 9 42 -11
v 11 42 -11
v 31 42 -11
v 9 42 -31
v 11 42 -31
v 31 42 -31
v 11 45 -7
v 31 45 -7
v 11 45 -10
v 31 45 -10
v 11 48 -4
v 31 48 -4
v 11 48 -7
v 31 48 -7
v 11 51 -1
v 31 51 -1
v 11 51 -4
v 31 51 -4
v 11 54 2
v 31 54 2
v 11 54 -1
v 31 54 -1
v 11 57 5
v 31 57 5
v 11 57 2
v 31 57 2
v 11 60 8
v 31 60 8
v 11 60 5
v 31 60 5
v 10 63 30
v 11 63 30
v 31 63 30
v 10 63 10
v 11 63 10
v 31 63 10
v 11 63 8
v 31 63 8
v 7 66 30
v 10 66 30
v 7 66 10
v 10 66 10
v 4 69 30
v 7 69 30
v 4 69 10
v 7 69 10
v 1 72 30
v 4 72 30
v 1 72 10
v 4 72 10
v -2 75 30
v 1 75 30
v -2 75 10
v 1 75 10
v -5 78 30
v -2 78 30
v -5 78 10
v -2 78 10
v -8 81 30
v -5 81 30
v -8 81 10
v -5 81 10
v -10 84 30
v -8 84 30
v -10 84 10
v -8 84 10
v -30 1 30
v -10 1 30
v -30 1 10
v -10 1 10
v -30 4 10
v -10 4 10
v -30 4 7
v -10 4 7
v -30 7 7
v -10 7 7
v -30 7 4
v -10 7 4
v -30 10 4
v -10 10 4
v -30 10 1
v -10 10 1
v -30 13 1
v -10 13 1
v -30 13 -2
v -10 13 -2
v -30 16 -2
v -10 16 -2
v -30 16 -5
v -10 16 -5
v -30 19 -5
v -10 19 -5
v -30 19 -8
v -10 19 -8
v -30 22 -8
v -10 22 -8
v -30 22 -11
v -10 22 -11
v -30 22 -31
v -10 22 -31
v -10 25 -11
v -7 25 -11
v -10 25 -31
v -7 25 -31
v -7 28 -11
v -4 28 -11
v -7 28 -31
v -4 28 -31
v -4 31 -11
v -1 31 -11
v -4 31 -31
v -1 31 -31
v -1 34 -11
v 2 34 -11
v -1 34 -31
v 2 34 -31
v 2 37 -11
v 5 37 -11
v 2 37 -31
v 5 37 -31
v 5 40 -11
v 8 40 -11
v 5 40 -31
v 8 40 -31
v 8 43 -11
v 11 43 -11
v 31 43 -11
v 8 43 -31
v 11 43 -31
v 31 43 -31
v 11 46 -8
v 31 46 -8
v 11 46 -11
v 31 46 -11
v 11 49 -5
v 31 49 -5
v 11 49 -8
v 31 49 -8
v 11 52 -2
v 31 52 -2
v 11 52 -5
v 31 52 -5
v 11 55 1
v 31 55 1
v 11 55 -2
v 31 55 -2
v 11 58 4
v 31 58 4
v 11 58 1
v 31 58 1
v 11 61 7
v 31 61 7
v 11 61 4
v 31 61 4
v 11 64 30
v 31 64 30
v 11 64 10
v 31 64 10
v 11 64 7
v 31 64 7
v 8 67 30
v 11 67 30
v 8 67 10
v 11 67 10
v 5 70 30
v 8 70 30
v 5 70 10
v 8 70 10
v 2 73 30
v 5 73 30
v 2 73 10
v 5 73 10
v -1 76 30
v 2 76 30
v -1 76 10
v 2 76 10
v -4 79 30
v -1 79 30
v -4 79 10
v -1 79 10
v -7 82 30
v -4 82 30
v -7 82 10
v -4 82 10
v -10 85 30
v -7 85 30
v -10 85 10
v -7 85 10

# faces
f 4/3/1 2/3/1 1/3/1
f 5/2/1 3/2/1 2/2/1
f 5/3/1 2/3/1 4/3/1
f 6/2/1 3/2/1 5/2/1
f 8/2/1 6/2/1 5/2/1
f 8/2/1 7/2/1 6/2/1
f 9/2/1 7/2/1 8/2/1
f 10/2/1 7/2/1 9/2/1
f 12/2/1 10/2/1 9/2/1
f 12/2/1 11/2/1 10/2/1
f 13/2/1 11/2/1 12/2/1
f 14/2/1 11/2/1 13/2/1
f 16/2/1 14/2/1 13/2/1
f 16/2/1 15/2/1 14/2/1
f 17/2/1 15/2/1 16/2/1
f 18/2/1 15/2/1 17/2/1
f 20/2/1 18/2/1 17/2/1
f 20/2/1 19/2/1 18/2/1
f 21/2/1 19/2/1 20/2/1
f 22/2/1 19/2/1 21/2/1
f 24/2/1 22/2/1 21/2/1
f 24/2/1 23/2/1 22/2/1
f 25/2/1 23/2/1 24/2/1
f 26/2/1 23/2/1 25/2/1
f 28/2/1 26/2/1 25/2/1
f 28/2/1 27/2/1 26/2/1
f 29/2/1 27/2/1 28/2/1
f 30/2/1 27/2/1 29/2/1
f 33/2/1 30/2/1 29/2/1
f 33/2/1 31/2/1 30/2/1
f 34/3/1 32/3/1 31/3/1
f 34/2/1 31/2/1 33/2/1
f 35/3/1 32/3/1 34/3/1
f 38/1/1 37/1/1 36/1/1
f 39/1/1 37/1/1 38/1/1
f 42/1/1 41/1/1 40/1/1
f 43/1/1 41/1/1 42/1/1
f 46/1/1 45/1/1 44/1/1
f 47/1/1 45/1/1 46/1/1
f 50/1/1 49/1/1 48/1/1
f 51/1/1 49/1/1 50/1/1
f 54/1/1 53/1/1 52/1/1
f 55/1/1 53/1/1 54/1/1
f 58/1/1 57/1/1 56/1/1
f 59/1/1 57/1/1 58/1/1
f 62/1/1 61/1/1 60/1/1
f 63/1/1 61/1/1 62/1/1
f 66/1/1 65/1/1 64/1/1
f 67/1/1 65/1/1 66/1/1
f 70/1/1 69/1/1 68/1/1
f 71/1/1 69/1/1 70/1/1
f 74/1/1 73/1/1 72/1/1
f 75/1/1 73/1/1 74/1/1
f 78/1/1 77/1/1 76/1/1
f 79/1/1 77/1/1 78/1/1
f 82/1/1 81/1/1 80/1/1
f 83/1/1 81/1/1 82/1/1
f 86/1/1 85/1/1 84/1/1
f 87/1/1 85/1/1 86/1/1
f 90/1/1 89/1/1 88/1/1
f 91/1/1 89/1/1 90/1/1
f 94/1/1 93/1/1 92/1/1
f 95/1/1 93/1/1 94/1/1
f 98/2/1 97/2/1 96/2/1
f 100/2/1 98/2/1 96/2/1
f 101/2/1 100/2/1 99/2/1
f 102/2/1 98/2/1 100/2/1
f 102/2/1 100/2/1 101/2/1
f 104/2/1 101/2/1 99/2/1
f 105/2/1 104/2/1 103/2/1
f 106/2/1 101/2/1 104/2/1
f 106/2/1 104/2/1 105/2/1
f 108/2/1 105/2/1 103/2/1
f 109/2/1 108/2/1 107/2/1
f 110/2/1 105/2/1 108/2/1
f 110/2/1 108/2/1 109/2/1
f 112/2/1 109/2/1 107/2/1
f 113/2/1 112/2/1 111/2/1
f 114/2/1 109/2/1 112/2/1
f 114/2/1 112/2/1 113/2/1
f 116/2/1 113/2/1 111/2/1
f 117/2/1 116/2/1 115/2/1
f 118/2/1 113/2/1 116/2/1
f 118/2/1 116/2/1 117/2/1
f 120/2/1 117/2/1 115/2/1
f 121/2/1 120/2/1 119/2/1
f 122/2/1 117/2/1 120/2/1
f 122/2/1 120/2/1 121/2/1
f 124/2/1 121/2/1 119/2/1
f 125/2/1 124/2/1 123/2/1
f 126/2/1 121/2/1 124/2/1
f 126/2/1 124/2/1 125/2/1
f 127/3/2 128/3/2 130/3/2
f 128/2/2 129/2/2 131/2/2
f 130/3/2 128/3/2 131/3/2
f 131/2/2 129/2/2 132/2/2
f 131/2/2 132/2/2 134/2/2
f 132/2/2 133/2/2 134/2/2
f 134/2/2 133/2/2 135/2/2
f 135/2/2 133/2/2 136/2/2
f 135/2/2 136/2/2 138/2/2
f 136/2/2 137/2/2 138/2/2
f 138/2/2 137/2/2 139/2/2
f 139/2/2 137/2/2 140/2/2
f 139/2/2 140/2/2 142/2/2
f 140/2/2 141/2/2 142/2/2
f 142/2/2 141/2/2 143/2/2
f 143/2/2 141/2/2 144/2/2
f 143/2/2 144/2/2 146/2/2
f 144/2/2 145/2/2 146/2/2
f 146/2/2 145/2/2 147/2/2
f 147/2/2 145/2/2 148/2/2
f 147/2/2 148/2/2 150/2/2
f 148/2/2 149/2/2 150/2/2
f 150/2/2 149/2/2 151/2/2
f 151/2/2 149/2/2 152/2/2
f 151/2/2 152/2/2 154/2/2
f 152/2/2 153/2/2 154/2/2
f 154/2/2 153/2/2 155/2/2
f 155/2/2 153/2/2 156/2/2
f 155/2/2 156/2/2 158/2/2
f 156/2/2 157/2/2 158/2/2
f 158/2/2 157/2/2 159/2/2
f 160/1/2 161/1/2 162/1/2
f 162/1/2 161/1/2 163/1/2
f 164/1/2 165/1/2 166/1/2
f 166/1/2 165/1/2 167/1/2
f 168/1/2 169/1/2 170/1/2
f 170/1/2 169/1/2 171/1/2
f 172/1/2 173/1/2 174/1/2
f 174/1/2 173/1/2 175/1/2
f 176/1/2 177/1/2 178/1/2
f 178/1/2 177/1/2 179/1/2
f 180/1/2 181/1/2 182/1/2
f 182/1/2 181/1/2 183/1/2
f 184/1/2 185/1/2 186/1/2
f 186/1/2 185/1/2 187/1/2
f 188/1/2 189/1/2 190/1/2
f 190/1/2 189/1/2 191/1/2
f 192/1/2 193/1/2 194/1/2
f 194/1/2 193/1/2 195/1/2
f 196/1/2 197/1/2 198/1/2
f 198/1/2 197/1/2 199/1/2
f 200/1/2 201/1/2 202/1/2
f 202/1/2 201/1/2 203/1/2
f 204/1/2 205/1/2 206/1/2
f 206/1/2 205/1/2 207/1/2
f 208/1/2 209/1/2 210/1/2
f 210/1/2 209/1/2 211/1/2
f 212/1/2 213/1/2 214/1/2
f 214/1/2 213/1/2 215/1/2
f 216/2/2 217/2/2 219/2/2
f 217/3/2 218/3/2 219/3/2
f 219/3/2 218/3/2 220/3/2
f 216/2/2 219/2/2 222/2/2
f 221/2/2 222/2/2 223/2/2
f 222/2/2 219/2/2 224/2/2
f 223/2/2 222/2/2 224/2/2
f 221/2/2 223/2/2 226/2/2
f 225/2/2 226/2/2 227/2/2
f 226/2/2 223/2/2 228/2/2
f 227/2/2 226/2/2 228/2/2
f 225/2/2 227/2/2 230/2/2
f 229/2/2 230/2/2 231/2/2
f 230/2/2 227/2/2 232/2/2
f 231/2/2 230/2/2 232/2/2
f 229/2/2 231/2/2 234/2/2
f 233/2/2 234/2/2 235/2/2
f 234/2/2 231/2/2 236/2/2
f 235/2/2 234/2/2 236/2/2
f 233/2/2 235/2/2 238/2/2
f 237/2/2 238/2/2 239/2/2
f 238/2/2 235/2/2 240/2/2
f 239/2/2 238/2/2 240/2/2
f 237/2/2 239/2/2 242/2/2
f 241/2/2 242/2/2 243/2/2
f 242/2/2 239/2/2 244/2/2
f 243/2/2 242/2/2 244/2/2
f 241/2/2 243/2/2 247/2/2
f 245/3/2 246/3/2 248/3/2
f 246/2/2 247/2/2 249/2/2
f 248/3/2 246/3/2 249/3/2
f 247/2/2 243/2/2 250/2/2
f 249/2/2 247/2/2 250/2/2
f 253/3/3 252/3/3 251/3/3
f 254/3/3 252/3/3 253/3/3
f 258/1/3 256/1/3 255/1/3
f 259/1/3 258/1/3 257/1/3
f 260/1/3 256/1/3 258/1/3
f 260/1/3 258/1/3 259/1/3
f 262/1/3 259/1/3 257/1/3
f 263/1/3 262/1/3 261/1/3
f 264/1/3 259/1/3 262/1/3
f 264/1/3 262/1/3 263/1/3
f 266/1/3 263/1/3 261/1/3
f 267/1/3 266/1/3 265/1/3
f 268/1/3 263/1/3 266/1/3
f 268/1/3 266/1/3 267/1/3
f 270/1/3 267/1/3 265/1/3
f 271/1/3 270/1/3 269/1/3
f 272/1/3 267/1/3 270/1/3
f 272/1/3 270/1/3 271/1/3
f 274/1/3 271/1/3 269/1/3
f 275/1/3 274/1/3 273/1/3
f 276/1/3 271/1/3 274/1/3
f 276/1/3 274/1/3 275/1/3
f 278/1/3 275/1/3 273/1/3
f 279/1/3 278/1/3 277/1/3
f 280/1/3 275/1/3 278/1/3
f 280/1/3 278/1/3 279/1/3
f 282/1/3 279/1/3 277/1/3
f 283/1/3 282/1/3 281/1/3
f 284/1/3 282/1/3 283/1/3
f 285/1/3 279/1/3 282/1/3
f 285/1/3 282/1/3 284/1/3
f 286/3/3 284/3/3 283/3/3
f 287/3/3 284/3/3 286/3/3
f 290/2/3 289/2/3 288/2/3
f 291/2/3 289/2/3 290/2/3
f 294/2/3 293/2/3 292/2/3
f 295/2/3 293/2/3 294/2/3
f 298/2/3 297/2/3 296/2/3
f 299/2/3 297/2/3 298/2/3
f 302/2/3 301/2/3 300/2/3
f 303/2/3 301/2/3 302/2/3
f 306/2/3 305/2/3 304/2/3
f 307/2/3 305/2/3 306/2/3
f 310/2/3 309/2/3 308/2/3
f 311/2/3 309/2/3 310/2/3
f 314/2/3 313/2/3 312/2/3
f 315/2/3 313/2/3 314/2/3
f 318/2/3 317/2/3 316/2/3
f 319/2/3 317/2/3 318/2/3
f 322/2/3 321/2/3 320/2/3
f 323/2/3 321/2/3 322/2/3
f 326/2/3 325/2/3 324/2/3
f 327/2/3 325/2/3 326/2/3
f 330/2/3 329/2/3 328/2/3
f 331/2/3 329/2/3 330/2/3
f 334/2/3 333/2/3 332/2/3
f 335/2/3 333/2/3 334/2/3
f 338/2/3 337/2/3 336/2/3
f 339/2/3 337/2/3 338/2/3
f 342/2/3 341/2/3 340/2/3
f 343/2/3 341/2/3 342/2/3
f 347/1/3 345/1/3 344/1/3
f 347/1/3 346/1/3 345/1/3
f 348/1/3 346/1/3 347/1/3
f 349/1/3 346/1/3 348/1/3
f 351/1/3 349/1/3 348/1/3
f 351/1/3 350/1/3 349/1/3
f 352/1/3 350/1/3 351/1/3
f 353/1/3 350/1/3 352/1/3
f 355/1/3 353/1/3 352/1/3
f 355/1/3 354/1/3 353/1/3
f 356/1/3 354/1/3 355/1/3
f 357/1/3 354/1/3 356/1/3
f 359/1/3 357/1/3 356/1/3
f 359/1/3 358/1/3 357/1/3
f 360/1/3 358/1/3 359/1/3
f 361/1/3 358/1/3 360/1/3
f 363/1/3 361/1/3 360/1/3
f 363/1/3 362/1/3 361/1/3
f 364/1/3 362/1/3 363/1/3
f 365/1/3 362/1/3 364/1/3
f 367/1/3 365/1/3 364/1/3
f 367/1/3 366/1/3 365/1/3
f 368/1/3 366/1/3 367/1/3
f 369/1/3 366/1/3 368/1/3
f 371/1/3 369/1/3 368/1/3
f 371/1/3 370/1/3 369/1/3
f 372/1/3 370/1/3 371/1/3
f 373/1/3 370/1/3 372/1/3
f 374/1/3 370/1/3 373/1/3
f 375/1/4 376/1/4 378/1/4
f 377/1/4 378/1/4 379/1/4
f 378/1/4 376/1/4 380/1/4
f 379/1/4 378/1/4 380/1/4
f 377/1/4 379/1/4 382/1/4
f 381/1/4 382/1/4 383/1/4
f 382/1/4 379/1/4 384/1/4
f 383/1/4 382/1/4 384/1/4
f 381/1/4 383/1/4 386/1/4
f 385/1/4 386/1/4 387/1/4
f 386/1/4 383/1/4 388/1/4
f 387/1/4 386/1/4 388/1/4
f 385/1/4 387/1/4 390/1/4
f 389/1/4 390/1/4 391/1/4
f 390/1/4 387/1/4 392/1/4
f 391/1/4 390/1/4 392/1/4
f 389/1/4 391/1/4 394/1/4
f 393/1/4 394/1/4 395/1/4
f 394/1/4 391/1/4 396/1/4
f 395/1/4 394/1/4 396/1/4
f 393/1/4 395/1/4 398/1/4
f 397/1/4 398/1/4 399/1/4
f 398/1/4 395/1/4 400/1/4
f 399/1/4 398/1/4 400/1/4
f 397/1/4 399/1/4 402/1/4
f 401/1/4 402/1/4 403/1/4
f 403/1/4 402/1/4 404/1/4
f 402/1/4 399/1/4 405/1/4
f 404/1/4 402/1/4 405/1/4
f 406/2/4 407/2/4 408/2/4
f 408/2/4 407/2/4 409/2/4
f 410/2/4 411/2/4 412/2/4
f 412/2/4 411/2/4 413/2/4
f 414/2/4 415/2/4 416/2/4
f 416/2/4 415/2/4 417/2/4
f 418/2/4 419/2/4 420/2/4
f 420/2/4 419/2/4 421/2/4
f 422/2/4 423/2/4 424/2/4
f 424/2/4 423/2/4 425/2/4
f 426/2/4 427/2/4 428/2/4
f 428/2/4 427/2/4 429/2/4
f 430/2/4 431/2/4 432/2/4
f 432/2/4 431/2/4 433/2/4
f 434/2/4 435/2/4 436/2/4
f 436/2/4 435/2/4 437/2/4
f 438/2/4 439/2/4 440/2/4
f 440/2/4 439/2/4 441/2/4
f 442/2/4 443/2/4 444/2/4
f 444/2/4 443/2/4 445/2/4
f 446/2/4 447/2/4 448/2/4
f 448/2/4 447/2/4 449/2/4
f 450/2/4 451/2/4 452/2/4
f 452/2/4 451/2/4 453/2/4
f 454/2/4 455/2/4 456/2/4
f 456/2/4 455/2/4 457/2/4
f 458/2/4 459/2/4 460/2/4
f 460/2/4 459/2/4 461/2/4
f 462/3/4 463/3/4 464/3/4
f 464/3/4 463/3/4 465/3/4
f 464/1/4 465/1/4 467/1/4
f 465/1/4 466/1/4 467/1/4
f 467/1/4 466/1/4 468/1/4
f 468/1/4 466/1/4 469/1/4
f 468/1/4 469/1/4 471/1/4
f 469/1/4 470/1/4 471/1/4
f 471/1/4 470/1/4 472/1/4
f 472/1/4 470/1/4 473/1/4
f 472/1/4 473/1/4 475/1/4
f 473/1/4 474/1/4 475/1/4
f 475/1/4 474/1/4 476/1/4
f 476/1/4 474/1/4 477/1/4
f 476/1/4 477/1/4 479/1/4
f 477/1/4 478/1/4 479/1/4
f 479/1/4 478/1/4 480/1/4
f 480/1/4 478/1/4 481/1/4
f 480/1/4 481/1/4 483/1/4
f 481/1/4 482/1/4 483/1/4
f 483/1/4 482/1/4 484/1/4
f 484/1/4 482/1/4 485/1/4
f 484/1/4 485/1/4 487/1/4
f 485/1/4 486/1/4 487/1/4
f 487/1/4 486/1/4 488/1/4
f 488/1/4 486/1/4 489/1/4
f 488/1/4 489/1/4 491/1/4
f 489/1/4 490/1/4 491/1/4
f 491/1/4 490/1/4 492/1/4
f 492/1/4 490/1/4 493/1/4
f 493/1/4 490/1/4 494/1/4
f 493/3/4 494/3/4 495/3/4
f 495/3/4 494/3/4 496/3/4
f 499/3/5 498/3/5 497/3/5
f 500/3/5 498/3/5 499/3/5
f 501/2/5 500/2/5 499/2/5
f 502/2/5 500/2/5 501/2/5
f 505/2/5 504/2/5 503/2/5
f 506/2/5 504/2/5 505/2/5
f 509/2/5 508/2/5 507/2/5
f 510/2/5 508/2/5 509/2/5
f 513/2/5 512/2/5 511/2/5
f 514/2/5 512/2/5 513/2/5
f 517/2/5 516/2/5 515/2/5
f 518/2/5 516/2/5 517/2/5
f 521/2/5 520/2/5 519/2/5
f 522/2/5 520/2/5 521/2/5
f 525/2/5 524/2/5 523/2/5
f 526/2/5 524/2/5 525/2/5
f 529/2/5 528/2/5 527/2/5
f 530/2/5 528/2/5 529/2/5
f 532/3/5 530/3/5 529/3/5
f 533/1/5 531/1/5 530/1/5
f 533/3/5 530/3/5 532/3/5
f 534/1/5 531/1/5 533/1/5
f 537/1/5 536/1/5 535/1/5
f 538/1/5 536/1/5 537/1/5
f 541/1/5 540/1/5 539/1/5
f 542/1/5 540/1/5 541/1/5
f 545/1/5 544/1/5 543/1/5
f 546/1/5 544/1/5 545/1/5
f 549/1/5 548/1/5 547/1/5
f 550/1/5 548/1/5 549/1/5
f 553/1/5 552/1/5 551/1/5
f 554/1/5 552/1/5 553/1/5
f 557/1/5 556/1/5 555/1/5
f 558/1/5 556/1/5 557/1/5
f 562/2/5 560/2/5 559/2/5
f 563/2/5 560/2/5 562/2/5
f 564/1/5 562/1/5 561/1/5
f 565/3/5 563/3/5 562/3/5
f 565/1/5 562/1/5 564/1/5
f 566/3/5 563/3/5 565/3/5
f 569/2/5 568/2/5 567/2/5
f 570/2/5 568/2/5 569/2/5
f 573/2/5 572/2/5 571/2/5
f 574/2/5 572/2/5 573/2/5
f 577/2/5 576/2/5 575/2/5
f 578/2/5 576/2/5 577/2/5
f 581/2/5 580/2/5 579/2/5
f 582/2/5 580/2/5 581/2/5
f 585/2/5 584/2/5 583/2/5
f 586/2/5 584/2/5 585/2/5
f 589/2/5 588/2/5 587/2/5
f 590/2/5 588/2/5 589/2/5
f 594/1/5 592/1/5 591/1/5
f 595/3/5 593/3/5 592/3/5
f 595/1/5 592/1/5 594/1/5
f 596/3/5 593/3/5 595/3/5
f 597/2/5 596/2/5 595/2/5
f 598/2/5 596/2/5 597/2/5
f 601/1/5 600/1/5 599/1/5
f 602/1/5 600/1/5 601/1/5
f 605/1/5 604/1/5 603/1/5
f 606/1/5 604/1/5 605/1/5
f 609/1/5 608/1/5 607/1/5
f 610/1/5 608/1/5 609/1/5
f 613/1/5 612/1/5 611/1/5
f 614/1/5 612/1/5 613/1/5
f 617/1/5 616/1/5 615/1/5
f 618/1/5 616/1/5 617/1/5
f 621/1/5 620/1/5 619/1/5
f 622/1/5 620/1/5 621/1/5
f 625/1/5 624/1/5 623/1/5
f 626/1/5 624/1/5 625/1/5
f 627/3/6 628/3/6 629/3/6
f 629/3/6 628/3/6 630/3/6
f 631/2/6 632/2/6 633/2/6
f 633/2/6 632/2/6 634/2/6
f 635/2/6 636/2/6 637/2/6
f 637/2/6 636/2/6 638/2/6
f 639/2/6 640/2/6 641/2/6
f 641/2/6 640/2/6 642/2/6
f 643/2/6 644/2/6 645/2/6
f 645/2/6 644/2/6 646/2/6
f 647/2/6 648/2/6 649/2/6
f 649/2/6 648/2/6 650/2/6
f 651/2/6 652/2/6 653/2/6
f 653/2/6 652/2/6 654/2/6
f 655/2/6 656/2/6 657/2/6
f 657/2/6 656/2/6 658/2/6
f 657/3/6 658/3/6 659/3/6
f 659/3/6 658/3/6 660/3/6
f 661/1/6 662/1/6 663/1/6
f 663/1/6 662/1/6 664/1/6
f 665/1/6 666/1/6 667/1/6
f 667/1/6 666/1/6 668/1/6
f 669/1/6 670/1/6 671/1/6
f 671/1/6 670/1/6 672/1/6
f 673/1/6 674/1/6 675/1/6
f 675/1/6 674/1/6 676/1/6
f 677/1/6 678/1/6 679/1/6
f 679/1/6 678/1/6 680/1/6
f 681/1/6 682/1/6 683/1/6
f 683/1/6 682/1/6 684/1/6
f 685/1/6 686/1/6 688/1/6
f 686/3/6 687/3/6 689/3/6
f 688/1/6 686/1/6 689/1/6
f 689/3/6 687/3/6 690/3/6
f 691/2/6 692/2/6 693/2/6
f 693/2/6 692/2/6 694/2/6
f 695/2/6 696/2/6 697/2/6
f 697/2/6 696/2/6 698/2/6
f 699/2/6 700/2/6 701/2/6
f 701/2/6 700/2/6 702/2/6
f 703/2/6 704/2/6 705/2/6
f 705/2/6 704/2/6 706/2/6
f 707/2/6 708/2/6 709/2/6
f 709/2/6 708/2/6 710/2/6
f 711/2/6 712/2/6 713/2/6
f 713/2/6 712/2/6 714/2/6
f 715/3/6 716/3/6 717/3/6
f 717/3/6 716/3/6 718/3/6
f 717/2/6 718/2/6 719/2/6
f 719/2/6 718/2/6 720/2/6
f 721/1/6 722/1/6 723/1/6
f 723/1/6 722/1/6 724/1/6
f 725/1/6 726/1/6 727/1/6
f 727/1/6 726/1/6 728/1/6
f 729/1/6 730/1/6 731/1/6
f 731/1/6 730/1/6 732/1/6
f 733/1/6 734/1/6 735/1/6
f 735/1/6 734/1/6 736/1/6
f 737/1/6 738/1/6 739/1/6
f 739/1/6 738/1/6 740/1/6
f 741/1/6 742/1/6 743/1/6
f 743/1/6 742/1/6 744/1/6
f 745/1/6 746/1/6 747/1/6
f 747/1/6 746/1/6 748/1/6
