# MagicaVoxel @ Ephtracy

# group
g stairs4_wall_half

# material
mtllib stairs4_wall_half.mtl
usemtl palette

# normals
vn -1 0 0
vn 1 0 0
vn 0 0 1
vn 0 0 -1
vn 0 -1 0
vn 0 1 0

# texcoords
vt 0.294922 0.5
vt 0.306641 0.5
vt 0.310547 0.5
vt 0.810547 0.5

# verts
v -33 0 34
v -33 0 30
v -33 0 -29
v -33 0 -33
v -33 42 34
v -33 42 30
v -33 42 -29
v -33 42 -33
v -32 30 -14
v -32 30 -25
v -32 31 -15
v -32 31 -24
v -32 36 -15
v -32 36 -24
v -32 37 -14
v -32 37 -25
v -31 0 30
v -31 0 -29
v -31 30 -14
v -31 30 -25
v -31 37 -14
v -31 37 -25
v -31 42 30
v -31 42 -29
v -25 9 33
v -25 9 32
v -25 16 33
v -25 16 32
v -14 10 33
v -14 10 31
v -14 15 33
v -14 15 31
v -10 22 -10
v -10 22 -30
v -10 25 -10
v -10 25 -30
v -7 25 -10
v -7 25 -30
v -7 28 -10
v -7 28 -30
v -4 28 -10
v -4 28 -30
v -4 31 -10
v -4 31 -30
v -1 31 -10
v -1 31 -30
v -1 34 -10
v -1 34 -30
v 2 34 -10
v 2 34 -30
v 2 37 -10
v 2 37 -30
v 5 37 -10
v 5 37 -30
v 5 40 -10
v 5 40 -30
v 8 40 -10
v 8 40 -30
v 8 42 -30
v 8 43 -10
v 8 43 -30
v 30 0 34
v 30 0 32
v 30 0 -31
v 30 0 -33
v 30 42 34
v 30 42 32
v 30 42 -31
v 30 42 -33
v 31 0 31
v 31 0 -30
v 31 42 31
v 31 42 -30
v -30 0 10
v -30 0 -30
v -30 1 31
v -30 1 11
v -30 3 10
v -30 3 7
v -30 4 11
v -30 4 8
v -30 6 7
v -30 6 4
v -30 7 8
v -30 7 5
v -30 9 4
v -30 9 1
v -30 10 5
v -30 10 2
v -30 12 1
v -30 12 -2
v -30 13 2
v -30 13 -1
v -30 15 -2
v -30 15 -5
v -30 16 -1
v -30 16 -4
v -30 18 -5
v -30 18 -8
v -30 19 -4
v -30 19 -7
v -30 21 -8
v -30 21 -10
v -30 21 -30
v -30 22 -7
v -30 22 -10
v -30 22 -30
v -30 31 -15
v -30 31 -24
v -30 36 -15
v -30 36 -24
v -30 42 31
v -30 42 -30
v -29 0 34
v -29 0 32
v -29 0 -31
v -29 0 -33
v -29 42 34
v -29 42 32
v -29 42 -31
v -29 42 -33
v -24 10 33
v -24 10 31
v -24 15 33
v -24 15 31
v -13 9 33
v -13 9 32
v -13 16 33
v -13 16 32
v -10 0 31
v -10 0 11
v -10 0 10
v -10 1 31
v -10 1 11
v -10 3 10
v -10 3 7
v -10 4 11
v -10 4 8
v -10 6 7
v -10 6 4
v -10 7 8
v -10 7 5
v -10 9 4
v -10 9 1
v -10 10 5
v -10 10 2
v -10 12 1
v -10 12 -2
v -10 13 2
v -10 13 -1
v -10 15 -2
v -10 15 -5
v -10 16 -1
v -10 16 -4
v -10 18 -5
v -10 18 -8
v -10 19 -4
v -10 19 -7
v -10 21 -8
v -10 21 -10
v -10 22 -7
v -10 22 -10
v -9 21 -10
v -9 21 -30
v -9 24 -10
v -9 24 -30
v -6 24 -10
v -6 24 -30
v -6 27 -10
v -6 27 -30
v -3 27 -10
v -3 27 -30
v -3 30 -10
v -3 30 -30
v 0 30 -10
v 0 30 -30
v 0 33 -10
v 0 33 -30
v 3 33 -10
v 3 33 -30
v 3 36 -10
v 3 36 -30
v 6 36 -10
v 6 36 -30
v 6 39 -10
v 6 39 -30
v 9 39 -10
v 9 39 -30
v 9 42 -10
v 9 42 -30
v 11 42 -10
v 11 42 -30
v 11 43 -10
v 11 43 -30
v 32 0 30
v 32 0 -29
v 32 42 30
v 32 42 -29
v 34 0 34
v 34 0 30
v 34 0 -29
v 34 0 -33
v 34 42 34
v 34 42 30
v 34 42 -29
v 34 42 -33
v -33 0 34
v -33 42 34
v -29 0 34
v -29 42 34
v 30 0 34
v 30 42 34
v 34 0 34
v 34 42 34
v -25 9 33
v -25 16 33
v -24 10 33
v -24 15 33
v -14 10 33
v -14 15 33
v -13 9 33
v -13 16 33
v -29 0 32
v -29 42 32
v -25 9 32
v -25 16 32
v -13 9 32
v -13 16 32
v 30 0 32
v 30 42 32
v -30 1 11
v -30 4 11
v -10 1 11
v -10 4 11
v -30 4 8
v -30 7 8
v -10 4 8
v -10 7 8
v -30 7 5
v -30 10 5
v -10 7 5
v -10 10 5
v -30 10 2
v -30 13 2
v -10 10 2
v -10 13 2
v -30 13 -1
v -30 16 -1
v -10 13 -1
v -10 16 -1
v -30 16 -4
v -30 19 -4
v -10 16 -4
v -10 19 -4
v -30 19 -7
v -30 22 -7
v -10 19 -7
v -10 22 -7
v -10 21 -10
v -10 22 -10
v -10 25 -10
v -9 21 -10
v -9 24 -10
v -7 25 -10
v -7 28 -10
v -6 24 -10
v -6 27 -10
v -4 28 -10
v -4 31 -10
v -3 27 -10
v -3 30 -10
v -1 31 -10
v -1 34 -10
v 0 30 -10
v 0 33 -10
v 2 34 -10
v 2 37 -10
v 3 33 -10
v 3 36 -10
v 5 37 -10
v 5 40 -10
v 6 36 -10
v 6 39 -10
v 8 40 -10
v 8 43 -10
v 9 39 -10
v 9 42 -10
v 11 42 -10
v 11 43 -10
v -32 30 -14
v -32 37 -14
v -31 30 -14
v -31 37 -14
v -32 31 -24
v -32 36 -24
v -30 31 -24
v -30 36 -24
v -33 0 -29
v -33 42 -29
v -31 0 -29
v -31 42 -29
v 32 0 -29
v 32 42 -29
v 34 0 -29
v 34 42 -29
v -30 0 -30
v -30 21 -30
v -30 22 -30
v -30 42 -30
v -10 21 -30
v -10 22 -30
v -10 25 -30
v -9 21 -30
v -9 24 -30
v -7 25 -30
v -7 28 -30
v -6 24 -30
v -6 27 -30
v -4 28 -30
v -4 31 -30
v -3 27 -30
v -3 30 -30
v -1 31 -30
v -1 34 -30
v 0 30 -30
v 0 33 -30
v 2 34 -30
v 2 37 -30
v 3 33 -30
v 3 36 -30
v 5 37 -30
v 5 40 -30
v 6 36 -30
v 6 39 -30
v 8 40 -30
v 8 42 -30
v 9 39 -30
v 9 42 -30
v 11 42 -30
v 31 0 -30
v 31 42 -30
v -30 1 31
v -30 42 31
v -24 10 31
v -24 15 31
v -14 10 31
v -14 15 31
v -10 0 31
v -10 1 31
v 31 0 31
v 31 42 31
v -33 0 30
v -33 42 30
v -31 0 30
v -31 42 30
v 32 0 30
v 32 42 30
v 34 0 30
v 34 42 30
v -30 0 10
v -30 3 10
v -10 0 10
v -10 3 10
v -30 3 7
v -30 6 7
v -10 3 7
v -10 6 7
v -30 6 4
v -30 9 4
v -10 6 4
v -10 9 4
v -30 9 1
v -30 12 1
v -10 9 1
v -10 12 1
v -30 12 -2
v -30 15 -2
v -10 12 -2
v -10 15 -2
v -30 15 -5
v -30 18 -5
v -10 15 -5
v -10 18 -5
v -30 18 -8
v -30 21 -8
v -10 18 -8
v -10 21 -8
v -32 31 -15
v -32 36 -15
v -30 31 -15
v -30 36 -15
v -32 30 -25
v -32 37 -25
v -31 30 -25
v -31 37 -25
v 8 42 -30
v 8 43 -30
v 11 42 -30
v 11 43 -30
v -29 0 -31
v -29 42 -31
v 30 0 -31
v 30 42 -31
v -33 0 -33
v -33 42 -33
v -29 0 -33
v -29 42 -33
v 30 0 -33
v 30 42 -33
v 34 0 -33
v 34 42 -33
v -33 0 34
v -29 0 34
v 30 0 34
v 34 0 34
v -31 0 32
v -29 0 32
v 30 0 32
v 32 0 32
v -30 0 31
v -10 0 31
v 31 0 31
v -33 0 30
v -31 0 30
v 32 0 30
v 34 0 30
v -30 0 11
v -10 0 11
v -30 0 10
v -10 0 10
v -33 0 -29
v -31 0 -29
v 32 0 -29
v 34 0 -29
v -30 0 -30
v 31 0 -30
v -31 0 -31
v -29 0 -31
v 30 0 -31
v 32 0 -31
v -33 0 -33
v -29 0 -33
v 30 0 -33
v 34 0 -33
v -30 3 10
v -10 3 10
v -30 3 7
v -10 3 7
v -30 6 7
v -10 6 7
v -30 6 4
v -10 6 4
v -25 9 33
v -13 9 33
v -25 9 32
v -13 9 32
v -30 9 4
v -10 9 4
v -30 9 1
v -10 9 1
v -30 12 1
v -10 12 1
v -30 12 -2
v -10 12 -2
v -24 15 33
v -14 15 33
v -24 15 31
v -14 15 31
v -30 15 -2
v -10 15 -2
v -30 15 -5
v -10 15 -5
v -30 18 -5
v -10 18 -5
v -30 18 -8
v -10 18 -8
v -30 21 -8
v -10 21 -8
v -30 21 -10
v -10 21 -10
v -9 21 -10
v -30 21 -30
v -10 21 -30
v -9 21 -30
v -9 24 -10
v -6 24 -10
v -9 24 -30
v -6 24 -30
v -6 27 -10
v -3 27 -10
v -6 27 -30
v -3 27 -30
v -3 30 -10
v 0 30 -10
v -32 30 -14
v -31 30 -14
v -32 30 -25
v -31 30 -25
v -3 30 -30
v 0 30 -30
v 0 33 -10
v 3 33 -10
v 0 33 -30
v 3 33 -30
v 3 36 -10
v 6 36 -10
v -32 36 -15
v -30 36 -15
v -32 36 -24
v -30 36 -24
v 3 36 -30
v 6 36 -30
v 6 39 -10
v 9 39 -10
v 6 39 -30
v 9 39 -30
v 9 42 -10
v 11 42 -10
v 9 42 -30
v 11 42 -30
v -30 1 31
v -10 1 31
v -30 1 11
v -10 1 11
v -30 4 11
v -10 4 11
v -30 4 8
v -10 4 8
v -30 7 8
v -10 7 8
v -30 7 5
v -10 7 5
v -24 10 33
v -14 10 33
v -24 10 31
v -14 10 31
v -30 10 5
v -10 10 5
v -30 10 2
v -10 10 2
v -30 13 2
v -10 13 2
v -30 13 -1
v -10 13 -1
v -25 16 33
v -13 16 33
v -25 16 32
v -13 16 32
v -30 16 -1
v -10 16 -1
v -30 16 -4
v -10 16 -4
v -30 19 -4
v -10 19 -4
v -30 19 -7
v -10 19 -7
v -30 22 -7
v -10 22 -7
v -30 22 -10
v -10 22 -10
v -30 22 -30
v -10 22 -30
v -10 25 -10
v -7 25 -10
v -10 25 -30
v -7 25 -30
v -7 28 -10
v -4 28 -10
v -7 28 -30
v -4 28 -30
v -4 31 -10
v -1 31 -10
v -32 31 -15
v -30 31 -15
v -32 31 -24
v -30 31 -24
v -4 31 -30
v -1 31 -30
v -1 34 -10
v 2 34 -10
v -1 34 -30
v 2 34 -30
v 2 37 -10
v 5 37 -10
v -32 37 -14
v -31 37 -14
v -32 37 -25
v -31 37 -25
v 2 37 -30
v 5 37 -30
v 5 40 -10
v 8 40 -10
v 5 40 -30
v 8 40 -30
v -33 42 34
v -29 42 34
v 30 42 34
v 34 42 34
v -31 42 32
v -29 42 32
v 30 42 32
v 32 42 32
v -30 42 31
v 31 42 31
v -33 42 30
v -31 42 30
v 32 42 30
v 34 42 30
v -33 42 -29
v -31 42 -29
v 32 42 -29
v 34 42 -29
v -30 42 -30
v 8 42 -30
v 11 42 -30
v 31 42 -30
v -31 42 -31
v -29 42 -31
v 30 42 -31
v 32 42 -31
v -33 42 -33
v -29 42 -33
v 30 42 -33
v 34 42 -33
v 8 43 -10
v 11 43 -10
v 8 43 -30
v 11 43 -30

# faces
f 5/1/1 2/1/1 1/1/1
f 6/1/1 2/1/1 5/1/1
f 7/1/1 4/1/1 3/1/1
f 8/1/1 4/1/1 7/1/1
f 11/2/1 10/2/1 9/2/1
f 12/2/1 10/2/1 11/2/1
f 13/2/1 11/2/1 9/2/1
f 14/2/1 10/2/1 12/2/1
f 15/2/1 13/2/1 9/2/1
f 15/2/1 14/2/1 13/2/1
f 16/2/1 10/2/1 14/2/1
f 16/2/1 14/2/1 15/2/1
f 19/2/1 18/2/1 17/2/1
f 20/2/1 18/2/1 19/2/1
f 21/2/1 19/2/1 17/2/1
f 22/2/1 18/2/1 20/2/1
f 23/2/1 21/2/1 17/2/1
f 23/2/1 22/2/1 21/2/1
f 24/2/1 18/2/1 22/2/1
f 24/2/1 22/2/1 23/2/1
f 27/2/1 26/2/1 25/2/1
f 28/2/1 26/2/1 27/2/1
f 31/2/1 30/2/1 29/2/1
f 32/2/1 30/2/1 31/2/1
f 35/2/1 34/2/1 33/2/1
f 36/2/1 34/2/1 35/2/1
f 39/2/1 38/2/1 37/2/1
f 40/2/1 38/2/1 39/2/1
f 43/2/1 42/2/1 41/2/1
f 44/2/1 42/2/1 43/2/1
f 47/2/1 46/2/1 45/2/1
f 48/2/1 46/2/1 47/2/1
f 51/2/1 50/2/1 49/2/1
f 52/2/1 50/2/1 51/2/1
f 55/2/1 54/2/1 53/2/1
f 56/2/1 54/2/1 55/2/1
f 59/2/1 58/2/1 57/2/1
f 60/2/1 59/2/1 57/2/1
f 61/2/1 59/2/1 60/2/1
f 66/1/1 63/1/1 62/1/1
f 67/1/1 63/1/1 66/1/1
f 68/1/1 65/1/1 64/1/1
f 69/1/1 65/1/1 68/1/1
f 72/2/1 71/2/1 70/2/1
f 73/2/1 71/2/1 72/2/1
f 74/2/2 75/2/2 78/2/2
f 78/2/2 75/2/2 79/2/2
f 76/2/2 77/2/2 80/2/2
f 79/2/2 75/2/2 82/2/2
f 82/2/2 75/2/2 83/2/2
f 80/2/2 81/2/2 84/2/2
f 83/2/2 75/2/2 86/2/2
f 86/2/2 75/2/2 87/2/2
f 84/2/2 85/2/2 88/2/2
f 87/2/2 75/2/2 90/2/2
f 90/2/2 75/2/2 91/2/2
f 88/2/2 89/2/2 92/2/2
f 91/2/2 75/2/2 94/2/2
f 94/2/2 75/2/2 95/2/2
f 92/2/2 93/2/2 96/2/2
f 95/2/2 75/2/2 98/2/2
f 98/2/2 75/2/2 99/2/2
f 96/2/2 97/2/2 100/2/2
f 99/2/2 75/2/2 102/2/2
f 102/2/2 75/2/2 103/2/2
f 103/2/2 75/2/2 104/2/2
f 100/2/2 101/2/2 105/2/2
f 105/2/2 106/2/2 108/2/2
f 106/2/2 107/2/2 108/2/2
f 108/2/2 107/2/2 109/2/2
f 105/2/2 108/2/2 110/2/2
f 109/2/2 107/2/2 111/2/2
f 76/2/2 80/2/2 112/2/2
f 110/2/2 111/2/2 112/2/2
f 80/2/2 84/2/2 112/2/2
f 84/2/2 88/2/2 112/2/2
f 105/2/2 110/2/2 112/2/2
f 100/2/2 105/2/2 112/2/2
f 88/2/2 92/2/2 112/2/2
f 96/2/2 100/2/2 112/2/2
f 92/2/2 96/2/2 112/2/2
f 111/2/2 107/2/2 113/2/2
f 112/2/2 111/2/2 113/2/2
f 114/1/2 115/1/2 118/1/2
f 118/1/2 115/1/2 119/1/2
f 116/1/2 117/1/2 120/1/2
f 120/1/2 117/1/2 121/1/2
f 122/2/2 123/2/2 124/2/2
f 124/2/2 123/2/2 125/2/2
f 126/2/2 127/2/2 128/2/2
f 128/2/2 127/2/2 129/2/2
f 130/4/2 131/4/2 133/4/2
f 131/3/2 132/3/2 134/3/2
f 133/4/2 131/4/2 134/4/2
f 134/3/2 132/3/2 135/3/2
f 134/3/2 135/3/2 137/3/2
f 135/3/2 136/3/2 137/3/2
f 137/3/2 136/3/2 138/3/2
f 138/3/2 136/3/2 139/3/2
f 138/3/2 139/3/2 141/3/2
f 139/3/2 140/3/2 141/3/2
f 141/3/2 140/3/2 142/3/2
f 142/3/2 140/3/2 143/3/2
f 142/3/2 143/3/2 145/3/2
f 143/3/2 144/3/2 145/3/2
f 145/3/2 144/3/2 146/3/2
f 146/3/2 144/3/2 147/3/2
f 146/3/2 147/3/2 149/3/2
f 147/3/2 148/3/2 149/3/2
f 149/3/2 148/3/2 150/3/2
f 150/3/2 148/3/2 151/3/2
f 150/3/2 151/3/2 153/3/2
f 151/3/2 152/3/2 153/3/2
f 153/3/2 152/3/2 154/3/2
f 154/3/2 152/3/2 155/3/2
f 154/3/2 155/3/2 157/3/2
f 155/3/2 156/3/2 157/3/2
f 157/3/2 156/3/2 158/3/2
f 158/3/2 156/3/2 159/3/2
f 158/3/2 159/3/2 161/3/2
f 159/3/2 160/3/2 161/3/2
f 161/3/2 160/3/2 162/3/2
f 163/2/2 164/2/2 165/2/2
f 165/2/2 164/2/2 166/2/2
f 167/2/2 168/2/2 169/2/2
f 169/2/2 168/2/2 170/2/2
f 171/2/2 172/2/2 173/2/2
f 173/2/2 172/2/2 174/2/2
f 175/2/2 176/2/2 177/2/2
f 177/2/2 176/2/2 178/2/2
f 179/2/2 180/2/2 181/2/2
f 181/2/2 180/2/2 182/2/2
f 183/2/2 184/2/2 185/2/2
f 185/2/2 184/2/2 186/2/2
f 187/2/2 188/2/2 189/2/2
f 189/2/2 188/2/2 190/2/2
f 191/2/2 192/2/2 193/2/2
f 193/2/2 192/2/2 194/2/2
f 195/2/2 196/2/2 197/2/2
f 197/2/2 196/2/2 198/2/2
f 199/1/2 200/1/2 203/1/2
f 203/1/2 200/1/2 204/1/2
f 201/1/2 202/1/2 205/1/2
f 205/1/2 202/1/2 206/1/2
f 209/1/3 208/1/3 207/1/3
f 210/1/3 208/1/3 209/1/3
f 213/1/3 212/1/3 211/1/3
f 214/1/3 212/1/3 213/1/3
f 217/2/3 216/2/3 215/2/3
f 218/2/3 216/2/3 217/2/3
f 219/2/3 217/2/3 215/2/3
f 220/2/3 216/2/3 218/2/3
f 221/2/3 219/2/3 215/2/3
f 221/2/3 220/2/3 219/2/3
f 222/2/3 216/2/3 220/2/3
f 222/2/3 220/2/3 221/2/3
f 225/2/3 224/2/3 223/2/3
f 226/2/3 224/2/3 225/2/3
f 227/2/3 225/2/3 223/2/3
f 228/2/3 224/2/3 226/2/3
f 229/2/3 227/2/3 223/2/3
f 229/2/3 228/2/3 227/2/3
f 230/2/3 224/2/3 228/2/3
f 230/2/3 228/2/3 229/2/3
f 233/3/3 232/3/3 231/3/3
f 234/3/3 232/3/3 233/3/3
f 237/3/3 236/3/3 235/3/3
f 238/3/3 236/3/3 237/3/3
f 241/3/3 240/3/3 239/3/3
f 242/3/3 240/3/3 241/3/3
f 245/3/3 244/3/3 243/3/3
f 246/3/3 244/3/3 245/3/3
f 249/3/3 248/3/3 247/3/3
f 250/3/3 248/3/3 249/3/3
f 253/3/3 252/3/3 251/3/3
f 254/3/3 252/3/3 253/3/3
f 257/3/3 256/3/3 255/3/3
f 258/3/3 256/3/3 257/3/3
f 262/2/3 260/2/3 259/2/3
f 262/2/3 261/2/3 260/2/3
f 263/2/3 261/2/3 262/2/3
f 264/2/3 261/2/3 263/2/3
f 266/2/3 264/2/3 263/2/3
f 266/2/3 265/2/3 264/2/3
f 267/2/3 265/2/3 266/2/3
f 268/2/3 265/2/3 267/2/3
f 270/2/3 268/2/3 267/2/3
f 270/2/3 269/2/3 268/2/3
f 271/2/3 269/2/3 270/2/3
f 272/2/3 269/2/3 271/2/3
f 274/2/3 272/2/3 271/2/3
f 274/2/3 273/2/3 272/2/3
f 275/2/3 273/2/3 274/2/3
f 276/2/3 273/2/3 275/2/3
f 278/2/3 276/2/3 275/2/3
f 278/2/3 277/2/3 276/2/3
f 279/2/3 277/2/3 278/2/3
f 280/2/3 277/2/3 279/2/3
f 282/2/3 280/2/3 279/2/3
f 282/2/3 281/2/3 280/2/3
f 283/2/3 281/2/3 282/2/3
f 284/2/3 281/2/3 283/2/3
f 286/2/3 284/2/3 283/2/3
f 286/2/3 285/2/3 284/2/3
f 287/2/3 285/2/3 286/2/3
f 288/2/3 285/2/3 287/2/3
f 289/2/3 285/2/3 288/2/3
f 292/2/3 291/2/3 290/2/3
f 293/2/3 291/2/3 292/2/3
f 296/2/3 295/2/3 294/2/3
f 297/2/3 295/2/3 296/2/3
f 300/1/3 299/1/3 298/1/3
f 301/1/3 299/1/3 300/1/3
f 304/1/3 303/1/3 302/1/3
f 305/1/3 303/1/3 304/1/3
f 310/2/3 307/2/3 306/2/3
f 311/2/3 309/2/3 308/2/3
f 312/2/3 309/2/3 311/2/3
f 313/2/3 310/2/3 306/2/3
f 315/2/3 309/2/3 312/2/3
f 316/2/3 309/2/3 315/2/3
f 317/2/3 314/2/3 313/2/3
f 319/2/3 309/2/3 316/2/3
f 320/2/3 309/2/3 319/2/3
f 321/2/3 318/2/3 317/2/3
f 323/2/3 309/2/3 320/2/3
f 324/2/3 309/2/3 323/2/3
f 325/2/3 322/2/3 321/2/3
f 327/2/3 309/2/3 324/2/3
f 328/2/3 309/2/3 327/2/3
f 329/2/3 326/2/3 325/2/3
f 331/2/3 309/2/3 328/2/3
f 332/2/3 309/2/3 331/2/3
f 333/2/3 330/2/3 329/2/3
f 335/2/3 309/2/3 332/2/3
f 336/2/3 309/2/3 335/2/3
f 337/2/3 334/2/3 333/2/3
f 339/2/3 338/2/3 337/2/3
f 340/2/3 313/2/3 306/2/3
f 340/2/3 317/2/3 313/2/3
f 340/2/3 339/2/3 337/2/3
f 340/2/3 337/2/3 333/2/3
f 340/2/3 321/2/3 317/2/3
f 340/2/3 333/2/3 329/2/3
f 340/2/3 325/2/3 321/2/3
f 340/2/3 329/2/3 325/2/3
f 341/2/3 339/2/3 340/2/3
f 342/2/4 343/2/4 344/2/4
f 344/2/4 343/2/4 345/2/4
f 342/2/4 344/2/4 346/2/4
f 345/2/4 343/2/4 347/2/4
f 342/2/4 346/2/4 349/2/4
f 346/2/4 347/2/4 349/2/4
f 348/2/4 349/2/4 350/2/4
f 347/2/4 343/2/4 351/2/4
f 350/2/4 349/2/4 351/2/4
f 349/2/4 347/2/4 351/2/4
f 352/1/4 353/1/4 354/1/4
f 354/1/4 353/1/4 355/1/4
f 356/1/4 357/1/4 358/1/4
f 358/1/4 357/1/4 359/1/4
f 360/3/4 361/3/4 362/3/4
f 362/3/4 361/3/4 363/3/4
f 364/3/4 365/3/4 366/3/4
f 366/3/4 365/3/4 367/3/4
f 368/3/4 369/3/4 370/3/4
f 370/3/4 369/3/4 371/3/4
f 372/3/4 373/3/4 374/3/4
f 374/3/4 373/3/4 375/3/4
f 376/3/4 377/3/4 378/3/4
f 378/3/4 377/3/4 379/3/4
f 380/3/4 381/3/4 382/3/4
f 382/3/4 381/3/4 383/3/4
f 384/3/4 385/3/4 386/3/4
f 386/3/4 385/3/4 387/3/4
f 388/2/4 389/2/4 390/2/4
f 390/2/4 389/2/4 391/2/4
f 392/2/4 393/2/4 394/2/4
f 394/2/4 393/2/4 395/2/4
f 396/2/4 397/2/4 398/2/4
f 398/2/4 397/2/4 399/2/4
f 400/2/4 401/2/4 402/2/4
f 402/2/4 401/2/4 403/2/4
f 404/1/4 405/1/4 406/1/4
f 406/1/4 405/1/4 407/1/4
f 408/1/4 409/1/4 410/1/4
f 410/1/4 409/1/4 411/1/4
f 416/1/5 413/1/5 412/1/5
f 417/1/5 413/1/5 416/1/5
f 418/1/5 415/1/5 414/1/5
f 419/1/5 415/1/5 418/1/5
f 420/2/5 417/2/5 416/2/5
f 420/2/5 418/2/5 417/2/5
f 420/2/5 419/2/5 418/2/5
f 421/2/5 419/2/5 420/2/5
f 422/2/5 419/2/5 421/2/5
f 423/1/5 416/1/5 412/1/5
f 424/2/5 420/2/5 416/2/5
f 424/1/5 416/1/5 423/1/5
f 425/1/5 415/1/5 419/1/5
f 425/2/5 419/2/5 422/2/5
f 426/1/5 415/1/5 425/1/5
f 427/2/5 420/2/5 424/2/5
f 427/4/5 421/4/5 420/4/5
f 428/4/5 421/4/5 427/4/5
f 429/2/5 427/2/5 424/2/5
f 429/3/5 428/3/5 427/3/5
f 430/3/5 428/3/5 429/3/5
f 432/2/5 429/2/5 424/2/5
f 433/2/5 425/2/5 422/2/5
f 435/2/5 429/2/5 432/2/5
f 436/2/5 433/2/5 422/2/5
f 437/1/5 432/1/5 431/1/5
f 437/2/5 436/2/5 435/2/5
f 437/2/5 435/2/5 432/2/5
f 438/2/5 436/2/5 437/2/5
f 439/2/5 436/2/5 438/2/5
f 440/2/5 433/2/5 436/2/5
f 440/2/5 436/2/5 439/2/5
f 440/1/5 434/1/5 433/1/5
f 441/1/5 438/1/5 437/1/5
f 441/1/5 437/1/5 431/1/5
f 442/1/5 438/1/5 441/1/5
f 443/1/5 440/1/5 439/1/5
f 444/1/5 434/1/5 440/1/5
f 444/1/5 440/1/5 443/1/5
f 447/3/5 446/3/5 445/3/5
f 448/3/5 446/3/5 447/3/5
f 451/3/5 450/3/5 449/3/5
f 452/3/5 450/3/5 451/3/5
f 455/2/5 454/2/5 453/2/5
f 456/2/5 454/2/5 455/2/5
f 459/3/5 458/3/5 457/3/5
f 460/3/5 458/3/5 459/3/5
f 463/3/5 462/3/5 461/3/5
f 464/3/5 462/3/5 463/3/5
f 467/2/5 466/2/5 465/2/5
f 468/2/5 466/2/5 467/2/5
f 471/3/5 470/3/5 469/3/5
f 472/3/5 470/3/5 471/3/5
f 475/3/5 474/3/5 473/3/5
f 476/3/5 474/3/5 475/3/5
f 479/3/5 478/3/5 477/3/5
f 480/3/5 478/3/5 479/3/5
f 482/4/5 480/4/5 479/4/5
f 483/2/5 481/2/5 480/2/5
f 483/4/5 480/4/5 482/4/5
f 484/2/5 481/2/5 483/2/5
f 487/2/5 486/2/5 485/2/5
f 488/2/5 486/2/5 487/2/5
f 491/2/5 490/2/5 489/2/5
f 492/2/5 490/2/5 491/2/5
f 497/2/5 496/2/5 495/2/5
f 498/2/5 496/2/5 497/2/5
f 499/2/5 494/2/5 493/2/5
f 500/2/5 494/2/5 499/2/5
f 503/2/5 502/2/5 501/2/5
f 504/2/5 502/2/5 503/2/5
f 509/2/5 508/2/5 507/2/5
f 510/2/5 508/2/5 509/2/5
f 511/2/5 506/2/5 505/2/5
f 512/2/5 506/2/5 511/2/5
f 515/2/5 514/2/5 513/2/5
f 516/2/5 514/2/5 515/2/5
f 519/2/5 518/2/5 517/2/5
f 520/2/5 518/2/5 519/2/5
f 521/4/6 522/4/6 523/4/6
f 523/4/6 522/4/6 524/4/6
f 525/3/6 526/3/6 527/3/6
f 527/3/6 526/3/6 528/3/6
f 529/3/6 530/3/6 531/3/6
f 531/3/6 530/3/6 532/3/6
f 533/2/6 534/2/6 535/2/6
f 535/2/6 534/2/6 536/2/6
f 537/3/6 538/3/6 539/3/6
f 539/3/6 538/3/6 540/3/6
f 541/3/6 542/3/6 543/3/6
f 543/3/6 542/3/6 544/3/6
f 545/2/6 546/2/6 547/2/6
f 547/2/6 546/2/6 548/2/6
f 549/3/6 550/3/6 551/3/6
f 551/3/6 550/3/6 552/3/6
f 553/3/6 554/3/6 555/3/6
f 555/3/6 554/3/6 556/3/6
f 557/3/6 558/3/6 559/3/6
f 559/3/6 558/3/6 560/3/6
f 559/4/6 560/4/6 561/4/6
f 561/4/6 560/4/6 562/4/6
f 563/2/6 564/2/6 565/2/6
f 565/2/6 564/2/6 566/2/6
f 567/2/6 568/2/6 569/2/6
f 569/2/6 568/2/6 570/2/6
f 573/2/6 574/2/6 575/2/6
f 575/2/6 574/2/6 576/2/6
f 571/2/6 572/2/6 577/2/6
f 577/2/6 572/2/6 578/2/6
f 579/2/6 580/2/6 581/2/6
f 581/2/6 580/2/6 582/2/6
f 585/2/6 586/2/6 587/2/6
f 587/2/6 586/2/6 588/2/6
f 583/2/6 584/2/6 589/2/6
f 589/2/6 584/2/6 590/2/6
f 591/2/6 592/2/6 593/2/6
f 593/2/6 592/2/6 594/2/6
f 595/1/6 596/1/6 599/1/6
f 599/1/6 596/1/6 600/1/6
f 597/1/6 598/1/6 601/1/6
f 601/1/6 598/1/6 602/1/6
f 599/2/6 600/2/6 603/2/6
f 600/2/6 601/2/6 603/2/6
f 601/2/6 602/2/6 603/2/6
f 603/2/6 602/2/6 604/2/6
f 595/1/6 599/1/6 605/1/6
f 599/2/6 603/2/6 606/2/6
f 605/1/6 599/1/6 606/1/6
f 602/1/6 598/1/6 607/1/6
f 604/2/6 602/2/6 607/2/6
f 607/1/6 598/1/6 608/1/6
f 606/2/6 603/2/6 610/2/6
f 604/2/6 607/2/6 611/2/6
f 610/2/6 603/2/6 613/2/6
f 604/2/6 611/2/6 616/2/6
f 609/1/6 610/1/6 617/1/6
f 615/2/6 616/2/6 617/2/6
f 614/2/6 615/2/6 617/2/6
f 610/2/6 613/2/6 617/2/6
f 613/2/6 614/2/6 617/2/6
f 617/2/6 616/2/6 618/2/6
f 618/2/6 616/2/6 619/2/6
f 616/2/6 611/2/6 620/2/6
f 619/2/6 616/2/6 620/2/6
f 611/1/6 612/1/6 620/1/6
f 617/1/6 618/1/6 621/1/6
f 609/1/6 617/1/6 621/1/6
f 621/1/6 618/1/6 622/1/6
f 619/1/6 620/1/6 623/1/6
f 620/1/6 612/1/6 624/1/6
f 623/1/6 620/1/6 624/1/6
f 625/2/6 626/2/6 627/2/6
f 627/2/6 626/2/6 628/2/6
