# MagicaVoxel @ Ephtracy

# group
g store_alter

# material
mtllib store_alter.mtl
usemtl palette

# normals
vn -1 0 0
vn 1 0 0
vn 0 0 1
vn 0 0 -1
vn 0 -1 0
vn 0 1 0

# texcoords
vt 0.248047 0.5
vt 0.841797 0.5

# verts
v -21 0 15
v -21 0 -15
v -21 1 15
v -21 1 -14
v -21 26 16
v -21 26 15
v -21 26 14
v -21 27 16
v -21 27 15
v -21 35 14
v -21 35 -14
v -21 36 16
v -21 36 15
v -21 36 -15
v 20 1 15
v 20 1 -14
v 20 1 -15
v 20 26 15
v 20 26 14
v 20 35 14
v 20 35 -14
v 20 35 -15
v -20 1 15
v -20 1 -14
v -20 1 -15
v -20 26 15
v -20 26 14
v -20 35 14
v -20 35 -14
v -20 35 -15
v 21 0 15
v 21 0 -15
v 21 1 15
v 21 1 -14
v 21 26 16
v 21 26 15
v 21 26 14
v 21 27 16
v 21 27 15
v 21 35 14
v 21 35 -14
v 21 36 16
v 21 36 15
v 21 36 -15
v -21 26 16
v -21 27 16
v -21 36 16
v 21 26 16
v 21 27 16
v 21 36 16
v -21 0 15
v -21 1 15
v -21 26 15
v -20 1 15
v -20 26 15
v 20 1 15
v 20 26 15
v 21 0 15
v 21 1 15
v 21 26 15
v -20 26 14
v -20 35 14
v 20 26 14
v 20 35 14
v -21 0 -15
v -21 36 -15
v -20 1 -15
v -20 35 -15
v 20 1 -15
v 20 35 -15
v 21 0 -15
v 21 36 -15
v -21 0 15
v 21 0 15
v -21 0 -15
v 21 0 -15
v -21 26 16
v 21 26 16
v -21 26 15
v -20 26 15
v 20 26 15
v 21 26 15
v -20 26 14
v 20 26 14
v -20 35 14
v 20 35 14
v -20 35 -14
v 20 35 -14
v -20 35 -15
v 20 35 -15
v -20 1 15
v 20 1 15
v -20 1 -14
v 20 1 -14
v -20 1 -15
v 20 1 -15
v -21 36 16
v 21 36 16
v -21 36 15
v 21 36 15
v -21 36 -15
v 21 36 -15

# faces
f 3/2/1 2/2/1 1/2/1
f 4/2/1 2/2/1 3/2/1
f 6/1/1 4/1/1 3/1/1
f 7/1/1 4/1/1 6/1/1
f 8/2/1 6/2/1 5/2/1
f 8/2/1 7/2/1 6/2/1
f 9/2/1 7/2/1 8/2/1
f 10/1/1 4/1/1 7/1/1
f 10/2/1 7/2/1 9/2/1
f 11/2/1 2/2/1 4/2/1
f 11/1/1 4/1/1 10/1/1
f 12/1/1 9/1/1 8/1/1
f 13/2/1 10/2/1 9/2/1
f 13/1/1 9/1/1 12/1/1
f 13/2/1 11/2/1 10/2/1
f 14/2/1 2/2/1 11/2/1
f 14/2/1 11/2/1 13/2/1
f 18/1/1 16/1/1 15/1/1
f 19/1/1 16/1/1 18/1/1
f 20/1/1 16/1/1 19/1/1
f 21/2/1 17/2/1 16/2/1
f 21/1/1 16/1/1 20/1/1
f 22/2/1 17/2/1 21/2/1
f 23/1/2 24/1/2 26/1/2
f 26/1/2 24/1/2 27/1/2
f 27/1/2 24/1/2 28/1/2
f 24/2/2 25/2/2 29/2/2
f 28/1/2 24/1/2 29/1/2
f 29/2/2 25/2/2 30/2/2
f 31/2/2 32/2/2 33/2/2
f 33/2/2 32/2/2 34/2/2
f 33/1/2 34/1/2 36/1/2
f 36/1/2 34/1/2 37/1/2
f 35/2/2 36/2/2 38/2/2
f 36/2/2 37/2/2 38/2/2
f 38/2/2 37/2/2 39/2/2
f 37/1/2 34/1/2 40/1/2
f 39/2/2 37/2/2 40/2/2
f 34/2/2 32/2/2 41/2/2
f 40/1/2 34/1/2 41/1/2
f 38/1/2 39/1/2 42/1/2
f 39/2/2 40/2/2 43/2/2
f 42/1/2 39/1/2 43/1/2
f 40/2/2 41/2/2 43/2/2
f 41/2/2 32/2/2 44/2/2
f 43/2/2 41/2/2 44/2/2
f 48/2/3 46/2/3 45/2/3
f 49/1/3 47/1/3 46/1/3
f 49/2/3 46/2/3 48/2/3
f 50/1/3 47/1/3 49/1/3
f 54/2/3 52/2/3 51/2/3
f 54/1/3 53/1/3 52/1/3
f 55/1/3 53/1/3 54/1/3
f 56/2/3 54/2/3 51/2/3
f 58/2/3 56/2/3 51/2/3
f 59/1/3 57/1/3 56/1/3
f 59/2/3 56/2/3 58/2/3
f 60/1/3 57/1/3 59/1/3
f 61/2/4 62/2/4 63/2/4
f 63/2/4 62/2/4 64/2/4
f 65/2/4 66/2/4 67/2/4
f 67/2/4 66/2/4 68/2/4
f 65/2/4 67/2/4 69/2/4
f 68/2/4 66/2/4 70/2/4
f 65/2/4 69/2/4 71/2/4
f 69/2/4 70/2/4 71/2/4
f 70/2/4 66/2/4 72/2/4
f 71/2/4 70/2/4 72/2/4
f 75/2/5 74/2/5 73/2/5
f 76/2/5 74/2/5 75/2/5
f 79/2/5 78/2/5 77/2/5
f 80/2/5 78/2/5 79/2/5
f 81/2/5 78/2/5 80/2/5
f 82/2/5 78/2/5 81/2/5
f 83/2/5 81/2/5 80/2/5
f 84/2/5 81/2/5 83/2/5
f 87/2/5 86/2/5 85/2/5
f 88/2/5 86/2/5 87/2/5
f 89/2/5 88/2/5 87/2/5
f 90/2/5 88/2/5 89/2/5
f 91/2/6 92/2/6 93/2/6
f 93/2/6 92/2/6 94/2/6
f 93/2/6 94/2/6 95/2/6
f 95/2/6 94/2/6 96/2/6
f 97/1/6 98/1/6 99/1/6
f 99/1/6 98/1/6 100/1/6
f 99/2/6 100/2/6 101/2/6
f 101/2/6 100/2/6 102/2/6
