# MagicaVoxel @ Ephtracy

# group
g store_2

# material
mtllib store_2.mtl
usemtl palette

# normals
vn -1 0 0
vn 1 0 0
vn 0 0 1
vn 0 0 -1
vn 0 -1 0
vn 0 1 0

# texcoords
vt 0.185547 0.5
vt 0.248047 0.5
vt 0.310547 0.5
vt 0.841797 0.5

# verts
v -21 22 29
v -21 22 -1
v -21 23 29
v -21 23 -0
v -21 48 30
v -21 48 29
v -21 48 28
v -21 49 30
v -21 49 29
v -21 57 28
v -21 57 -0
v -21 58 30
v -21 58 29
v -21 58 -1
v -1 1 3
v -1 1 -20
v -1 4 6
v -1 4 3
v -1 7 9
v -1 7 6
v -1 10 12
v -1 10 9
v -1 13 15
v -1 13 12
v -1 16 18
v -1 16 15
v -1 19 21
v -1 19 18
v -1 22 21
v -1 22 -1
v -1 22 -20
v 20 2 2
v 20 2 -19
v 20 5 5
v 20 5 2
v 20 8 8
v 20 8 5
v 20 11 11
v 20 11 8
v 20 14 14
v 20 14 11
v 20 17 17
v 20 17 14
v 20 20 20
v 20 20 17
v 20 21 -1
v 20 21 -19
v 20 22 -0
v 20 22 -1
v 20 23 29
v 20 23 23
v 20 23 20
v 20 23 -0
v 20 48 29
v 20 48 28
v 20 57 28
v 20 57 -0
v -20 23 29
v -20 23 -0
v -20 48 29
v -20 48 28
v -20 57 28
v -20 57 -0
v 0 2 2
v 0 2 -19
v 0 5 5
v 0 5 2
v 0 8 8
v 0 8 5
v 0 11 11
v 0 11 8
v 0 14 14
v 0 14 11
v 0 17 17
v 0 17 14
v 0 20 20
v 0 20 17
v 0 21 -1
v 0 21 -19
v 0 22 -0
v 0 22 -1
v 0 23 20
v 0 23 -0
v 21 1 3
v 21 1 -20
v 21 4 6
v 21 4 3
v 21 7 9
v 21 7 6
v 21 10 12
v 21 10 9
v 21 13 15
v 21 13 12
v 21 16 18
v 21 16 15
v 21 19 21
v 21 19 18
v 21 22 29
v 21 22 21
v 21 22 -1
v 21 22 -20
v 21 23 29
v 21 23 -0
v 21 48 30
v 21 48 29
v 21 48 28
v 21 49 30
v 21 49 29
v 21 57 28
v 21 57 -0
v 21 58 30
v 21 58 29
v 21 58 -1
v -21 48 30
v -21 49 30
v -21 58 30
v 21 48 30
v 21 49 30
v 21 58 30
v -21 22 29
v -21 23 29
v -21 48 29
v -20 23 29
v -20 48 29
v 20 23 29
v 20 48 29
v 21 22 29
v 21 23 29
v 21 48 29
v -1 19 21
v -1 22 21
v 0 19 21
v 0 22 21
v 20 19 21
v 20 22 21
v 21 19 21
v 21 22 21
v -1 16 18
v -1 19 18
v 0 16 18
v 0 19 18
v 20 16 18
v 20 19 18
v 21 16 18
v 21 19 18
v -1 13 15
v -1 16 15
v 0 13 15
v 0 16 15
v 20 13 15
v 20 16 15
v 21 13 15
v 21 16 15
v -1 10 12
v -1 13 12
v 0 10 12
v 0 13 12
v 20 10 12
v 20 13 12
v 21 10 12
v 21 13 12
v -1 7 9
v -1 10 9
v 0 7 9
v 0 10 9
v 20 7 9
v 20 10 9
v 21 7 9
v 21 10 9
v -1 4 6
v -1 7 6
v 0 4 6
v 0 7 6
v 20 4 6
v 20 7 6
v 21 4 6
v 21 7 6
v -1 1 3
v -1 4 3
v 0 1 3
v 0 4 3
v 20 1 3
v 20 4 3
v 21 1 3
v 21 4 3
v -20 23 -0
v -20 57 -0
v 0 22 -0
v 0 23 -0
v 20 22 -0
v 20 23 -0
v 20 57 -0
v 0 21 -1
v 0 22 -1
v 20 21 -1
v 20 22 -1
v 0 2 -19
v 0 21 -19
v 20 2 -19
v 20 21 -19
v -20 48 28
v -20 57 28
v 20 48 28
v 20 57 28
v 0 20 20
v 0 23 20
v 20 20 20
v 20 23 20
v 0 17 17
v 0 20 17
v 20 17 17
v 20 20 17
v 0 14 14
v 0 17 14
v 20 14 14
v 20 17 14
v 0 11 11
v 0 14 11
v 20 11 11
v 20 14 11
v 0 8 8
v 0 11 8
v 20 8 8
v 20 11 8
v 0 5 5
v 0 8 5
v 20 5 5
v 20 8 5
v 0 2 2
v 0 5 2
v 20 2 2
v 20 5 2
v -21 22 -1
v -21 58 -1
v -1 22 -1
v 21 22 -1
v 21 58 -1
v -1 1 -20
v -1 22 -20
v 0 2 -20
v 0 21 -20
v 20 2 -20
v 20 21 -20
v 21 1 -20
v 21 22 -20
v -1 1 3
v 0 1 3
v 20 1 3
v 21 1 3
v 0 1 2
v 20 1 2
v -1 1 -20
v 21 1 -20
v -1 4 6
v 0 4 6
v 20 4 6
v 21 4 6
v -1 4 3
v 0 4 3
v 20 4 3
v 21 4 3
v -1 7 9
v 0 7 9
v 20 7 9
v 21 7 9
v -1 7 6
v 0 7 6
v 20 7 6
v 21 7 6
v -1 10 12
v 0 10 12
v 20 10 12
v 21 10 12
v -1 10 9
v 0 10 9
v 20 10 9
v 21 10 9
v -1 13 15
v 0 13 15
v 20 13 15
v 21 13 15
v -1 13 12
v 0 13 12
v 20 13 12
v 21 13 12
v -1 16 18
v 0 16 18
v 20 16 18
v 21 16 18
v -1 16 15
v 0 16 15
v 20 16 15
v 21 16 15
v -1 19 21
v 0 19 21
v 20 19 21
v 21 19 21
v -1 19 18
v 0 19 18
v 20 19 18
v 21 19 18
v 0 21 -1
v 20 21 -1
v 0 21 -19
v 20 21 -19
v -21 22 29
v 21 22 29
v 0 22 23
v 20 22 23
v -1 22 21
v 0 22 21
v 20 22 21
v 21 22 21
v 0 22 -0
v 20 22 -0
v -21 22 -1
v -1 22 -1
v 0 22 -1
v 20 22 -1
v -21 48 30
v 21 48 30
v -21 48 29
v -20 48 29
v 20 48 29
v 21 48 29
v -20 48 28
v 20 48 28
v -20 57 28
v 20 57 28
v -20 57 -0
v 20 57 -0
v 0 2 2
v 20 2 2
v 0 2 -19
v 20 2 -19
v 0 5 5
v 20 5 5
v 0 5 2
v 20 5 2
v 0 8 8
v 20 8 8
v 0 8 5
v 20 8 5
v 0 11 11
v 20 11 11
v 0 11 8
v 20 11 8
v 0 14 14
v 20 14 14
v 0 14 11
v 20 14 11
v 0 17 17
v 20 17 17
v 0 17 14
v 20 17 14
v 0 20 20
v 20 20 20
v 0 20 17
v 20 20 17
v -1 22 -1
v 21 22 -1
v -1 22 -20
v 21 22 -20
v -20 23 29
v 20 23 29
v 0 23 23
v 20 23 23
v 0 23 20
v 20 23 20
v -20 23 -0
v 0 23 -0
v -21 58 30
v 21 58 30
v -21 58 29
v 21 58 29
v -21 58 -1
v 21 58 -1

# faces
f 3/4/1 2/4/1 1/4/1
f 4/4/1 2/4/1 3/4/1
f 6/2/1 4/2/1 3/2/1
f 7/2/1 4/2/1 6/2/1
f 8/4/1 6/4/1 5/4/1
f 8/4/1 7/4/1 6/4/1
f 9/4/1 7/4/1 8/4/1
f 10/2/1 4/2/1 7/2/1
f 10/4/1 7/4/1 9/4/1
f 11/4/1 2/4/1 4/4/1
f 11/2/1 4/2/1 10/2/1
f 12/2/1 9/2/1 8/2/1
f 13/4/1 10/4/1 9/4/1
f 13/2/1 9/2/1 12/2/1
f 13/4/1 11/4/1 10/4/1
f 14/4/1 2/4/1 11/4/1
f 14/4/1 11/4/1 13/4/1
f 18/4/1 16/4/1 15/4/1
f 20/4/1 18/4/1 17/4/1
f 22/4/1 20/4/1 19/4/1
f 24/4/1 22/4/1 21/4/1
f 26/4/1 24/4/1 23/4/1
f 28/4/1 26/4/1 25/4/1
f 29/4/1 28/4/1 27/4/1
f 30/4/1 16/4/1 18/4/1
f 30/4/1 28/4/1 29/4/1
f 30/4/1 18/4/1 20/4/1
f 30/4/1 26/4/1 28/4/1
f 30/4/1 20/4/1 22/4/1
f 30/4/1 24/4/1 26/4/1
f 30/4/1 22/4/1 24/4/1
f 31/4/1 16/4/1 30/4/1
f 35/4/1 33/4/1 32/4/1
f 37/4/1 35/4/1 34/4/1
f 39/4/1 37/4/1 36/4/1
f 41/4/1 39/4/1 38/4/1
f 43/4/1 41/4/1 40/4/1
f 45/4/1 43/4/1 42/4/1
f 46/4/1 33/4/1 35/4/1
f 46/4/1 45/4/1 44/4/1
f 46/4/1 43/4/1 45/4/1
f 46/4/1 35/4/1 37/4/1
f 46/4/1 41/4/1 43/4/1
f 46/4/1 37/4/1 39/4/1
f 46/4/1 39/4/1 41/4/1
f 47/4/1 33/4/1 46/4/1
f 48/4/1 46/4/1 44/4/1
f 49/4/1 46/4/1 48/4/1
f 52/4/1 48/4/1 44/4/1
f 53/4/1 48/4/1 52/4/1
f 54/2/1 51/2/1 50/2/1
f 54/2/1 52/2/1 51/2/1
f 54/2/1 53/2/1 52/2/1
f 55/2/1 53/2/1 54/2/1
f 56/2/1 53/2/1 55/2/1
f 57/2/1 53/2/1 56/2/1
f 58/2/2 59/2/2 60/2/2
f 60/2/2 59/2/2 61/2/2
f 61/2/2 59/2/2 62/2/2
f 62/2/2 59/2/2 63/2/2
f 64/4/2 65/4/2 67/4/2
f 66/4/2 67/4/2 69/4/2
f 68/4/2 69/4/2 71/4/2
f 70/4/2 71/4/2 73/4/2
f 72/4/2 73/4/2 75/4/2
f 74/4/2 75/4/2 77/4/2
f 67/4/2 65/4/2 78/4/2
f 76/4/2 77/4/2 78/4/2
f 77/4/2 75/4/2 78/4/2
f 69/4/2 67/4/2 78/4/2
f 75/4/2 73/4/2 78/4/2
f 71/4/2 69/4/2 78/4/2
f 73/4/2 71/4/2 78/4/2
f 78/4/2 65/4/2 79/4/2
f 76/4/2 78/4/2 80/4/2
f 80/4/2 78/4/2 81/4/2
f 76/4/2 80/4/2 82/4/2
f 82/4/2 80/4/2 83/4/2
f 84/4/2 85/4/2 87/4/2
f 86/4/2 87/4/2 89/4/2
f 88/4/2 89/4/2 91/4/2
f 90/4/2 91/4/2 93/4/2
f 92/4/2 93/4/2 95/4/2
f 94/4/2 95/4/2 97/4/2
f 96/4/2 97/4/2 99/4/2
f 87/4/2 85/4/2 100/4/2
f 89/4/2 87/4/2 100/4/2
f 99/4/2 97/4/2 100/4/2
f 91/4/2 89/4/2 100/4/2
f 97/4/2 95/4/2 100/4/2
f 93/4/2 91/4/2 100/4/2
f 95/4/2 93/4/2 100/4/2
f 100/4/2 85/4/2 101/4/2
f 98/4/2 99/4/2 102/4/2
f 99/4/2 100/4/2 102/4/2
f 102/4/2 100/4/2 103/4/2
f 102/2/2 103/2/2 105/2/2
f 105/2/2 103/2/2 106/2/2
f 104/4/2 105/4/2 107/4/2
f 105/4/2 106/4/2 107/4/2
f 107/4/2 106/4/2 108/4/2
f 106/2/2 103/2/2 109/2/2
f 108/4/2 106/4/2 109/4/2
f 103/4/2 100/4/2 110/4/2
f 109/2/2 103/2/2 110/2/2
f 107/2/2 108/2/2 111/2/2
f 108/4/2 109/4/2 112/4/2
f 111/2/2 108/2/2 112/2/2
f 109/4/2 110/4/2 112/4/2
f 110/4/2 100/4/2 113/4/2
f 112/4/2 110/4/2 113/4/2
f 117/4/3 115/4/3 114/4/3
f 118/2/3 116/2/3 115/2/3
f 118/4/3 115/4/3 117/4/3
f 119/2/3 116/2/3 118/2/3
f 123/4/3 121/4/3 120/4/3
f 123/2/3 122/2/3 121/2/3
f 124/2/3 122/2/3 123/2/3
f 125/4/3 123/4/3 120/4/3
f 127/4/3 125/4/3 120/4/3
f 128/2/3 126/2/3 125/2/3
f 128/4/3 125/4/3 127/4/3
f 129/2/3 126/2/3 128/2/3
f 132/4/3 131/4/3 130/4/3
f 133/4/3 131/4/3 132/4/3
f 134/3/3 133/3/3 132/3/3
f 135/3/3 133/3/3 134/3/3
f 136/4/3 135/4/3 134/4/3
f 137/4/3 135/4/3 136/4/3
f 140/4/3 139/4/3 138/4/3
f 141/4/3 139/4/3 140/4/3
f 142/3/3 141/3/3 140/3/3
f 143/3/3 141/3/3 142/3/3
f 144/4/3 143/4/3 142/4/3
f 145/4/3 143/4/3 144/4/3
f 148/4/3 147/4/3 146/4/3
f 149/4/3 147/4/3 148/4/3
f 150/3/3 149/3/3 148/3/3
f 151/3/3 149/3/3 150/3/3
f 152/4/3 151/4/3 150/4/3
f 153/4/3 151/4/3 152/4/3
f 156/4/3 155/4/3 154/4/3
f 157/4/3 155/4/3 156/4/3
f 158/3/3 157/3/3 156/3/3
f 159/3/3 157/3/3 158/3/3
f 160/4/3 159/4/3 158/4/3
f 161/4/3 159/4/3 160/4/3
f 164/4/3 163/4/3 162/4/3
f 165/4/3 163/4/3 164/4/3
f 166/3/3 165/3/3 164/3/3
f 167/3/3 165/3/3 166/3/3
f 168/4/3 167/4/3 166/4/3
f 169/4/3 167/4/3 168/4/3
f 172/4/3 171/4/3 170/4/3
f 173/4/3 171/4/3 172/4/3
f 174/3/3 173/3/3 172/3/3
f 175/3/3 173/3/3 174/3/3
f 176/4/3 175/4/3 174/4/3
f 177/4/3 175/4/3 176/4/3
f 180/4/3 179/4/3 178/4/3
f 181/4/3 179/4/3 180/4/3
f 182/3/3 181/3/3 180/3/3
f 183/3/3 181/3/3 182/3/3
f 184/4/3 183/4/3 182/4/3
f 185/4/3 183/4/3 184/4/3
f 189/4/3 187/4/3 186/4/3
f 190/4/3 189/4/3 188/4/3
f 191/4/3 187/4/3 189/4/3
f 191/4/3 189/4/3 190/4/3
f 192/4/3 187/4/3 191/4/3
f 195/4/3 194/4/3 193/4/3
f 196/4/3 194/4/3 195/4/3
f 199/1/3 198/1/3 197/1/3
f 200/1/3 198/1/3 199/1/3
f 201/4/4 202/4/4 203/4/4
f 203/4/4 202/4/4 204/4/4
f 205/3/4 206/3/4 207/3/4
f 207/3/4 206/3/4 208/3/4
f 209/3/4 210/3/4 211/3/4
f 211/3/4 210/3/4 212/3/4
f 213/3/4 214/3/4 215/3/4
f 215/3/4 214/3/4 216/3/4
f 217/3/4 218/3/4 219/3/4
f 219/3/4 218/3/4 220/3/4
f 221/3/4 222/3/4 223/3/4
f 223/3/4 222/3/4 224/3/4
f 225/3/4 226/3/4 227/3/4
f 227/3/4 226/3/4 228/3/4
f 229/3/4 230/3/4 231/3/4
f 231/3/4 230/3/4 232/3/4
f 233/4/4 234/4/4 235/4/4
f 235/4/4 234/4/4 236/4/4
f 236/4/4 234/4/4 237/4/4
f 238/4/4 239/4/4 240/4/4
f 240/4/4 239/4/4 241/4/4
f 238/4/4 240/4/4 242/4/4
f 240/1/4 241/1/4 242/1/4
f 241/4/4 239/4/4 243/4/4
f 242/1/4 241/1/4 243/1/4
f 238/4/4 242/4/4 244/4/4
f 242/4/4 243/4/4 244/4/4
f 243/4/4 239/4/4 245/4/4
f 244/4/4 243/4/4 245/4/4
f 250/4/5 247/4/5 246/4/5
f 250/3/5 248/3/5 247/3/5
f 251/4/5 249/4/5 248/4/5
f 251/3/5 248/3/5 250/3/5
f 252/4/5 250/4/5 246/4/5
f 252/4/5 251/4/5 250/4/5
f 253/4/5 249/4/5 251/4/5
f 253/4/5 251/4/5 252/4/5
f 258/4/5 255/4/5 254/4/5
f 259/3/5 256/3/5 255/3/5
f 259/4/5 255/4/5 258/4/5
f 260/4/5 257/4/5 256/4/5
f 260/3/5 256/3/5 259/3/5
f 261/4/5 257/4/5 260/4/5
f 266/4/5 263/4/5 262/4/5
f 267/3/5 264/3/5 263/3/5
f 267/4/5 263/4/5 266/4/5
f 268/4/5 265/4/5 264/4/5
f 268/3/5 264/3/5 267/3/5
f 269/4/5 265/4/5 268/4/5
f 274/4/5 271/4/5 270/4/5
f 275/3/5 272/3/5 271/3/5
f 275/4/5 271/4/5 274/4/5
f 276/4/5 273/4/5 272/4/5
f 276/3/5 272/3/5 275/3/5
f 277/4/5 273/4/5 276/4/5
f 282/4/5 279/4/5 278/4/5
f 283/3/5 280/3/5 279/3/5
f 283/4/5 279/4/5 282/4/5
f 284/4/5 281/4/5 280/4/5
f 284/3/5 280/3/5 283/3/5
f 285/4/5 281/4/5 284/4/5
f 290/4/5 287/4/5 286/4/5
f 291/3/5 288/3/5 287/3/5
f 291/4/5 287/4/5 290/4/5
f 292/4/5 289/4/5 288/4/5
f 292/3/5 288/3/5 291/3/5
f 293/4/5 289/4/5 292/4/5
f 298/4/5 295/4/5 294/4/5
f 299/3/5 296/3/5 295/3/5
f 299/4/5 295/4/5 298/4/5
f 300/4/5 297/4/5 296/4/5
f 300/3/5 296/3/5 299/3/5
f 301/4/5 297/4/5 300/4/5
f 304/4/5 303/4/5 302/4/5
f 305/4/5 303/4/5 304/4/5
f 308/4/5 307/4/5 306/4/5
f 309/4/5 307/4/5 308/4/5
f 310/4/5 308/4/5 306/4/5
f 311/3/5 309/3/5 308/3/5
f 311/4/5 308/4/5 310/4/5
f 312/4/5 307/4/5 309/4/5
f 312/3/5 309/3/5 311/3/5
f 313/4/5 307/4/5 312/4/5
f 316/4/5 310/4/5 306/4/5
f 317/4/5 310/4/5 316/4/5
f 318/4/5 315/4/5 314/4/5
f 319/4/5 315/4/5 318/4/5
f 322/4/5 321/4/5 320/4/5
f 323/4/5 321/4/5 322/4/5
f 324/4/5 321/4/5 323/4/5
f 325/4/5 321/4/5 324/4/5
f 326/4/5 324/4/5 323/4/5
f 327/4/5 324/4/5 326/4/5
f 330/4/5 329/4/5 328/4/5
f 331/4/5 329/4/5 330/4/5
f 332/4/6 333/4/6 334/4/6
f 334/4/6 333/4/6 335/4/6
f 336/3/6 337/3/6 338/3/6
f 338/3/6 337/3/6 339/3/6
f 340/3/6 341/3/6 342/3/6
f 342/3/6 341/3/6 343/3/6
f 344/3/6 345/3/6 346/3/6
f 346/3/6 345/3/6 347/3/6
f 348/3/6 349/3/6 350/3/6
f 350/3/6 349/3/6 351/3/6
f 352/3/6 353/3/6 354/3/6
f 354/3/6 353/3/6 355/3/6
f 356/3/6 357/3/6 358/3/6
f 358/3/6 357/3/6 359/3/6
f 360/4/6 361/4/6 362/4/6
f 362/4/6 361/4/6 363/4/6
f 364/4/6 365/4/6 366/4/6
f 366/4/6 365/4/6 367/4/6
f 364/4/6 366/4/6 368/4/6
f 366/3/6 367/3/6 368/3/6
f 368/3/6 367/3/6 369/3/6
f 364/4/6 368/4/6 370/4/6
f 370/4/6 368/4/6 371/4/6
f 372/2/6 373/2/6 374/2/6
f 374/2/6 373/2/6 375/2/6
f 374/4/6 375/4/6 376/4/6
f 376/4/6 375/4/6 377/4/6
