# MagicaVoxel @ Ephtracy

# group
g store_3

# material
mtllib store_3.mtl
usemtl palette

# normals
vn -1 0 0
vn 1 0 0
vn 0 0 1
vn 0 0 -1
vn 0 -1 0
vn 0 1 0

# texcoords
vt 0.185547 0.5
vt 0.248047 0.5
vt 0.310547 0.5
vt 0.841797 0.5

# verts
v -21 26 29
v -21 26 -1
v -21 27 29
v -21 27 -0
v -21 52 30
v -21 52 29
v -21 52 28
v -21 53 30
v -21 53 29
v -21 61 28
v -21 61 -0
v -21 62 30
v -21 62 29
v -21 62 -1
v -1 2 -0
v -1 2 -20
v -1 5 3
v -1 5 -0
v -1 8 6
v -1 8 3
v -1 11 9
v -1 11 6
v -1 14 12
v -1 14 9
v -1 17 15
v -1 17 12
v -1 20 18
v -1 20 15
v -1 23 21
v -1 23 18
v -1 25 -1
v -1 25 -20
v -1 26 21
v -1 26 -1
v 20 3 -1
v 20 3 -19
v 20 6 2
v 20 6 -1
v 20 9 5
v 20 9 2
v 20 12 8
v 20 12 5
v 20 15 11
v 20 15 8
v 20 18 14
v 20 18 11
v 20 21 17
v 20 21 14
v 20 24 20
v 20 24 17
v 20 24 -0
v 20 24 -19
v 20 27 29
v 20 27 23
v 20 27 20
v 20 27 -0
v 20 52 29
v 20 52 28
v 20 61 28
v 20 61 -0
v -20 27 29
v -20 27 21
v -20 27 20
v -20 27 -0
v -20 29 20
v -20 29 17
v -20 30 21
v -20 30 18
v -20 32 17
v -20 32 14
v -20 33 18
v -20 33 15
v -20 35 14
v -20 35 11
v -20 36 15
v -20 36 12
v -20 38 11
v -20 38 8
v -20 39 12
v -20 39 9
v -20 41 8
v -20 41 5
v -20 42 9
v -20 42 6
v -20 44 5
v -20 44 2
v -20 45 6
v -20 45 3
v -20 47 2
v -20 47 -0
v -20 48 3
v -20 48 -0
v -20 52 29
v -20 52 28
v -20 61 28
v -20 61 -0
v 0 3 -1
v 0 3 -19
v 0 6 2
v 0 6 -1
v 0 9 5
v 0 9 2
v 0 12 8
v 0 12 5
v 0 15 11
v 0 15 8
v 0 18 14
v 0 18 11
v 0 21 17
v 0 21 14
v 0 24 20
v 0 24 17
v 0 24 -0
v 0 24 -19
v 0 27 21
v 0 27 20
v 0 27 -0
v 0 29 20
v 0 29 17
v 0 30 21
v 0 30 18
v 0 32 17
v 0 32 14
v 0 33 18
v 0 33 15
v 0 35 14
v 0 35 11
v 0 36 15
v 0 36 12
v 0 38 11
v 0 38 8
v 0 39 12
v 0 39 9
v 0 41 8
v 0 41 5
v 0 42 9
v 0 42 6
v 0 44 5
v 0 44 2
v 0 45 6
v 0 45 3
v 0 47 2
v 0 47 -0
v 0 48 3
v 0 48 -0
v 21 2 -0
v 21 2 -20
v 21 5 3
v 21 5 -0
v 21 8 6
v 21 8 3
v 21 11 9
v 21 11 6
v 21 14 12
v 21 14 9
v 21 17 15
v 21 17 12
v 21 20 18
v 21 20 15
v 21 23 21
v 21 23 18
v 21 25 -1
v 21 25 -20
v 21 26 29
v 21 26 21
v 21 27 29
v 21 27 -0
v 21 52 30
v 21 52 29
v 21 52 28
v 21 53 30
v 21 53 29
v 21 61 28
v 21 61 -0
v 21 62 30
v 21 62 29
v 21 62 -1
v -21 52 30
v -21 53 30
v -21 62 30
v 21 52 30
v 21 53 30
v 21 62 30
v -21 26 29
v -21 27 29
v -21 52 29
v -20 27 29
v -20 52 29
v 20 27 29
v 20 52 29
v 21 26 29
v 21 27 29
v 21 52 29
v -20 27 21
v -20 30 21
v -1 23 21
v -1 26 21
v 0 23 21
v 0 26 21
v 0 27 21
v 0 30 21
v 20 23 21
v 20 26 21
v 21 23 21
v 21 26 21
v -20 30 18
v -20 33 18
v -1 20 18
v -1 23 18
v 0 20 18
v 0 23 18
v 0 30 18
v 0 33 18
v 20 20 18
v 20 23 18
v 21 20 18
v 21 23 18
v -20 33 15
v -20 36 15
v -1 17 15
v -1 20 15
v 0 17 15
v 0 20 15
v 0 33 15
v 0 36 15
v 20 17 15
v 20 20 15
v 21 17 15
v 21 20 15
v -20 36 12
v -20 39 12
v -1 14 12
v -1 17 12
v 0 14 12
v 0 17 12
v 0 36 12
v 0 39 12
v 20 14 12
v 20 17 12
v 21 14 12
v 21 17 12
v -20 39 9
v -20 42 9
v -1 11 9
v -1 14 9
v 0 11 9
v 0 14 9
v 0 39 9
v 0 42 9
v 20 11 9
v 20 14 9
v 21 11 9
v 21 14 9
v -20 42 6
v -20 45 6
v -1 8 6
v -1 11 6
v 0 8 6
v 0 11 6
v 0 42 6
v 0 45 6
v 20 8 6
v 20 11 6
v 21 8 6
v 21 11 6
v -20 45 3
v -20 48 3
v -1 5 3
v -1 8 3
v 0 5 3
v 0 8 3
v 0 45 3
v 0 48 3
v 20 5 3
v 20 8 3
v 21 5 3
v 21 8 3
v -20 27 -0
v -20 47 -0
v -20 48 -0
v -20 61 -0
v -1 2 -0
v -1 5 -0
v 0 2 -0
v 0 5 -0
v 0 24 -0
v 0 27 -0
v 0 47 -0
v 0 48 -0
v 20 2 -0
v 20 5 -0
v 20 24 -0
v 20 27 -0
v 20 61 -0
v 21 2 -0
v 21 5 -0
v 0 3 -19
v 0 24 -19
v 20 3 -19
v 20 24 -19
v -20 52 28
v -20 61 28
v 20 52 28
v 20 61 28
v -20 27 20
v -20 29 20
v 0 24 20
v 0 27 20
v 0 29 20
v 20 24 20
v 20 27 20
v -20 29 17
v -20 32 17
v 0 21 17
v 0 24 17
v 0 29 17
v 0 32 17
v 20 21 17
v 20 24 17
v -20 32 14
v -20 35 14
v 0 18 14
v 0 21 14
v 0 32 14
v 0 35 14
v 20 18 14
v 20 21 14
v -20 35 11
v -20 38 11
v 0 15 11
v 0 18 11
v 0 35 11
v 0 38 11
v 20 15 11
v 20 18 11
v -20 38 8
v -20 41 8
v 0 12 8
v 0 15 8
v 0 38 8
v 0 41 8
v 20 12 8
v 20 15 8
v -20 41 5
v -20 44 5
v 0 9 5
v 0 12 5
v 0 41 5
v 0 44 5
v 20 9 5
v 20 12 5
v -20 44 2
v -20 47 2
v 0 6 2
v 0 9 2
v 0 44 2
v 0 47 2
v 20 6 2
v 20 9 2
v -21 26 -1
v -21 62 -1
v -1 25 -1
v -1 26 -1
v 0 3 -1
v 0 6 -1
v 20 3 -1
v 20 6 -1
v 21 25 -1
v 21 62 -1
v -1 2 -20
v -1 25 -20
v 0 2 -20
v 0 25 -20
v 20 2 -20
v 20 25 -20
v 21 2 -20
v 21 25 -20
v -1 2 -0
v 0 2 -0
v 20 2 -0
v 21 2 -0
v 0 2 -1
v 20 2 -1
v 0 2 -19
v 20 2 -19
v -1 2 -20
v 0 2 -20
v 20 2 -20
v 21 2 -20
v -1 5 3
v 0 5 3
v 20 5 3
v 21 5 3
v -1 5 -0
v 0 5 -0
v 20 5 -0
v 21 5 -0
v -1 8 6
v 0 8 6
v 20 8 6
v 21 8 6
v -1 8 3
v 0 8 3
v 20 8 3
v 21 8 3
v -1 11 9
v 0 11 9
v 20 11 9
v 21 11 9
v -1 11 6
v 0 11 6
v 20 11 6
v 21 11 6
v -1 14 12
v 0 14 12
v 20 14 12
v 21 14 12
v -1 14 9
v 0 14 9
v 20 14 9
v 21 14 9
v -1 17 15
v 0 17 15
v 20 17 15
v 21 17 15
v -1 17 12
v 0 17 12
v 20 17 12
v 21 17 12
v -1 20 18
v 0 20 18
v 20 20 18
v 21 20 18
v -1 20 15
v 0 20 15
v 20 20 15
v 21 20 15
v -1 23 21
v 0 23 21
v 20 23 21
v 21 23 21
v -1 23 18
v 0 23 18
v 20 23 18
v 21 23 18
v 0 24 -0
v 20 24 -0
v 0 24 -19
v 20 24 -19
v -21 26 29
v 21 26 29
v 0 26 23
v 20 26 23
v -1 26 21
v 0 26 21
v 20 26 21
v 21 26 21
v -21 26 -1
v -1 26 -1
v -20 29 20
v 0 29 20
v -20 29 17
v 0 29 17
v -20 32 17
v 0 32 17
v -20 32 14
v 0 32 14
v -20 35 14
v 0 35 14
v -20 35 11
v 0 35 11
v -20 38 11
v 0 38 11
v -20 38 8
v 0 38 8
v -20 41 8
v 0 41 8
v -20 41 5
v 0 41 5
v -20 44 5
v 0 44 5
v -20 44 2
v 0 44 2
v -20 47 2
v 0 47 2
v -20 47 -0
v 0 47 -0
v -21 52 30
v 21 52 30
v -21 52 29
v -20 52 29
v 20 52 29
v 21 52 29
v -20 52 28
v 20 52 28
v -20 61 28
v 20 61 28
v -20 61 -0
v 20 61 -0
v 0 3 -1
v 20 3 -1
v 0 3 -19
v 20 3 -19
v 0 6 2
v 20 6 2
v 0 6 -1
v 20 6 -1
v 0 9 5
v 20 9 5
v 0 9 2
v 20 9 2
v 0 12 8
v 20 12 8
v 0 12 5
v 20 12 5
v 0 15 11
v 20 15 11
v 0 15 8
v 20 15 8
v 0 18 14
v 20 18 14
v 0 18 11
v 20 18 11
v 0 21 17
v 20 21 17
v 0 21 14
v 20 21 14
v 0 24 20
v 20 24 20
v 0 24 17
v 20 24 17
v -1 25 -1
v 21 25 -1
v 0 25 -19
v 20 25 -19
v -1 25 -20
v 0 25 -20
v 20 25 -20
v 21 25 -20
v -20 27 29
v 20 27 29
v 0 27 23
v 20 27 23
v -20 27 21
v 0 27 21
v -20 27 20
v 0 27 20
v 20 27 20
v -20 27 -0
v 0 27 -0
v -20 30 21
v 0 30 21
v -20 30 18
v 0 30 18
v -20 33 18
v 0 33 18
v -20 33 15
v 0 33 15
v -20 36 15
v 0 36 15
v -20 36 12
v 0 36 12
v -20 39 12
v 0 39 12
v -20 39 9
v 0 39 9
v -20 42 9
v 0 42 9
v -20 42 6
v 0 42 6
v -20 45 6
v 0 45 6
v -20 45 3
v 0 45 3
v -20 48 3
v 0 48 3
v -20 48 -0
v 0 48 -0
v -21 62 30
v 21 62 30
v -21 62 29
v 21 62 29
v -21 62 -1
v 21 62 -1

# faces
f 3/4/1 2/4/1 1/4/1
f 4/4/1 2/4/1 3/4/1
f 6/2/1 4/2/1 3/2/1
f 7/2/1 4/2/1 6/2/1
f 8/4/1 6/4/1 5/4/1
f 8/4/1 7/4/1 6/4/1
f 9/4/1 7/4/1 8/4/1
f 10/2/1 4/2/1 7/2/1
f 10/4/1 7/4/1 9/4/1
f 11/4/1 2/4/1 4/4/1
f 11/2/1 4/2/1 10/2/1
f 12/2/1 9/2/1 8/2/1
f 13/4/1 10/4/1 9/4/1
f 13/2/1 9/2/1 12/2/1
f 13/4/1 11/4/1 10/4/1
f 14/4/1 2/4/1 11/4/1
f 14/4/1 11/4/1 13/4/1
f 18/4/1 16/4/1 15/4/1
f 20/4/1 18/4/1 17/4/1
f 22/4/1 20/4/1 19/4/1
f 24/4/1 22/4/1 21/4/1
f 26/4/1 24/4/1 23/4/1
f 28/4/1 26/4/1 25/4/1
f 30/4/1 28/4/1 27/4/1
f 31/4/1 16/4/1 18/4/1
f 31/4/1 30/4/1 29/4/1
f 31/4/1 28/4/1 30/4/1
f 31/4/1 18/4/1 20/4/1
f 31/4/1 26/4/1 28/4/1
f 31/4/1 20/4/1 22/4/1
f 31/4/1 24/4/1 26/4/1
f 31/4/1 22/4/1 24/4/1
f 32/4/1 16/4/1 31/4/1
f 33/4/1 31/4/1 29/4/1
f 34/4/1 31/4/1 33/4/1
f 38/4/1 36/4/1 35/4/1
f 40/4/1 38/4/1 37/4/1
f 42/4/1 40/4/1 39/4/1
f 44/4/1 42/4/1 41/4/1
f 46/4/1 44/4/1 43/4/1
f 48/4/1 46/4/1 45/4/1
f 50/4/1 48/4/1 47/4/1
f 51/4/1 38/4/1 40/4/1
f 51/4/1 40/4/1 42/4/1
f 51/4/1 48/4/1 50/4/1
f 51/4/1 42/4/1 44/4/1
f 51/4/1 46/4/1 48/4/1
f 51/4/1 44/4/1 46/4/1
f 52/4/1 36/4/1 38/4/1
f 52/4/1 38/4/1 51/4/1
f 55/4/1 51/4/1 50/4/1
f 55/4/1 50/4/1 49/4/1
f 56/4/1 51/4/1 55/4/1
f 57/2/1 54/2/1 53/2/1
f 57/2/1 55/2/1 54/2/1
f 57/2/1 56/2/1 55/2/1
f 58/2/1 56/2/1 57/2/1
f 59/2/1 56/2/1 58/2/1
f 60/2/1 56/2/1 59/2/1
f 63/2/2 64/2/2 65/2/2
f 65/2/2 64/2/2 66/2/2
f 61/2/2 62/2/2 67/2/2
f 66/2/2 64/2/2 69/2/2
f 69/2/2 64/2/2 70/2/2
f 67/2/2 68/2/2 71/2/2
f 70/2/2 64/2/2 73/2/2
f 73/2/2 64/2/2 74/2/2
f 71/2/2 72/2/2 75/2/2
f 74/2/2 64/2/2 77/2/2
f 77/2/2 64/2/2 78/2/2
f 75/2/2 76/2/2 79/2/2
f 78/2/2 64/2/2 81/2/2
f 81/2/2 64/2/2 82/2/2
f 79/2/2 80/2/2 83/2/2
f 82/2/2 64/2/2 85/2/2
f 85/2/2 64/2/2 86/2/2
f 83/2/2 84/2/2 87/2/2
f 86/2/2 64/2/2 89/2/2
f 89/2/2 64/2/2 90/2/2
f 87/2/2 88/2/2 91/2/2
f 61/2/2 67/2/2 93/2/2
f 91/2/2 92/2/2 93/2/2
f 87/2/2 91/2/2 93/2/2
f 67/2/2 71/2/2 93/2/2
f 83/2/2 87/2/2 93/2/2
f 71/2/2 75/2/2 93/2/2
f 79/2/2 83/2/2 93/2/2
f 75/2/2 79/2/2 93/2/2
f 93/2/2 92/2/2 94/2/2
f 94/2/2 92/2/2 95/2/2
f 95/2/2 92/2/2 96/2/2
f 97/4/2 98/4/2 100/4/2
f 99/4/2 100/4/2 102/4/2
f 101/4/2 102/4/2 104/4/2
f 103/4/2 104/4/2 106/4/2
f 105/4/2 106/4/2 108/4/2
f 107/4/2 108/4/2 110/4/2
f 109/4/2 110/4/2 112/4/2
f 102/4/2 100/4/2 113/4/2
f 104/4/2 102/4/2 113/4/2
f 112/4/2 110/4/2 113/4/2
f 106/4/2 104/4/2 113/4/2
f 110/4/2 108/4/2 113/4/2
f 108/4/2 106/4/2 113/4/2
f 100/4/2 98/4/2 114/4/2
f 113/4/2 100/4/2 114/4/2
f 112/4/2 113/4/2 116/4/2
f 111/4/2 112/4/2 116/4/2
f 116/4/2 113/4/2 117/4/2
f 115/3/2 116/3/2 118/3/2
f 115/3/2 118/3/2 120/3/2
f 118/3/2 119/3/2 120/3/2
f 120/3/2 119/3/2 121/3/2
f 121/3/2 119/3/2 122/3/2
f 121/3/2 122/3/2 124/3/2
f 122/3/2 123/3/2 124/3/2
f 124/3/2 123/3/2 125/3/2
f 125/3/2 123/3/2 126/3/2
f 125/3/2 126/3/2 128/3/2
f 126/3/2 127/3/2 128/3/2
f 128/3/2 127/3/2 129/3/2
f 129/3/2 127/3/2 130/3/2
f 129/3/2 130/3/2 132/3/2
f 130/3/2 131/3/2 132/3/2
f 132/3/2 131/3/2 133/3/2
f 133/3/2 131/3/2 134/3/2
f 133/3/2 134/3/2 136/3/2
f 134/3/2 135/3/2 136/3/2
f 136/3/2 135/3/2 137/3/2
f 137/3/2 135/3/2 138/3/2
f 137/3/2 138/3/2 140/3/2
f 138/3/2 139/3/2 140/3/2
f 140/3/2 139/3/2 141/3/2
f 141/3/2 139/3/2 142/3/2
f 141/3/2 142/3/2 144/3/2
f 142/3/2 143/3/2 144/3/2
f 144/3/2 143/3/2 145/3/2
f 146/4/2 147/4/2 149/4/2
f 148/4/2 149/4/2 151/4/2
f 150/4/2 151/4/2 153/4/2
f 152/4/2 153/4/2 155/4/2
f 154/4/2 155/4/2 157/4/2
f 156/4/2 157/4/2 159/4/2
f 158/4/2 159/4/2 161/4/2
f 149/4/2 147/4/2 162/4/2
f 160/4/2 161/4/2 162/4/2
f 161/4/2 159/4/2 162/4/2
f 151/4/2 149/4/2 162/4/2
f 159/4/2 157/4/2 162/4/2
f 153/4/2 151/4/2 162/4/2
f 157/4/2 155/4/2 162/4/2
f 155/4/2 153/4/2 162/4/2
f 162/4/2 147/4/2 163/4/2
f 160/4/2 162/4/2 165/4/2
f 164/4/2 165/4/2 166/4/2
f 165/4/2 162/4/2 167/4/2
f 166/4/2 165/4/2 167/4/2
f 166/2/2 167/2/2 169/2/2
f 169/2/2 167/2/2 170/2/2
f 168/4/2 169/4/2 171/4/2
f 169/4/2 170/4/2 171/4/2
f 171/4/2 170/4/2 172/4/2
f 170/2/2 167/2/2 173/2/2
f 172/4/2 170/4/2 173/4/2
f 167/4/2 162/4/2 174/4/2
f 173/2/2 167/2/2 174/2/2
f 171/2/2 172/2/2 175/2/2
f 172/4/2 173/4/2 176/4/2
f 175/2/2 172/2/2 176/2/2
f 173/4/2 174/4/2 176/4/2
f 174/4/2 162/4/2 177/4/2
f 176/4/2 174/4/2 177/4/2
f 181/4/3 179/4/3 178/4/3
f 182/2/3 180/2/3 179/2/3
f 182/4/3 179/4/3 181/4/3
f 183/2/3 180/2/3 182/2/3
f 187/4/3 185/4/3 184/4/3
f 187/2/3 186/2/3 185/2/3
f 188/2/3 186/2/3 187/2/3
f 189/4/3 187/4/3 184/4/3
f 191/4/3 189/4/3 184/4/3
f 192/2/3 190/2/3 189/2/3
f 192/4/3 189/4/3 191/4/3
f 193/2/3 190/2/3 192/2/3
f 198/4/3 197/4/3 196/4/3
f 199/4/3 197/4/3 198/4/3
f 200/3/3 195/3/3 194/3/3
f 201/3/3 195/3/3 200/3/3
f 202/3/3 199/3/3 198/3/3
f 203/3/3 199/3/3 202/3/3
f 204/4/3 203/4/3 202/4/3
f 205/4/3 203/4/3 204/4/3
f 210/4/3 209/4/3 208/4/3
f 211/4/3 209/4/3 210/4/3
f 212/3/3 207/3/3 206/3/3
f 213/3/3 207/3/3 212/3/3
f 214/3/3 211/3/3 210/3/3
f 215/3/3 211/3/3 214/3/3
f 216/4/3 215/4/3 214/4/3
f 217/4/3 215/4/3 216/4/3
f 222/4/3 221/4/3 220/4/3
f 223/4/3 221/4/3 222/4/3
f 224/3/3 219/3/3 218/3/3
f 225/3/3 219/3/3 224/3/3
f 226/3/3 223/3/3 222/3/3
f 227/3/3 223/3/3 226/3/3
f 228/4/3 227/4/3 226/4/3
f 229/4/3 227/4/3 228/4/3
f 234/4/3 233/4/3 232/4/3
f 235/4/3 233/4/3 234/4/3
f 236/3/3 231/3/3 230/3/3
f 237/3/3 231/3/3 236/3/3
f 238/3/3 235/3/3 234/3/3
f 239/3/3 235/3/3 238/3/3
f 240/4/3 239/4/3 238/4/3
f 241/4/3 239/4/3 240/4/3
f 246/4/3 245/4/3 244/4/3
f 247/4/3 245/4/3 246/4/3
f 248/3/3 243/3/3 242/3/3
f 249/3/3 243/3/3 248/3/3
f 250/3/3 247/3/3 246/3/3
f 251/3/3 247/3/3 250/3/3
f 252/4/3 251/4/3 250/4/3
f 253/4/3 251/4/3 252/4/3
f 258/4/3 257/4/3 256/4/3
f 259/4/3 257/4/3 258/4/3
f 260/3/3 255/3/3 254/3/3
f 261/3/3 255/3/3 260/3/3
f 262/3/3 259/3/3 258/3/3
f 263/3/3 259/3/3 262/3/3
f 264/4/3 263/4/3 262/4/3
f 265/4/3 263/4/3 264/4/3
f 270/4/3 269/4/3 268/4/3
f 271/4/3 269/4/3 270/4/3
f 272/3/3 267/3/3 266/3/3
f 273/3/3 267/3/3 272/3/3
f 274/3/3 271/3/3 270/3/3
f 275/3/3 271/3/3 274/3/3
f 276/4/3 275/4/3 274/4/3
f 277/4/3 275/4/3 276/4/3
f 284/4/3 283/4/3 282/4/3
f 285/4/3 283/4/3 284/4/3
f 287/4/3 279/4/3 278/4/3
f 288/4/3 279/4/3 287/4/3
f 289/4/3 281/4/3 280/4/3
f 290/3/3 285/3/3 284/3/3
f 291/3/3 285/3/3 290/3/3
f 292/4/3 289/4/3 288/4/3
f 292/4/3 288/4/3 287/4/3
f 292/4/3 287/4/3 286/4/3
f 293/4/3 289/4/3 292/4/3
f 294/4/3 281/4/3 289/4/3
f 294/4/3 289/4/3 293/4/3
f 295/4/3 291/4/3 290/4/3
f 296/4/3 291/4/3 295/4/3
f 299/1/3 298/1/3 297/1/3
f 300/1/3 298/1/3 299/1/3
f 301/4/4 302/4/4 303/4/4
f 303/4/4 302/4/4 304/4/4
f 305/3/4 306/3/4 308/3/4
f 308/3/4 306/3/4 309/3/4
f 307/3/4 308/3/4 310/3/4
f 310/3/4 308/3/4 311/3/4
f 312/3/4 313/3/4 316/3/4
f 316/3/4 313/3/4 317/3/4
f 314/3/4 315/3/4 318/3/4
f 318/3/4 315/3/4 319/3/4
f 320/3/4 321/3/4 324/3/4
f 324/3/4 321/3/4 325/3/4
f 322/3/4 323/3/4 326/3/4
f 326/3/4 323/3/4 327/3/4
f 328/3/4 329/3/4 332/3/4
f 332/3/4 329/3/4 333/3/4
f 330/3/4 331/3/4 334/3/4
f 334/3/4 331/3/4 335/3/4
f 336/3/4 337/3/4 340/3/4
f 340/3/4 337/3/4 341/3/4
f 338/3/4 339/3/4 342/3/4
f 342/3/4 339/3/4 343/3/4
f 344/3/4 345/3/4 348/3/4
f 348/3/4 345/3/4 349/3/4
f 346/3/4 347/3/4 350/3/4
f 350/3/4 347/3/4 351/3/4
f 352/3/4 353/3/4 356/3/4
f 356/3/4 353/3/4 357/3/4
f 354/3/4 355/3/4 358/3/4
f 358/3/4 355/3/4 359/3/4
f 360/4/4 361/4/4 363/4/4
f 364/3/4 365/3/4 366/3/4
f 366/3/4 365/3/4 367/3/4
f 362/4/4 363/4/4 368/4/4
f 363/4/4 361/4/4 369/4/4
f 368/4/4 363/4/4 369/4/4
f 370/4/4 371/4/4 372/4/4
f 372/4/4 371/4/4 373/4/4
f 372/1/4 373/1/4 374/1/4
f 374/1/4 373/1/4 375/1/4
f 374/4/4 375/4/4 376/4/4
f 376/4/4 375/4/4 377/4/4
f 382/4/5 379/4/5 378/4/5
f 382/3/5 380/3/5 379/3/5
f 383/4/5 381/4/5 380/4/5
f 383/3/5 380/3/5 382/3/5
f 384/4/5 382/4/5 378/4/5
f 384/4/5 383/4/5 382/4/5
f 385/4/5 381/4/5 383/4/5
f 385/4/5 383/4/5 384/4/5
f 386/4/5 384/4/5 378/4/5
f 387/1/5 385/1/5 384/1/5
f 387/4/5 384/4/5 386/4/5
f 388/4/5 381/4/5 385/4/5
f 388/1/5 385/1/5 387/1/5
f 389/4/5 381/4/5 388/4/5
f 394/4/5 391/4/5 390/4/5
f 395/3/5 392/3/5 391/3/5
f 395/4/5 391/4/5 394/4/5
f 396/4/5 393/4/5 392/4/5
f 396/3/5 392/3/5 395/3/5
f 397/4/5 393/4/5 396/4/5
f 402/4/5 399/4/5 398/4/5
f 403/3/5 400/3/5 399/3/5
f 403/4/5 399/4/5 402/4/5
f 404/4/5 401/4/5 400/4/5
f 404/3/5 400/3/5 403/3/5
f 405/4/5 401/4/5 404/4/5
f 410/4/5 407/4/5 406/4/5
f 411/3/5 408/3/5 407/3/5
f 411/4/5 407/4/5 410/4/5
f 412/4/5 409/4/5 408/4/5
f 412/3/5 408/3/5 411/3/5
f 413/4/5 409/4/5 412/4/5
f 418/4/5 415/4/5 414/4/5
f 419/3/5 416/3/5 415/3/5
f 419/4/5 415/4/5 418/4/5
f 420/4/5 417/4/5 416/4/5
f 420/3/5 416/3/5 419/3/5
f 421/4/5 417/4/5 420/4/5
f 426/4/5 423/4/5 422/4/5
f 427/3/5 424/3/5 423/3/5
f 427/4/5 423/4/5 426/4/5
f 428/4/5 425/4/5 424/4/5
f 428/3/5 424/3/5 427/3/5
f 429/4/5 425/4/5 428/4/5
f 434/4/5 431/4/5 430/4/5
f 435/3/5 432/3/5 431/3/5
f 435/4/5 431/4/5 434/4/5
f 436/4/5 433/4/5 432/4/5
f 436/3/5 432/3/5 435/3/5
f 437/4/5 433/4/5 436/4/5
f 442/4/5 439/4/5 438/4/5
f 443/3/5 440/3/5 439/3/5
f 443/4/5 439/4/5 442/4/5
f 444/4/5 441/4/5 440/4/5
f 444/3/5 440/3/5 443/3/5
f 445/4/5 441/4/5 444/4/5
f 448/4/5 447/4/5 446/4/5
f 449/4/5 447/4/5 448/4/5
f 452/4/5 451/4/5 450/4/5
f 453/4/5 451/4/5 452/4/5
f 454/4/5 452/4/5 450/4/5
f 455/3/5 453/3/5 452/3/5
f 455/4/5 452/4/5 454/4/5
f 456/4/5 451/4/5 453/4/5
f 456/3/5 453/3/5 455/3/5
f 457/4/5 451/4/5 456/4/5
f 458/4/5 454/4/5 450/4/5
f 459/4/5 454/4/5 458/4/5
f 462/3/5 461/3/5 460/3/5
f 463/3/5 461/3/5 462/3/5
f 466/3/5 465/3/5 464/3/5
f 467/3/5 465/3/5 466/3/5
f 470/3/5 469/3/5 468/3/5
f 471/3/5 469/3/5 470/3/5
f 474/3/5 473/3/5 472/3/5
f 475/3/5 473/3/5 474/3/5
f 478/3/5 477/3/5 476/3/5
f 479/3/5 477/3/5 478/3/5
f 482/3/5 481/3/5 480/3/5
f 483/3/5 481/3/5 482/3/5
f 486/3/5 485/3/5 484/3/5
f 487/3/5 485/3/5 486/3/5
f 490/4/5 489/4/5 488/4/5
f 491/4/5 489/4/5 490/4/5
f 492/4/5 489/4/5 491/4/5
f 493/4/5 489/4/5 492/4/5
f 494/4/5 492/4/5 491/4/5
f 495/4/5 492/4/5 494/4/5
f 498/4/5 497/4/5 496/4/5
f 499/4/5 497/4/5 498/4/5
f 500/4/6 501/4/6 502/4/6
f 502/4/6 501/4/6 503/4/6
f 504/3/6 505/3/6 506/3/6
f 506/3/6 505/3/6 507/3/6
f 508/3/6 509/3/6 510/3/6
f 510/3/6 509/3/6 511/3/6
f 512/3/6 513/3/6 514/3/6
f 514/3/6 513/3/6 515/3/6
f 516/3/6 517/3/6 518/3/6
f 518/3/6 517/3/6 519/3/6
f 520/3/6 521/3/6 522/3/6
f 522/3/6 521/3/6 523/3/6
f 524/3/6 525/3/6 526/3/6
f 526/3/6 525/3/6 527/3/6
f 528/3/6 529/3/6 530/3/6
f 530/3/6 529/3/6 531/3/6
f 532/4/6 533/4/6 534/4/6
f 534/4/6 533/4/6 535/4/6
f 532/4/6 534/4/6 536/4/6
f 534/1/6 535/1/6 537/1/6
f 536/4/6 534/4/6 537/4/6
f 535/4/6 533/4/6 538/4/6
f 537/1/6 535/1/6 538/1/6
f 538/4/6 533/4/6 539/4/6
f 540/4/6 541/4/6 542/4/6
f 542/4/6 541/4/6 543/4/6
f 540/4/6 542/4/6 544/4/6
f 542/3/6 543/3/6 545/3/6
f 544/4/6 542/4/6 545/4/6
f 545/3/6 543/3/6 547/3/6
f 547/3/6 543/3/6 548/3/6
f 546/4/6 547/4/6 549/4/6
f 549/4/6 547/4/6 550/4/6
f 551/3/6 552/3/6 553/3/6
f 553/3/6 552/3/6 554/3/6
f 555/3/6 556/3/6 557/3/6
f 557/3/6 556/3/6 558/3/6
f 559/3/6 560/3/6 561/3/6
f 561/3/6 560/3/6 562/3/6
f 563/3/6 564/3/6 565/3/6
f 565/3/6 564/3/6 566/3/6
f 567/3/6 568/3/6 569/3/6
f 569/3/6 568/3/6 570/3/6
f 571/3/6 572/3/6 573/3/6
f 573/3/6 572/3/6 574/3/6
f 575/3/6 576/3/6 577/3/6
f 577/3/6 576/3/6 578/3/6
f 579/2/6 580/2/6 581/2/6
f 581/2/6 580/2/6 582/2/6
f 581/4/6 582/4/6 583/4/6
f 583/4/6 582/4/6 584/4/6
