# MagicaVoxel @ Ephtracy

# group
g store_broken1

# material
mtllib store_broken1.mtl
usemtl palette

# normals
vn -1 0 0
vn 1 0 0
vn 0 0 1
vn 0 0 -1
vn 0 -1 0
vn 0 1 0

# texcoords
vt 0.248047 0.5
vt 0.841797 0.5

# verts
v -21 0 15
v -21 0 -15
v -21 1 15
v -21 1 -14
v -21 4 15
v -21 4 7
v -21 8 7
v -21 8 2
v -21 12 -7
v -21 12 -14
v -21 12 -15
v -21 13 2
v -21 13 -1
v -21 19 -1
v -21 19 -3
v -21 20 -3
v -21 20 -7
v -2 3 -14
v -2 3 -15
v -2 10 -14
v -2 10 -15
v 1 10 -14
v 1 10 -15
v 1 11 -14
v 1 11 -15
v 5 11 -14
v 5 11 -15
v 5 13 -14
v 5 13 -15
v 13 10 -14
v 13 10 -15
v 13 17 -14
v 13 17 -15
v 16 17 -14
v 16 17 -15
v 16 19 -14
v 16 19 -15
v 18 19 -14
v 18 19 -15
v 18 23 -14
v 18 23 -15
v 19 23 -14
v 19 23 -15
v 19 24 -14
v 19 24 -15
v 20 1 15
v 20 1 -14
v 20 4 15
v 20 4 11
v 20 7 11
v 20 7 8
v 20 12 4
v 20 12 -9
v 20 13 8
v 20 13 4
v 20 19 -9
v 20 19 -14
v -20 1 15
v -20 1 -14
v -20 4 15
v -20 4 7
v -20 8 7
v -20 8 2
v -20 12 -7
v -20 12 -14
v -20 13 2
v -20 13 -1
v -20 19 -1
v -20 19 -3
v -20 20 -3
v -20 20 -7
v -12 11 -14
v -12 11 -15
v -12 12 -14
v -12 12 -15
v -11 3 -14
v -11 3 -15
v -11 11 -14
v -11 11 -15
v 8 10 -14
v 8 10 -15
v 8 13 -14
v 8 13 -15
v 21 0 15
v 21 0 -15
v 21 1 15
v 21 1 -14
v 21 4 15
v 21 4 11
v 21 7 11
v 21 7 8
v 21 12 4
v 21 12 -9
v 21 13 8
v 21 13 4
v 21 19 -9
v 21 19 -14
v 21 24 -14
v 21 24 -15
v -21 0 15
v -21 1 15
v -21 4 15
v -20 1 15
v -20 4 15
v 20 1 15
v 20 4 15
v 21 0 15
v 21 1 15
v 21 4 15
v 20 4 11
v 20 7 11
v 21 4 11
v 21 7 11
v 20 7 8
v 20 13 8
v 21 7 8
v 21 13 8
v -21 4 7
v -21 8 7
v -20 4 7
v -20 8 7
v -21 8 2
v -21 13 2
v -20 8 2
v -20 13 2
v -21 13 -1
v -21 19 -1
v -20 13 -1
v -20 19 -1
v -21 19 -3
v -21 20 -3
v -20 19 -3
v -20 20 -3
v 20 12 -9
v 20 19 -9
v 21 12 -9
v 21 19 -9
v -20 1 -14
v -20 12 -14
v -12 11 -14
v -12 12 -14
v -11 3 -14
v -11 11 -14
v -2 3 -14
v -2 10 -14
v 1 10 -14
v 1 11 -14
v 5 11 -14
v 5 13 -14
v 8 10 -14
v 8 13 -14
v 13 10 -14
v 13 17 -14
v 16 17 -14
v 16 19 -14
v 18 19 -14
v 18 23 -14
v 19 23 -14
v 19 24 -14
v 20 1 -14
v 20 19 -14
v 21 19 -14
v 21 24 -14
v 20 12 4
v 20 13 4
v 21 12 4
v 21 13 4
v -21 12 -7
v -21 20 -7
v -20 12 -7
v -20 20 -7
v -21 0 -15
v -21 12 -15
v -12 11 -15
v -12 12 -15
v -11 3 -15
v -11 11 -15
v -2 3 -15
v -2 10 -15
v 1 10 -15
v 1 11 -15
v 5 11 -15
v 5 13 -15
v 8 10 -15
v 8 13 -15
v 13 10 -15
v 13 17 -15
v 16 17 -15
v 16 19 -15
v 18 19 -15
v 18 23 -15
v 19 23 -15
v 19 24 -15
v 21 0 -15
v 21 24 -15
v -21 0 15
v 21 0 15
v -21 0 -15
v 21 0 -15
v -20 1 15
v 20 1 15
v -20 1 -14
v 20 1 -14
v -11 3 -14
v -2 3 -14
v -11 3 -15
v -2 3 -15
v -21 4 15
v -20 4 15
v 20 4 15
v 21 4 15
v 20 4 11
v 21 4 11
v -21 4 7
v -20 4 7
v 20 7 11
v 21 7 11
v 20 7 8
v 21 7 8
v -21 8 7
v -20 8 7
v -21 8 2
v -20 8 2
v -2 10 -14
v 1 10 -14
v 8 10 -14
v 13 10 -14
v -2 10 -15
v 1 10 -15
v 8 10 -15
v 13 10 -15
v -12 11 -14
v -11 11 -14
v 1 11 -14
v 5 11 -14
v -12 11 -15
v -11 11 -15
v 1 11 -15
v 5 11 -15
v 20 12 4
v 21 12 4
v -21 12 -7
v -20 12 -7
v 20 12 -9
v 21 12 -9
v -21 12 -14
v -20 12 -14
v -12 12 -14
v -21 12 -15
v -12 12 -15
v 20 13 8
v 21 13 8
v 20 13 4
v 21 13 4
v -21 13 2
v -20 13 2
v -21 13 -1
v -20 13 -1
v 5 13 -14
v 8 13 -14
v 5 13 -15
v 8 13 -15
v 13 17 -14
v 16 17 -14
v 13 17 -15
v 16 17 -15
v -21 19 -1
v -20 19 -1
v -21 19 -3
v -20 19 -3
v 20 19 -9
v 21 19 -9
v 16 19 -14
v 18 19 -14
v 20 19 -14
v 21 19 -14
v 16 19 -15
v 18 19 -15
v -21 20 -3
v -20 20 -3
v -21 20 -7
v -20 20 -7
v 18 23 -14
v 19 23 -14
v 18 23 -15
v 19 23 -15
v 19 24 -14
v 21 24 -14
v 19 24 -15
v 21 24 -15

# faces
f 3/2/1 2/2/1 1/2/1
f 4/2/1 2/2/1 3/2/1
f 5/1/1 4/1/1 3/1/1
f 6/1/1 4/1/1 5/1/1
f 7/1/1 4/1/1 6/1/1
f 8/1/1 4/1/1 7/1/1
f 9/1/1 4/1/1 8/1/1
f 10/2/1 2/2/1 4/2/1
f 10/1/1 4/1/1 9/1/1
f 11/2/1 2/2/1 10/2/1
f 12/1/1 9/1/1 8/1/1
f 13/1/1 9/1/1 12/1/1
f 14/1/1 9/1/1 13/1/1
f 15/1/1 9/1/1 14/1/1
f 16/1/1 9/1/1 15/1/1
f 17/1/1 9/1/1 16/1/1
f 20/2/1 19/2/1 18/2/1
f 21/2/1 19/2/1 20/2/1
f 24/2/1 23/2/1 22/2/1
f 25/2/1 23/2/1 24/2/1
f 28/2/1 27/2/1 26/2/1
f 29/2/1 27/2/1 28/2/1
f 32/2/1 31/2/1 30/2/1
f 33/2/1 31/2/1 32/2/1
f 36/2/1 35/2/1 34/2/1
f 37/2/1 35/2/1 36/2/1
f 40/2/1 39/2/1 38/2/1
f 41/2/1 39/2/1 40/2/1
f 44/2/1 43/2/1 42/2/1
f 45/2/1 43/2/1 44/2/1
f 48/1/1 47/1/1 46/1/1
f 49/1/1 47/1/1 48/1/1
f 50/1/1 47/1/1 49/1/1
f 51/1/1 47/1/1 50/1/1
f 52/1/1 47/1/1 51/1/1
f 53/1/1 47/1/1 52/1/1
f 54/1/1 52/1/1 51/1/1
f 55/1/1 52/1/1 54/1/1
f 56/1/1 47/1/1 53/1/1
f 57/1/1 47/1/1 56/1/1
f 58/1/2 59/1/2 60/1/2
f 60/1/2 59/1/2 61/1/2
f 61/1/2 59/1/2 62/1/2
f 62/1/2 59/1/2 63/1/2
f 63/1/2 59/1/2 64/1/2
f 64/1/2 59/1/2 65/1/2
f 63/1/2 64/1/2 66/1/2
f 66/1/2 64/1/2 67/1/2
f 67/1/2 64/1/2 68/1/2
f 68/1/2 64/1/2 69/1/2
f 69/1/2 64/1/2 70/1/2
f 70/1/2 64/1/2 71/1/2
f 72/2/2 73/2/2 74/2/2
f 74/2/2 73/2/2 75/2/2
f 76/2/2 77/2/2 78/2/2
f 78/2/2 77/2/2 79/2/2
f 80/2/2 81/2/2 82/2/2
f 82/2/2 81/2/2 83/2/2
f 84/2/2 85/2/2 86/2/2
f 86/2/2 85/2/2 87/2/2
f 86/1/2 87/1/2 88/1/2
f 88/1/2 87/1/2 89/1/2
f 89/1/2 87/1/2 90/1/2
f 90/1/2 87/1/2 91/1/2
f 91/1/2 87/1/2 92/1/2
f 92/1/2 87/1/2 93/1/2
f 91/1/2 92/1/2 94/1/2
f 94/1/2 92/1/2 95/1/2
f 93/1/2 87/1/2 96/1/2
f 87/2/2 85/2/2 97/2/2
f 96/1/2 87/1/2 97/1/2
f 97/2/2 85/2/2 98/2/2
f 98/2/2 85/2/2 99/2/2
f 103/2/3 101/2/3 100/2/3
f 103/1/3 102/1/3 101/1/3
f 104/1/3 102/1/3 103/1/3
f 105/2/3 103/2/3 100/2/3
f 107/2/3 105/2/3 100/2/3
f 108/1/3 106/1/3 105/1/3
f 108/2/3 105/2/3 107/2/3
f 109/1/3 106/1/3 108/1/3
f 112/1/3 111/1/3 110/1/3
f 113/1/3 111/1/3 112/1/3
f 116/1/3 115/1/3 114/1/3
f 117/1/3 115/1/3 116/1/3
f 120/1/3 119/1/3 118/1/3
f 121/1/3 119/1/3 120/1/3
f 124/1/3 123/1/3 122/1/3
f 125/1/3 123/1/3 124/1/3
f 128/1/3 127/1/3 126/1/3
f 129/1/3 127/1/3 128/1/3
f 132/1/3 131/1/3 130/1/3
f 133/1/3 131/1/3 132/1/3
f 136/1/3 135/1/3 134/1/3
f 137/1/3 135/1/3 136/1/3
f 140/2/3 139/2/3 138/2/3
f 141/2/3 139/2/3 140/2/3
f 142/2/3 140/2/3 138/2/3
f 143/2/3 140/2/3 142/2/3
f 144/2/3 142/2/3 138/2/3
f 146/2/3 145/2/3 144/2/3
f 148/2/3 147/2/3 146/2/3
f 150/2/3 148/2/3 146/2/3
f 150/2/3 149/2/3 148/2/3
f 150/2/3 146/2/3 144/2/3
f 151/2/3 149/2/3 150/2/3
f 152/2/3 150/2/3 144/2/3
f 154/2/3 153/2/3 152/2/3
f 156/2/3 155/2/3 154/2/3
f 158/2/3 157/2/3 156/2/3
f 160/2/3 144/2/3 138/2/3
f 160/2/3 159/2/3 158/2/3
f 160/2/3 158/2/3 156/2/3
f 160/2/3 156/2/3 154/2/3
f 160/2/3 154/2/3 152/2/3
f 160/2/3 152/2/3 144/2/3
f 161/2/3 159/2/3 160/2/3
f 162/2/3 159/2/3 161/2/3
f 163/2/3 159/2/3 162/2/3
f 164/1/4 165/1/4 166/1/4
f 166/1/4 165/1/4 167/1/4
f 168/1/4 169/1/4 170/1/4
f 170/1/4 169/1/4 171/1/4
f 172/2/4 173/2/4 174/2/4
f 174/2/4 173/2/4 175/2/4
f 172/2/4 174/2/4 176/2/4
f 176/2/4 174/2/4 177/2/4
f 172/2/4 176/2/4 178/2/4
f 178/2/4 179/2/4 180/2/4
f 180/2/4 181/2/4 182/2/4
f 180/2/4 182/2/4 184/2/4
f 182/2/4 183/2/4 184/2/4
f 178/2/4 180/2/4 184/2/4
f 184/2/4 183/2/4 185/2/4
f 178/2/4 184/2/4 186/2/4
f 186/2/4 187/2/4 188/2/4
f 188/2/4 189/2/4 190/2/4
f 190/2/4 191/2/4 192/2/4
f 172/2/4 178/2/4 194/2/4
f 192/2/4 193/2/4 194/2/4
f 190/2/4 192/2/4 194/2/4
f 188/2/4 190/2/4 194/2/4
f 186/2/4 188/2/4 194/2/4
f 178/2/4 186/2/4 194/2/4
f 194/2/4 193/2/4 195/2/4
f 198/2/5 197/2/5 196/2/5
f 199/2/5 197/2/5 198/2/5
f 200/2/6 201/2/6 202/2/6
f 202/2/6 201/2/6 203/2/6
f 204/2/6 205/2/6 206/2/6
f 206/2/6 205/2/6 207/2/6
f 210/1/6 211/1/6 212/1/6
f 212/1/6 211/1/6 213/1/6
f 208/1/6 209/1/6 214/1/6
f 214/1/6 209/1/6 215/1/6
f 216/1/6 217/1/6 218/1/6
f 218/1/6 217/1/6 219/1/6
f 220/1/6 221/1/6 222/1/6
f 222/1/6 221/1/6 223/1/6
f 224/2/6 225/2/6 228/2/6
f 228/2/6 225/2/6 229/2/6
f 226/2/6 227/2/6 230/2/6
f 230/2/6 227/2/6 231/2/6
f 232/2/6 233/2/6 236/2/6
f 236/2/6 233/2/6 237/2/6
f 234/2/6 235/2/6 238/2/6
f 238/2/6 235/2/6 239/2/6
f 240/1/6 241/1/6 244/1/6
f 244/1/6 241/1/6 245/1/6
f 242/1/6 243/1/6 246/1/6
f 246/1/6 243/1/6 247/1/6
f 246/2/6 247/2/6 249/2/6
f 247/2/6 248/2/6 249/2/6
f 249/2/6 248/2/6 250/2/6
f 251/1/6 252/1/6 253/1/6
f 253/1/6 252/1/6 254/1/6
f 255/1/6 256/1/6 257/1/6
f 257/1/6 256/1/6 258/1/6
f 259/2/6 260/2/6 261/2/6
f 261/2/6 260/2/6 262/2/6
f 263/2/6 264/2/6 265/2/6
f 265/2/6 264/2/6 266/2/6
f 267/1/6 268/1/6 269/1/6
f 269/1/6 268/1/6 270/1/6
f 271/1/6 272/1/6 275/1/6
f 275/1/6 272/1/6 276/1/6
f 273/2/6 274/2/6 277/2/6
f 277/2/6 274/2/6 278/2/6
f 279/1/6 280/1/6 281/1/6
f 281/1/6 280/1/6 282/1/6
f 283/2/6 284/2/6 285/2/6
f 285/2/6 284/2/6 286/2/6
f 287/2/6 288/2/6 289/2/6
f 289/2/6 288/2/6 290/2/6
