# MagicaVoxel @ Ephtracy

# group
g store_3

# material
mtllib store_3.mtl
usemtl palette

# normals
vn -1 0 0
vn 1 0 0
vn 0 0 1
vn 0 0 -1
vn 0 -1 0
vn 0 1 0

# texcoords
vt 0.185547 0.5
vt 0.248047 0.5
vt 0.310547 0.5
vt 0.841797 0.5

# verts
v -21 22 29
v -21 22 -1
v -21 23 29
v -21 23 -0
v -21 48 30
v -21 48 29
v -21 48 28
v -21 49 30
v -21 49 29
v -21 57 28
v -21 57 -0
v -21 58 30
v -21 58 29
v -21 58 -1
v -1 1 3
v -1 1 -20
v -1 4 6
v -1 4 3
v -1 7 9
v -1 7 6
v -1 10 12
v -1 10 9
v -1 13 15
v -1 13 12
v -1 16 18
v -1 16 15
v -1 19 21
v -1 19 18
v -1 22 21
v -1 22 -1
v -1 22 -20
v 1 22 1
v 1 22 -0
v 1 23 1
v 1 23 -0
v 20 2 2
v 20 2 -19
v 20 5 5
v 20 5 2
v 20 8 8
v 20 8 5
v 20 11 11
v 20 11 8
v 20 14 14
v 20 14 11
v 20 17 17
v 20 17 14
v 20 20 20
v 20 20 17
v 20 21 -1
v 20 21 -19
v 20 22 -0
v 20 22 -1
v 20 23 29
v 20 23 23
v 20 23 20
v 20 23 -0
v 20 48 29
v 20 48 28
v 20 57 28
v 20 57 -0
v -20 23 29
v -20 23 21
v -20 23 20
v -20 23 -0
v -20 25 20
v -20 25 17
v -20 26 21
v -20 26 18
v -20 28 17
v -20 28 14
v -20 29 18
v -20 29 15
v -20 31 14
v -20 31 11
v -20 32 15
v -20 32 12
v -20 34 11
v -20 34 8
v -20 35 12
v -20 35 9
v -20 37 8
v -20 37 5
v -20 38 9
v -20 38 6
v -20 40 5
v -20 40 2
v -20 41 6
v -20 41 3
v -20 43 2
v -20 43 -0
v -20 44 3
v -20 44 -0
v -20 48 29
v -20 48 28
v -20 57 28
v -20 57 -0
v 0 2 2
v 0 2 -19
v 0 5 5
v 0 5 2
v 0 8 8
v 0 8 5
v 0 11 11
v 0 11 8
v 0 14 14
v 0 14 11
v 0 17 17
v 0 17 14
v 0 20 20
v 0 20 17
v 0 21 -1
v 0 21 -19
v 0 22 -0
v 0 22 -1
v 0 23 21
v 0 23 20
v 0 23 -0
v 0 25 20
v 0 25 17
v 0 26 21
v 0 26 18
v 0 28 17
v 0 28 14
v 0 29 18
v 0 29 15
v 0 31 14
v 0 31 11
v 0 32 15
v 0 32 12
v 0 34 11
v 0 34 8
v 0 35 12
v 0 35 9
v 0 37 8
v 0 37 5
v 0 38 9
v 0 38 6
v 0 40 5
v 0 40 2
v 0 41 6
v 0 41 3
v 0 43 2
v 0 43 -0
v 0 44 3
v 0 44 -0
v 2 22 1
v 2 22 -0
v 2 23 1
v 2 23 -0
v 21 1 3
v 21 1 -20
v 21 4 6
v 21 4 3
v 21 7 9
v 21 7 6
v 21 10 12
v 21 10 9
v 21 13 15
v 21 13 12
v 21 16 18
v 21 16 15
v 21 19 21
v 21 19 18
v 21 22 29
v 21 22 21
v 21 22 -1
v 21 22 -20
v 21 23 29
v 21 23 -0
v 21 48 30
v 21 48 29
v 21 48 28
v 21 49 30
v 21 49 29
v 21 57 28
v 21 57 -0
v 21 58 30
v 21 58 29
v 21 58 -1
v -21 48 30
v -21 49 30
v -21 58 30
v 21 48 30
v 21 49 30
v 21 58 30
v -21 22 29
v -21 23 29
v -21 48 29
v -20 23 29
v -20 48 29
v 20 23 29
v 20 48 29
v 21 22 29
v 21 23 29
v 21 48 29
v -20 23 21
v -20 26 21
v -1 19 21
v -1 22 21
v 0 19 21
v 0 22 21
v 0 23 21
v 0 26 21
v 20 19 21
v 20 22 21
v 21 19 21
v 21 22 21
v -20 26 18
v -20 29 18
v -1 16 18
v -1 19 18
v 0 16 18
v 0 19 18
v 0 26 18
v 0 29 18
v 20 16 18
v 20 19 18
v 21 16 18
v 21 19 18
v -20 29 15
v -20 32 15
v -1 13 15
v -1 16 15
v 0 13 15
v 0 16 15
v 0 29 15
v 0 32 15
v 20 13 15
v 20 16 15
v 21 13 15
v 21 16 15
v -20 32 12
v -20 35 12
v -1 10 12
v -1 13 12
v 0 10 12
v 0 13 12
v 0 32 12
v 0 35 12
v 20 10 12
v 20 13 12
v 21 10 12
v 21 13 12
v -20 35 9
v -20 38 9
v -1 7 9
v -1 10 9
v 0 7 9
v 0 10 9
v 0 35 9
v 0 38 9
v 20 7 9
v 20 10 9
v 21 7 9
v 21 10 9
v -20 38 6
v -20 41 6
v -1 4 6
v -1 7 6
v 0 4 6
v 0 7 6
v 0 38 6
v 0 41 6
v 20 4 6
v 20 7 6
v 21 4 6
v 21 7 6
v -20 41 3
v -20 44 3
v -1 1 3
v -1 4 3
v 0 1 3
v 0 4 3
v 0 41 3
v 0 44 3
v 20 1 3
v 20 4 3
v 21 1 3
v 21 4 3
v 1 22 1
v 1 23 1
v 2 22 1
v 2 23 1
v -20 23 -0
v -20 43 -0
v -20 44 -0
v -20 57 -0
v 0 22 -0
v 0 23 -0
v 0 43 -0
v 0 44 -0
v 1 22 -0
v 1 23 -0
v 2 22 -0
v 2 23 -0
v 20 22 -0
v 20 23 -0
v 20 57 -0
v 0 21 -1
v 0 22 -1
v 20 21 -1
v 20 22 -1
v 0 2 -19
v 0 21 -19
v 20 2 -19
v 20 21 -19
v -20 48 28
v -20 57 28
v 20 48 28
v 20 57 28
v -20 23 20
v -20 25 20
v 0 20 20
v 0 23 20
v 0 25 20
v 20 20 20
v 20 23 20
v -20 25 17
v -20 28 17
v 0 17 17
v 0 20 17
v 0 25 17
v 0 28 17
v 20 17 17
v 20 20 17
v -20 28 14
v -20 31 14
v 0 14 14
v 0 17 14
v 0 28 14
v 0 31 14
v 20 14 14
v 20 17 14
v -20 31 11
v -20 34 11
v 0 11 11
v 0 14 11
v 0 31 11
v 0 34 11
v 20 11 11
v 20 14 11
v -20 34 8
v -20 37 8
v 0 8 8
v 0 11 8
v 0 34 8
v 0 37 8
v 20 8 8
v 20 11 8
v -20 37 5
v -20 40 5
v 0 5 5
v 0 8 5
v 0 37 5
v 0 40 5
v 20 5 5
v 20 8 5
v -20 40 2
v -20 43 2
v 0 2 2
v 0 5 2
v 0 40 2
v 0 43 2
v 20 2 2
v 20 5 2
v -21 22 -1
v -21 58 -1
v -1 22 -1
v 21 22 -1
v 21 58 -1
v -1 1 -20
v -1 22 -20
v 0 2 -20
v 0 21 -20
v 20 2 -20
v 20 21 -20
v 21 1 -20
v 21 22 -20
v -1 1 3
v 0 1 3
v 20 1 3
v 21 1 3
v 0 1 2
v 20 1 2
v -1 1 -20
v 21 1 -20
v -1 4 6
v 0 4 6
v 20 4 6
v 21 4 6
v -1 4 3
v 0 4 3
v 20 4 3
v 21 4 3
v -1 7 9
v 0 7 9
v 20 7 9
v 21 7 9
v -1 7 6
v 0 7 6
v 20 7 6
v 21 7 6
v -1 10 12
v 0 10 12
v 20 10 12
v 21 10 12
v -1 10 9
v 0 10 9
v 20 10 9
v 21 10 9
v -1 13 15
v 0 13 15
v 20 13 15
v 21 13 15
v -1 13 12
v 0 13 12
v 20 13 12
v 21 13 12
v -1 16 18
v 0 16 18
v 20 16 18
v 21 16 18
v -1 16 15
v 0 16 15
v 20 16 15
v 21 16 15
v -1 19 21
v 0 19 21
v 20 19 21
v 21 19 21
v -1 19 18
v 0 19 18
v 20 19 18
v 21 19 18
v 0 21 -1
v 20 21 -1
v 0 21 -19
v 20 21 -19
v -21 22 29
v 21 22 29
v 0 22 23
v 20 22 23
v -1 22 21
v 0 22 21
v 20 22 21
v 21 22 21
v 1 22 1
v 2 22 1
v 0 22 -0
v 1 22 -0
v 2 22 -0
v 20 22 -0
v -21 22 -1
v -1 22 -1
v 0 22 -1
v 20 22 -1
v -20 25 20
v 0 25 20
v -20 25 17
v 0 25 17
v -20 28 17
v 0 28 17
v -20 28 14
v 0 28 14
v -20 31 14
v 0 31 14
v -20 31 11
v 0 31 11
v -20 34 11
v 0 34 11
v -20 34 8
v 0 34 8
v -20 37 8
v 0 37 8
v -20 37 5
v 0 37 5
v -20 40 5
v 0 40 5
v -20 40 2
v 0 40 2
v -20 43 2
v 0 43 2
v -20 43 -0
v 0 43 -0
v -21 48 30
v 21 48 30
v -21 48 29
v -20 48 29
v 20 48 29
v 21 48 29
v -20 48 28
v 20 48 28
v -20 57 28
v 20 57 28
v -20 57 -0
v 20 57 -0
v 0 2 2
v 20 2 2
v 0 2 -19
v 20 2 -19
v 0 5 5
v 20 5 5
v 0 5 2
v 20 5 2
v 0 8 8
v 20 8 8
v 0 8 5
v 20 8 5
v 0 11 11
v 20 11 11
v 0 11 8
v 20 11 8
v 0 14 14
v 20 14 14
v 0 14 11
v 20 14 11
v 0 17 17
v 20 17 17
v 0 17 14
v 20 17 14
v 0 20 20
v 20 20 20
v 0 20 17
v 20 20 17
v -1 22 -1
v 21 22 -1
v -1 22 -20
v 21 22 -20
v -20 23 29
v 20 23 29
v 0 23 23
v 20 23 23
v -20 23 21
v 0 23 21
v -20 23 20
v 0 23 20
v 20 23 20
v 1 23 1
v 2 23 1
v -20 23 -0
v 0 23 -0
v 1 23 -0
v 2 23 -0
v -20 26 21
v 0 26 21
v -20 26 18
v 0 26 18
v -20 29 18
v 0 29 18
v -20 29 15
v 0 29 15
v -20 32 15
v 0 32 15
v -20 32 12
v 0 32 12
v -20 35 12
v 0 35 12
v -20 35 9
v 0 35 9
v -20 38 9
v 0 38 9
v -20 38 6
v 0 38 6
v -20 41 6
v 0 41 6
v -20 41 3
v 0 41 3
v -20 44 3
v 0 44 3
v -20 44 -0
v 0 44 -0
v -21 58 30
v 21 58 30
v -21 58 29
v 21 58 29
v -21 58 -1
v 21 58 -1

# faces
f 3/4/1 2/4/1 1/4/1
f 4/4/1 2/4/1 3/4/1
f 6/2/1 4/2/1 3/2/1
f 7/2/1 4/2/1 6/2/1
f 8/4/1 6/4/1 5/4/1
f 8/4/1 7/4/1 6/4/1
f 9/4/1 7/4/1 8/4/1
f 10/2/1 4/2/1 7/2/1
f 10/4/1 7/4/1 9/4/1
f 11/4/1 2/4/1 4/4/1
f 11/2/1 4/2/1 10/2/1
f 12/2/1 9/2/1 8/2/1
f 13/4/1 10/4/1 9/4/1
f 13/2/1 9/2/1 12/2/1
f 13/4/1 11/4/1 10/4/1
f 14/4/1 2/4/1 11/4/1
f 14/4/1 11/4/1 13/4/1
f 18/4/1 16/4/1 15/4/1
f 20/4/1 18/4/1 17/4/1
f 22/4/1 20/4/1 19/4/1
f 24/4/1 22/4/1 21/4/1
f 26/4/1 24/4/1 23/4/1
f 28/4/1 26/4/1 25/4/1
f 29/4/1 28/4/1 27/4/1
f 30/4/1 16/4/1 18/4/1
f 30/4/1 28/4/1 29/4/1
f 30/4/1 18/4/1 20/4/1
f 30/4/1 26/4/1 28/4/1
f 30/4/1 20/4/1 22/4/1
f 30/4/1 24/4/1 26/4/1
f 30/4/1 22/4/1 24/4/1
f 31/4/1 16/4/1 30/4/1
f 34/4/1 33/4/1 32/4/1
f 35/4/1 33/4/1 34/4/1
f 39/4/1 37/4/1 36/4/1
f 41/4/1 39/4/1 38/4/1
f 43/4/1 41/4/1 40/4/1
f 45/4/1 43/4/1 42/4/1
f 47/4/1 45/4/1 44/4/1
f 49/4/1 47/4/1 46/4/1
f 50/4/1 37/4/1 39/4/1
f 50/4/1 49/4/1 48/4/1
f 50/4/1 47/4/1 49/4/1
f 50/4/1 39/4/1 41/4/1
f 50/4/1 45/4/1 47/4/1
f 50/4/1 41/4/1 43/4/1
f 50/4/1 43/4/1 45/4/1
f 51/4/1 37/4/1 50/4/1
f 52/4/1 50/4/1 48/4/1
f 53/4/1 50/4/1 52/4/1
f 56/4/1 52/4/1 48/4/1
f 57/4/1 52/4/1 56/4/1
f 58/2/1 55/2/1 54/2/1
f 58/2/1 56/2/1 55/2/1
f 58/2/1 57/2/1 56/2/1
f 59/2/1 57/2/1 58/2/1
f 60/2/1 57/2/1 59/2/1
f 61/2/1 57/2/1 60/2/1
f 64/2/2 65/2/2 66/2/2
f 66/2/2 65/2/2 67/2/2
f 62/2/2 63/2/2 68/2/2
f 67/2/2 65/2/2 70/2/2
f 70/2/2 65/2/2 71/2/2
f 68/2/2 69/2/2 72/2/2
f 71/2/2 65/2/2 74/2/2
f 74/2/2 65/2/2 75/2/2
f 72/2/2 73/2/2 76/2/2
f 75/2/2 65/2/2 78/2/2
f 78/2/2 65/2/2 79/2/2
f 76/2/2 77/2/2 80/2/2
f 79/2/2 65/2/2 82/2/2
f 82/2/2 65/2/2 83/2/2
f 80/2/2 81/2/2 84/2/2
f 83/2/2 65/2/2 86/2/2
f 86/2/2 65/2/2 87/2/2
f 84/2/2 85/2/2 88/2/2
f 87/2/2 65/2/2 90/2/2
f 90/2/2 65/2/2 91/2/2
f 88/2/2 89/2/2 92/2/2
f 62/2/2 68/2/2 94/2/2
f 92/2/2 93/2/2 94/2/2
f 88/2/2 92/2/2 94/2/2
f 68/2/2 72/2/2 94/2/2
f 84/2/2 88/2/2 94/2/2
f 72/2/2 76/2/2 94/2/2
f 80/2/2 84/2/2 94/2/2
f 76/2/2 80/2/2 94/2/2
f 94/2/2 93/2/2 95/2/2
f 95/2/2 93/2/2 96/2/2
f 96/2/2 93/2/2 97/2/2
f 98/4/2 99/4/2 101/4/2
f 100/4/2 101/4/2 103/4/2
f 102/4/2 103/4/2 105/4/2
f 104/4/2 105/4/2 107/4/2
f 106/4/2 107/4/2 109/4/2
f 108/4/2 109/4/2 111/4/2
f 101/4/2 99/4/2 112/4/2
f 110/4/2 111/4/2 112/4/2
f 111/4/2 109/4/2 112/4/2
f 103/4/2 101/4/2 112/4/2
f 109/4/2 107/4/2 112/4/2
f 105/4/2 103/4/2 112/4/2
f 107/4/2 105/4/2 112/4/2
f 112/4/2 99/4/2 113/4/2
f 110/4/2 112/4/2 114/4/2
f 114/4/2 112/4/2 115/4/2
f 110/4/2 114/4/2 117/4/2
f 117/4/2 114/4/2 118/4/2
f 116/3/2 117/3/2 119/3/2
f 116/3/2 119/3/2 121/3/2
f 119/3/2 120/3/2 121/3/2
f 121/3/2 120/3/2 122/3/2
f 122/3/2 120/3/2 123/3/2
f 122/3/2 123/3/2 125/3/2
f 123/3/2 124/3/2 125/3/2
f 125/3/2 124/3/2 126/3/2
f 126/3/2 124/3/2 127/3/2
f 126/3/2 127/3/2 129/3/2
f 127/3/2 128/3/2 129/3/2
f 129/3/2 128/3/2 130/3/2
f 130/3/2 128/3/2 131/3/2
f 130/3/2 131/3/2 133/3/2
f 131/3/2 132/3/2 133/3/2
f 133/3/2 132/3/2 134/3/2
f 134/3/2 132/3/2 135/3/2
f 134/3/2 135/3/2 137/3/2
f 135/3/2 136/3/2 137/3/2
f 137/3/2 136/3/2 138/3/2
f 138/3/2 136/3/2 139/3/2
f 138/3/2 139/3/2 141/3/2
f 139/3/2 140/3/2 141/3/2
f 141/3/2 140/3/2 142/3/2
f 142/3/2 140/3/2 143/3/2
f 142/3/2 143/3/2 145/3/2
f 143/3/2 144/3/2 145/3/2
f 145/3/2 144/3/2 146/3/2
f 147/4/2 148/4/2 149/4/2
f 149/4/2 148/4/2 150/4/2
f 151/4/2 152/4/2 154/4/2
f 153/4/2 154/4/2 156/4/2
f 155/4/2 156/4/2 158/4/2
f 157/4/2 158/4/2 160/4/2
f 159/4/2 160/4/2 162/4/2
f 161/4/2 162/4/2 164/4/2
f 163/4/2 164/4/2 166/4/2
f 154/4/2 152/4/2 167/4/2
f 156/4/2 154/4/2 167/4/2
f 166/4/2 164/4/2 167/4/2
f 158/4/2 156/4/2 167/4/2
f 164/4/2 162/4/2 167/4/2
f 160/4/2 158/4/2 167/4/2
f 162/4/2 160/4/2 167/4/2
f 167/4/2 152/4/2 168/4/2
f 165/4/2 166/4/2 169/4/2
f 166/4/2 167/4/2 169/4/2
f 169/4/2 167/4/2 170/4/2
f 169/2/2 170/2/2 172/2/2
f 172/2/2 170/2/2 173/2/2
f 171/4/2 172/4/2 174/4/2
f 172/4/2 173/4/2 174/4/2
f 174/4/2 173/4/2 175/4/2
f 173/2/2 170/2/2 176/2/2
f 175/4/2 173/4/2 176/4/2
f 170/4/2 167/4/2 177/4/2
f 176/2/2 170/2/2 177/2/2
f 174/2/2 175/2/2 178/2/2
f 175/4/2 176/4/2 179/4/2
f 178/2/2 175/2/2 179/2/2
f 176/4/2 177/4/2 179/4/2
f 177/4/2 167/4/2 180/4/2
f 179/4/2 177/4/2 180/4/2
f 184/4/3 182/4/3 181/4/3
f 185/2/3 183/2/3 182/2/3
f 185/4/3 182/4/3 184/4/3
f 186/2/3 183/2/3 185/2/3
f 190/4/3 188/4/3 187/4/3
f 190/2/3 189/2/3 188/2/3
f 191/2/3 189/2/3 190/2/3
f 192/4/3 190/4/3 187/4/3
f 194/4/3 192/4/3 187/4/3
f 195/2/3 193/2/3 192/2/3
f 195/4/3 192/4/3 194/4/3
f 196/2/3 193/2/3 195/2/3
f 201/4/3 200/4/3 199/4/3
f 202/4/3 200/4/3 201/4/3
f 203/3/3 198/3/3 197/3/3
f 204/3/3 198/3/3 203/3/3
f 205/3/3 202/3/3 201/3/3
f 206/3/3 202/3/3 205/3/3
f 207/4/3 206/4/3 205/4/3
f 208/4/3 206/4/3 207/4/3
f 213/4/3 212/4/3 211/4/3
f 214/4/3 212/4/3 213/4/3
f 215/3/3 210/3/3 209/3/3
f 216/3/3 210/3/3 215/3/3
f 217/3/3 214/3/3 213/3/3
f 218/3/3 214/3/3 217/3/3
f 219/4/3 218/4/3 217/4/3
f 220/4/3 218/4/3 219/4/3
f 225/4/3 224/4/3 223/4/3
f 226/4/3 224/4/3 225/4/3
f 227/3/3 222/3/3 221/3/3
f 228/3/3 222/3/3 227/3/3
f 229/3/3 226/3/3 225/3/3
f 230/3/3 226/3/3 229/3/3
f 231/4/3 230/4/3 229/4/3
f 232/4/3 230/4/3 231/4/3
f 237/4/3 236/4/3 235/4/3
f 238/4/3 236/4/3 237/4/3
f 239/3/3 234/3/3 233/3/3
f 240/3/3 234/3/3 239/3/3
f 241/3/3 238/3/3 237/3/3
f 242/3/3 238/3/3 241/3/3
f 243/4/3 242/4/3 241/4/3
f 244/4/3 242/4/3 243/4/3
f 249/4/3 248/4/3 247/4/3
f 250/4/3 248/4/3 249/4/3
f 251/3/3 246/3/3 245/3/3
f 252/3/3 246/3/3 251/3/3
f 253/3/3 250/3/3 249/3/3
f 254/3/3 250/3/3 253/3/3
f 255/4/3 254/4/3 253/4/3
f 256/4/3 254/4/3 255/4/3
f 261/4/3 260/4/3 259/4/3
f 262/4/3 260/4/3 261/4/3
f 263/3/3 258/3/3 257/3/3
f 264/3/3 258/3/3 263/3/3
f 265/3/3 262/3/3 261/3/3
f 266/3/3 262/3/3 265/3/3
f 267/4/3 266/4/3 265/4/3
f 268/4/3 266/4/3 267/4/3
f 273/4/3 272/4/3 271/4/3
f 274/4/3 272/4/3 273/4/3
f 275/3/3 270/3/3 269/3/3
f 276/3/3 270/3/3 275/3/3
f 277/3/3 274/3/3 273/3/3
f 278/3/3 274/3/3 277/3/3
f 279/4/3 278/4/3 277/4/3
f 280/4/3 278/4/3 279/4/3
f 283/4/3 282/4/3 281/4/3
f 284/4/3 282/4/3 283/4/3
f 290/4/3 286/4/3 285/4/3
f 291/4/3 286/4/3 290/4/3
f 292/4/3 288/4/3 287/4/3
f 293/4/3 291/4/3 290/4/3
f 293/4/3 292/4/3 291/4/3
f 293/4/3 290/4/3 289/4/3
f 294/4/3 292/4/3 293/4/3
f 296/4/3 292/4/3 294/4/3
f 297/4/3 296/4/3 295/4/3
f 298/4/3 292/4/3 296/4/3
f 298/4/3 296/4/3 297/4/3
f 299/4/3 288/4/3 292/4/3
f 299/4/3 292/4/3 298/4/3
f 302/4/3 301/4/3 300/4/3
f 303/4/3 301/4/3 302/4/3
f 306/1/3 305/1/3 304/1/3
f 307/1/3 305/1/3 306/1/3
f 308/4/4 309/4/4 310/4/4
f 310/4/4 309/4/4 311/4/4
f 312/3/4 313/3/4 315/3/4
f 315/3/4 313/3/4 316/3/4
f 314/3/4 315/3/4 317/3/4
f 317/3/4 315/3/4 318/3/4
f 319/3/4 320/3/4 323/3/4
f 323/3/4 320/3/4 324/3/4
f 321/3/4 322/3/4 325/3/4
f 325/3/4 322/3/4 326/3/4
f 327/3/4 328/3/4 331/3/4
f 331/3/4 328/3/4 332/3/4
f 329/3/4 330/3/4 333/3/4
f 333/3/4 330/3/4 334/3/4
f 335/3/4 336/3/4 339/3/4
f 339/3/4 336/3/4 340/3/4
f 337/3/4 338/3/4 341/3/4
f 341/3/4 338/3/4 342/3/4
f 343/3/4 344/3/4 347/3/4
f 347/3/4 344/3/4 348/3/4
f 345/3/4 346/3/4 349/3/4
f 349/3/4 346/3/4 350/3/4
f 351/3/4 352/3/4 355/3/4
f 355/3/4 352/3/4 356/3/4
f 353/3/4 354/3/4 357/3/4
f 357/3/4 354/3/4 358/3/4
f 359/3/4 360/3/4 363/3/4
f 363/3/4 360/3/4 364/3/4
f 361/3/4 362/3/4 365/3/4
f 365/3/4 362/3/4 366/3/4
f 367/4/4 368/4/4 369/4/4
f 369/4/4 368/4/4 370/4/4
f 370/4/4 368/4/4 371/4/4
f 372/4/4 373/4/4 374/4/4
f 374/4/4 373/4/4 375/4/4
f 372/4/4 374/4/4 376/4/4
f 374/1/4 375/1/4 376/1/4
f 375/4/4 373/4/4 377/4/4
f 376/1/4 375/1/4 377/1/4
f 372/4/4 376/4/4 378/4/4
f 376/4/4 377/4/4 378/4/4
f 377/4/4 373/4/4 379/4/4
f 378/4/4 377/4/4 379/4/4
f 384/4/5 381/4/5 380/4/5
f 384/3/5 382/3/5 381/3/5
f 385/4/5 383/4/5 382/4/5
f 385/3/5 382/3/5 384/3/5
f 386/4/5 384/4/5 380/4/5
f 386/4/5 385/4/5 384/4/5
f 387/4/5 383/4/5 385/4/5
f 387/4/5 385/4/5 386/4/5
f 392/4/5 389/4/5 388/4/5
f 393/3/5 390/3/5 389/3/5
f 393/4/5 389/4/5 392/4/5
f 394/4/5 391/4/5 390/4/5
f 394/3/5 390/3/5 393/3/5
f 395/4/5 391/4/5 394/4/5
f 400/4/5 397/4/5 396/4/5
f 401/3/5 398/3/5 397/3/5
f 401/4/5 397/4/5 400/4/5
f 402/4/5 399/4/5 398/4/5
f 402/3/5 398/3/5 401/3/5
f 403/4/5 399/4/5 402/4/5
f 408/4/5 405/4/5 404/4/5
f 409/3/5 406/3/5 405/3/5
f 409/4/5 405/4/5 408/4/5
f 410/4/5 407/4/5 406/4/5
f 410/3/5 406/3/5 409/3/5
f 411/4/5 407/4/5 410/4/5
f 416/4/5 413/4/5 412/4/5
f 417/3/5 414/3/5 413/3/5
f 417/4/5 413/4/5 416/4/5
f 418/4/5 415/4/5 414/4/5
f 418/3/5 414/3/5 417/3/5
f 419/4/5 415/4/5 418/4/5
f 424/4/5 421/4/5 420/4/5
f 425/3/5 422/3/5 421/3/5
f 425/4/5 421/4/5 424/4/5
f 426/4/5 423/4/5 422/4/5
f 426/3/5 422/3/5 425/3/5
f 427/4/5 423/4/5 426/4/5
f 432/4/5 429/4/5 428/4/5
f 433/3/5 430/3/5 429/3/5
f 433/4/5 429/4/5 432/4/5
f 434/4/5 431/4/5 430/4/5
f 434/3/5 430/3/5 433/3/5
f 435/4/5 431/4/5 434/4/5
f 438/4/5 437/4/5 436/4/5
f 439/4/5 437/4/5 438/4/5
f 442/4/5 441/4/5 440/4/5
f 443/4/5 441/4/5 442/4/5
f 444/4/5 442/4/5 440/4/5
f 445/3/5 443/3/5 442/3/5
f 445/4/5 442/4/5 444/4/5
f 446/4/5 441/4/5 443/4/5
f 446/3/5 443/3/5 445/3/5
f 447/4/5 441/4/5 446/4/5
f 451/4/5 449/4/5 448/4/5
f 452/4/5 449/4/5 451/4/5
f 454/4/5 444/4/5 440/4/5
f 455/4/5 444/4/5 454/4/5
f 456/4/5 453/4/5 452/4/5
f 456/4/5 451/4/5 450/4/5
f 456/4/5 452/4/5 451/4/5
f 457/4/5 453/4/5 456/4/5
f 460/3/5 459/3/5 458/3/5
f 461/3/5 459/3/5 460/3/5
f 464/3/5 463/3/5 462/3/5
f 465/3/5 463/3/5 464/3/5
f 468/3/5 467/3/5 466/3/5
f 469/3/5 467/3/5 468/3/5
f 472/3/5 471/3/5 470/3/5
f 473/3/5 471/3/5 472/3/5
f 476/3/5 475/3/5 474/3/5
f 477/3/5 475/3/5 476/3/5
f 480/3/5 479/3/5 478/3/5
f 481/3/5 479/3/5 480/3/5
f 484/3/5 483/3/5 482/3/5
f 485/3/5 483/3/5 484/3/5
f 488/4/5 487/4/5 486/4/5
f 489/4/5 487/4/5 488/4/5
f 490/4/5 487/4/5 489/4/5
f 491/4/5 487/4/5 490/4/5
f 492/4/5 490/4/5 489/4/5
f 493/4/5 490/4/5 492/4/5
f 496/4/5 495/4/5 494/4/5
f 497/4/5 495/4/5 496/4/5
f 498/4/6 499/4/6 500/4/6
f 500/4/6 499/4/6 501/4/6
f 502/3/6 503/3/6 504/3/6
f 504/3/6 503/3/6 505/3/6
f 506/3/6 507/3/6 508/3/6
f 508/3/6 507/3/6 509/3/6
f 510/3/6 511/3/6 512/3/6
f 512/3/6 511/3/6 513/3/6
f 514/3/6 515/3/6 516/3/6
f 516/3/6 515/3/6 517/3/6
f 518/3/6 519/3/6 520/3/6
f 520/3/6 519/3/6 521/3/6
f 522/3/6 523/3/6 524/3/6
f 524/3/6 523/3/6 525/3/6
f 526/4/6 527/4/6 528/4/6
f 528/4/6 527/4/6 529/4/6
f 530/4/6 531/4/6 532/4/6
f 532/4/6 531/4/6 533/4/6
f 530/4/6 532/4/6 534/4/6
f 532/3/6 533/3/6 535/3/6
f 534/4/6 532/4/6 535/4/6
f 535/3/6 533/3/6 537/3/6
f 537/3/6 533/3/6 538/3/6
f 536/4/6 537/4/6 541/4/6
f 541/4/6 537/4/6 542/4/6
f 539/4/6 540/4/6 543/4/6
f 543/4/6 540/4/6 544/4/6
f 545/3/6 546/3/6 547/3/6
f 547/3/6 546/3/6 548/3/6
f 549/3/6 550/3/6 551/3/6
f 551/3/6 550/3/6 552/3/6
f 553/3/6 554/3/6 555/3/6
f 555/3/6 554/3/6 556/3/6
f 557/3/6 558/3/6 559/3/6
f 559/3/6 558/3/6 560/3/6
f 561/3/6 562/3/6 563/3/6
f 563/3/6 562/3/6 564/3/6
f 565/3/6 566/3/6 567/3/6
f 567/3/6 566/3/6 568/3/6
f 569/3/6 570/3/6 571/3/6
f 571/3/6 570/3/6 572/3/6
f 573/2/6 574/2/6 575/2/6
f 575/2/6 574/2/6 576/2/6
f 575/4/6 576/4/6 577/4/6
f 577/4/6 576/4/6 578/4/6
