# MagicaVoxel @ Ephtracy

# group
g wall_stairs

# material
mtllib wall_stairs.mtl
usemtl palette

# normals
vn -1 0 0
vn 1 0 0
vn 0 0 1
vn 0 0 -1
vn 0 -1 0
vn 0 1 0

# texcoords
vt 0.306641 0.5
vt 0.310547 0.5
vt 0.810547 0.5

# verts
v -21 0 31
v -21 0 -32
v -21 42 31
v -21 42 -32
v 0 22 -10
v 0 22 -11
v 0 24 -7
v 0 24 -10
v 0 25 -8
v 0 25 -11
v 0 27 -4
v 0 27 -7
v 0 28 -5
v 0 28 -8
v 0 30 -1
v 0 30 -4
v 0 31 -2
v 0 31 -5
v 0 33 2
v 0 33 -1
v 0 34 1
v 0 34 -2
v 0 36 5
v 0 36 2
v 0 37 4
v 0 37 1
v 0 39 8
v 0 39 5
v 0 40 7
v 0 40 4
v 0 42 10
v 0 42 8
v 0 43 10
v 0 43 7
v 10 9 31
v 10 9 30
v 10 41 31
v 10 41 30
v 20 0 10
v 20 0 -31
v 20 1 30
v 20 1 10
v 20 21 -10
v 20 21 -11
v 20 21 -31
v 20 22 -11
v 20 22 -31
v 20 24 -7
v 20 24 -10
v 20 25 -8
v 20 25 -11
v 20 27 -4
v 20 27 -7
v 20 28 -5
v 20 28 -8
v 20 30 -1
v 20 30 -4
v 20 31 -2
v 20 31 -5
v 20 33 2
v 20 33 -1
v 20 34 1
v 20 34 -2
v 20 36 5
v 20 36 2
v 20 37 4
v 20 37 1
v 20 39 8
v 20 39 5
v 20 40 7
v 20 40 4
v 20 42 30
v 20 42 10
v 20 42 8
v 20 42 7
v 20 42 -31
v -20 0 9
v -20 0 -31
v -20 1 30
v -20 1 10
v -20 3 9
v -20 3 6
v -20 4 10
v -20 4 7
v -20 6 6
v -20 6 3
v -20 7 7
v -20 7 4
v -20 9 3
v -20 9 -0
v -20 10 4
v -20 10 1
v -20 12 -0
v -20 12 -3
v -20 13 1
v -20 13 -2
v -20 15 -3
v -20 15 -6
v -20 16 -2
v -20 16 -5
v -20 18 -6
v -20 18 -9
v -20 19 -5
v -20 19 -8
v -20 21 -9
v -20 21 -11
v -20 21 -31
v -20 22 -8
v -20 22 -11
v -20 22 -31
v -20 42 30
v -20 42 -31
v -10 9 31
v -10 9 30
v -10 41 31
v -10 41 30
v 0 0 10
v 0 0 9
v 0 1 10
v 0 3 9
v 0 3 6
v 0 4 10
v 0 4 7
v 0 6 6
v 0 6 3
v 0 7 7
v 0 7 4
v 0 9 3
v 0 9 -0
v 0 10 4
v 0 10 1
v 0 12 -0
v 0 12 -3
v 0 13 1
v 0 13 -2
v 0 15 -3
v 0 15 -6
v 0 16 -2
v 0 16 -5
v 0 18 -6
v 0 18 -9
v 0 19 -5
v 0 19 -8
v 0 21 -9
v 0 21 -10
v 0 22 -8
v 0 22 -10
v 20 42 10
v 20 42 7
v 20 43 10
v 20 43 7
v 21 0 31
v 21 0 -32
v 21 42 31
v 21 42 -32
v -21 0 31
v -21 42 31
v -10 9 31
v -10 41 31
v 10 9 31
v 10 41 31
v 21 0 31
v 21 42 31
v -20 1 10
v -20 4 10
v 0 1 10
v 0 4 10
v 0 42 10
v 0 43 10
v 20 42 10
v 20 43 10
v 0 39 8
v 0 42 8
v 20 39 8
v 20 42 8
v -20 4 7
v -20 7 7
v 0 4 7
v 0 7 7
v 0 36 5
v 0 39 5
v 20 36 5
v 20 39 5
v -20 7 4
v -20 10 4
v 0 7 4
v 0 10 4
v 0 33 2
v 0 36 2
v 20 33 2
v 20 36 2
v -20 10 1
v -20 13 1
v 0 10 1
v 0 13 1
v 0 30 -1
v 0 33 -1
v 20 30 -1
v 20 33 -1
v -20 13 -2
v -20 16 -2
v 0 13 -2
v 0 16 -2
v 0 27 -4
v 0 30 -4
v 20 27 -4
v 20 30 -4
v -20 16 -5
v -20 19 -5
v 0 16 -5
v 0 19 -5
v 0 24 -7
v 0 27 -7
v 20 24 -7
v 20 27 -7
v -20 19 -8
v -20 22 -8
v 0 19 -8
v 0 22 -8
v 0 21 -10
v 0 22 -10
v 0 24 -10
v 20 21 -10
v 20 24 -10
v -20 0 -31
v -20 21 -31
v -20 22 -31
v -20 42 -31
v 20 0 -31
v 20 21 -31
v 20 22 -31
v 20 42 -31
v -20 1 30
v -20 42 30
v -10 9 30
v -10 41 30
v 10 9 30
v 10 41 30
v 20 1 30
v 20 42 30
v 0 0 10
v 0 1 10
v 20 0 10
v 20 1 10
v -20 0 9
v -20 3 9
v 0 0 9
v 0 3 9
v 0 40 7
v 0 43 7
v 20 40 7
v 20 42 7
v 20 43 7
v -20 3 6
v -20 6 6
v 0 3 6
v 0 6 6
v 0 37 4
v 0 40 4
v 20 37 4
v 20 40 4
v -20 6 3
v -20 9 3
v 0 6 3
v 0 9 3
v 0 34 1
v 0 37 1
v 20 34 1
v 20 37 1
v -20 9 -0
v -20 12 -0
v 0 9 -0
v 0 12 -0
v 0 31 -2
v 0 34 -2
v 20 31 -2
v 20 34 -2
v -20 12 -3
v -20 15 -3
v 0 12 -3
v 0 15 -3
v 0 28 -5
v 0 31 -5
v 20 28 -5
v 20 31 -5
v -20 15 -6
v -20 18 -6
v 0 15 -6
v 0 18 -6
v 0 25 -8
v 0 28 -8
v 20 25 -8
v 20 28 -8
v -20 18 -9
v -20 21 -9
v 0 18 -9
v 0 21 -9
v 0 22 -11
v 0 25 -11
v 20 22 -11
v 20 25 -11
v -21 0 -32
v -21 42 -32
v 21 0 -32
v 21 42 -32
v -21 0 31
v 21 0 31
v -20 0 30
v 20 0 30
v -20 0 10
v 0 0 10
v 20 0 10
v -20 0 9
v 0 0 9
v -20 0 -31
v 20 0 -31
v -21 0 -32
v 21 0 -32
v -20 3 9
v 0 3 9
v -20 3 6
v 0 3 6
v -20 6 6
v 0 6 6
v -20 6 3
v 0 6 3
v -20 9 3
v 0 9 3
v -20 9 -0
v 0 9 -0
v -20 12 -0
v 0 12 -0
v -20 12 -3
v 0 12 -3
v -20 15 -3
v 0 15 -3
v -20 15 -6
v 0 15 -6
v -20 18 -6
v 0 18 -6
v -20 18 -9
v 0 18 -9
v -20 21 -9
v 0 21 -9
v 0 21 -10
v 20 21 -10
v -20 21 -11
v 20 21 -11
v -20 21 -31
v 20 21 -31
v 0 24 -7
v 20 24 -7
v 0 24 -10
v 20 24 -10
v 0 27 -4
v 20 27 -4
v 0 27 -7
v 20 27 -7
v 0 30 -1
v 20 30 -1
v 0 30 -4
v 20 30 -4
v 0 33 2
v 20 33 2
v 0 33 -1
v 20 33 -1
v 0 36 5
v 20 36 5
v 0 36 2
v 20 36 2
v 0 39 8
v 20 39 8
v 0 39 5
v 20 39 5
v -10 41 31
v 10 41 31
v -10 41 30
v 10 41 30
v 0 42 10
v 20 42 10
v 0 42 8
v 20 42 8
v -20 1 30
v 20 1 30
v -20 1 10
v 0 1 10
v 20 1 10
v -20 4 10
v 0 4 10
v -20 4 7
v 0 4 7
v -20 7 7
v 0 7 7
v -20 7 4
v 0 7 4
v -10 9 31
v 10 9 31
v -10 9 30
v 10 9 30
v -20 10 4
v 0 10 4
v -20 10 1
v 0 10 1
v -20 13 1
v 0 13 1
v -20 13 -2
v 0 13 -2
v -20 16 -2
v 0 16 -2
v -20 16 -5
v 0 16 -5
v -20 19 -5
v 0 19 -5
v -20 19 -8
v 0 19 -8
v -20 22 -8
v 0 22 -8
v 0 22 -10
v -20 22 -11
v 0 22 -11
v 20 22 -11
v -20 22 -31
v 20 22 -31
v 0 25 -8
v 20 25 -8
v 0 25 -11
v 20 25 -11
v 0 28 -5
v 20 28 -5
v 0 28 -8
v 20 28 -8
v 0 31 -2
v 20 31 -2
v 0 31 -5
v 20 31 -5
v 0 34 1
v 20 34 1
v 0 34 -2
v 20 34 -2
v 0 37 4
v 20 37 4
v 0 37 1
v 20 37 1
v 0 40 7
v 20 40 7
v 0 40 4
v 20 40 4
v -21 42 31
v 21 42 31
v -20 42 30
v 20 42 30
v 20 42 10
v 20 42 7
v -20 42 -31
v 20 42 -31
v -21 42 -32
v 21 42 -32
v 0 43 10
v 20 43 10
v 0 43 7
v 20 43 7

# faces
f 3/1/1 2/1/1 1/1/1
f 4/1/1 2/1/1 3/1/1
f 8/2/1 6/2/1 5/2/1
f 9/2/1 8/2/1 7/2/1
f 10/2/1 6/2/1 8/2/1
f 10/2/1 8/2/1 9/2/1
f 12/2/1 9/2/1 7/2/1
f 13/2/1 12/2/1 11/2/1
f 14/2/1 9/2/1 12/2/1
f 14/2/1 12/2/1 13/2/1
f 16/2/1 13/2/1 11/2/1
f 17/2/1 16/2/1 15/2/1
f 18/2/1 13/2/1 16/2/1
f 18/2/1 16/2/1 17/2/1
f 20/2/1 17/2/1 15/2/1
f 21/2/1 20/2/1 19/2/1
f 22/2/1 17/2/1 20/2/1
f 22/2/1 20/2/1 21/2/1
f 24/2/1 21/2/1 19/2/1
f 25/2/1 24/2/1 23/2/1
f 26/2/1 21/2/1 24/2/1
f 26/2/1 24/2/1 25/2/1
f 28/2/1 25/2/1 23/2/1
f 29/2/1 28/2/1 27/2/1
f 30/2/1 25/2/1 28/2/1
f 30/2/1 28/2/1 29/2/1
f 32/2/1 29/2/1 27/2/1
f 33/2/1 32/2/1 31/2/1
f 34/2/1 29/2/1 32/2/1
f 34/2/1 32/2/1 33/2/1
f 37/1/1 36/1/1 35/1/1
f 38/1/1 36/1/1 37/1/1
f 42/1/1 40/1/1 39/1/1
f 43/1/1 40/1/1 42/1/1
f 43/1/1 42/1/1 41/1/1
f 44/1/1 40/1/1 43/1/1
f 45/1/1 40/1/1 44/1/1
f 48/1/1 43/1/1 41/1/1
f 49/1/1 43/1/1 48/1/1
f 51/1/1 47/1/1 46/1/1
f 52/1/1 48/1/1 41/1/1
f 53/1/1 48/1/1 52/1/1
f 55/1/1 51/1/1 50/1/1
f 56/1/1 52/1/1 41/1/1
f 57/1/1 52/1/1 56/1/1
f 59/1/1 55/1/1 54/1/1
f 60/1/1 56/1/1 41/1/1
f 61/1/1 56/1/1 60/1/1
f 63/1/1 59/1/1 58/1/1
f 64/1/1 60/1/1 41/1/1
f 65/1/1 60/1/1 64/1/1
f 67/1/1 63/1/1 62/1/1
f 68/1/1 64/1/1 41/1/1
f 69/1/1 64/1/1 68/1/1
f 71/1/1 67/1/1 66/1/1
f 72/1/1 68/1/1 41/1/1
f 73/1/1 68/1/1 72/1/1
f 74/1/1 68/1/1 73/1/1
f 75/1/1 71/1/1 70/1/1
f 76/1/1 47/1/1 51/1/1
f 76/1/1 71/1/1 75/1/1
f 76/1/1 51/1/1 55/1/1
f 76/1/1 55/1/1 59/1/1
f 76/1/1 59/1/1 63/1/1
f 76/1/1 67/1/1 71/1/1
f 76/1/1 63/1/1 67/1/1
f 77/1/2 78/1/2 81/1/2
f 81/1/2 78/1/2 82/1/2
f 79/1/2 80/1/2 83/1/2
f 82/1/2 78/1/2 85/1/2
f 85/1/2 78/1/2 86/1/2
f 83/1/2 84/1/2 87/1/2
f 86/1/2 78/1/2 89/1/2
f 89/1/2 78/1/2 90/1/2
f 87/1/2 88/1/2 91/1/2
f 90/1/2 78/1/2 93/1/2
f 93/1/2 78/1/2 94/1/2
f 91/1/2 92/1/2 95/1/2
f 94/1/2 78/1/2 97/1/2
f 97/1/2 78/1/2 98/1/2
f 95/1/2 96/1/2 99/1/2
f 98/1/2 78/1/2 101/1/2
f 101/1/2 78/1/2 102/1/2
f 99/1/2 100/1/2 103/1/2
f 102/1/2 78/1/2 105/1/2
f 105/1/2 78/1/2 106/1/2
f 106/1/2 78/1/2 107/1/2
f 103/1/2 104/1/2 108/1/2
f 79/1/2 83/1/2 111/1/2
f 109/1/2 110/1/2 111/1/2
f 108/1/2 109/1/2 111/1/2
f 103/1/2 108/1/2 111/1/2
f 83/1/2 87/1/2 111/1/2
f 99/1/2 103/1/2 111/1/2
f 87/1/2 91/1/2 111/1/2
f 95/1/2 99/1/2 111/1/2
f 91/1/2 95/1/2 111/1/2
f 111/1/2 110/1/2 112/1/2
f 113/1/2 114/1/2 115/1/2
f 115/1/2 114/1/2 116/1/2
f 117/2/2 118/2/2 119/2/2
f 119/2/2 118/2/2 120/2/2
f 119/2/2 120/2/2 122/2/2
f 120/2/2 121/2/2 122/2/2
f 122/2/2 121/2/2 123/2/2
f 123/2/2 121/2/2 124/2/2
f 123/2/2 124/2/2 126/2/2
f 124/2/2 125/2/2 126/2/2
f 126/2/2 125/2/2 127/2/2
f 127/2/2 125/2/2 128/2/2
f 127/2/2 128/2/2 130/2/2
f 128/2/2 129/2/2 130/2/2
f 130/2/2 129/2/2 131/2/2
f 131/2/2 129/2/2 132/2/2
f 131/2/2 132/2/2 134/2/2
f 132/2/2 133/2/2 134/2/2
f 134/2/2 133/2/2 135/2/2
f 135/2/2 133/2/2 136/2/2
f 135/2/2 136/2/2 138/2/2
f 136/2/2 137/2/2 138/2/2
f 138/2/2 137/2/2 139/2/2
f 139/2/2 137/2/2 140/2/2
f 139/2/2 140/2/2 142/2/2
f 140/2/2 141/2/2 142/2/2
f 142/2/2 141/2/2 143/2/2
f 143/2/2 141/2/2 144/2/2
f 143/2/2 144/2/2 146/2/2
f 144/2/2 145/2/2 146/2/2
f 146/2/2 145/2/2 147/2/2
f 148/2/2 149/2/2 150/2/2
f 150/2/2 149/2/2 151/2/2
f 152/1/2 153/1/2 154/1/2
f 154/1/2 153/1/2 155/1/2
f 158/1/3 157/1/3 156/1/3
f 159/1/3 157/1/3 158/1/3
f 160/1/3 158/1/3 156/1/3
f 161/1/3 157/1/3 159/1/3
f 162/1/3 160/1/3 156/1/3
f 162/1/3 161/1/3 160/1/3
f 163/1/3 157/1/3 161/1/3
f 163/1/3 161/1/3 162/1/3
f 166/2/3 165/2/3 164/2/3
f 167/2/3 165/2/3 166/2/3
f 170/2/3 169/2/3 168/2/3
f 171/2/3 169/2/3 170/2/3
f 174/2/3 173/2/3 172/2/3
f 175/2/3 173/2/3 174/2/3
f 178/2/3 177/2/3 176/2/3
f 179/2/3 177/2/3 178/2/3
f 182/2/3 181/2/3 180/2/3
f 183/2/3 181/2/3 182/2/3
f 186/2/3 185/2/3 184/2/3
f 187/2/3 185/2/3 186/2/3
f 190/2/3 189/2/3 188/2/3
f 191/2/3 189/2/3 190/2/3
f 194/2/3 193/2/3 192/2/3
f 195/2/3 193/2/3 194/2/3
f 198/2/3 197/2/3 196/2/3
f 199/2/3 197/2/3 198/2/3
f 202/2/3 201/2/3 200/2/3
f 203/2/3 201/2/3 202/2/3
f 206/2/3 205/2/3 204/2/3
f 207/2/3 205/2/3 206/2/3
f 210/2/3 209/2/3 208/2/3
f 211/2/3 209/2/3 210/2/3
f 214/2/3 213/2/3 212/2/3
f 215/2/3 213/2/3 214/2/3
f 218/2/3 217/2/3 216/2/3
f 219/2/3 217/2/3 218/2/3
f 223/2/3 221/2/3 220/2/3
f 223/2/3 222/2/3 221/2/3
f 224/2/3 222/2/3 223/2/3
f 229/1/3 226/1/3 225/1/3
f 230/1/3 226/1/3 229/1/3
f 231/1/3 228/1/3 227/1/3
f 232/1/3 228/1/3 231/1/3
f 233/1/4 234/1/4 235/1/4
f 235/1/4 234/1/4 236/1/4
f 233/1/4 235/1/4 237/1/4
f 236/1/4 234/1/4 238/1/4
f 233/1/4 237/1/4 239/1/4
f 237/1/4 238/1/4 239/1/4
f 238/1/4 234/1/4 240/1/4
f 239/1/4 238/1/4 240/1/4
f 241/3/4 242/3/4 243/3/4
f 243/3/4 242/3/4 244/3/4
f 245/2/4 246/2/4 247/2/4
f 247/2/4 246/2/4 248/2/4
f 249/2/4 250/2/4 251/2/4
f 251/2/4 250/2/4 252/2/4
f 252/2/4 250/2/4 253/2/4
f 254/2/4 255/2/4 256/2/4
f 256/2/4 255/2/4 257/2/4
f 258/2/4 259/2/4 260/2/4
f 260/2/4 259/2/4 261/2/4
f 262/2/4 263/2/4 264/2/4
f 264/2/4 263/2/4 265/2/4
f 266/2/4 267/2/4 268/2/4
f 268/2/4 267/2/4 269/2/4
f 270/2/4 271/2/4 272/2/4
f 272/2/4 271/2/4 273/2/4
f 274/2/4 275/2/4 276/2/4
f 276/2/4 275/2/4 277/2/4
f 278/2/4 279/2/4 280/2/4
f 280/2/4 279/2/4 281/2/4
f 282/2/4 283/2/4 284/2/4
f 284/2/4 283/2/4 285/2/4
f 286/2/4 287/2/4 288/2/4
f 288/2/4 287/2/4 289/2/4
f 290/2/4 291/2/4 292/2/4
f 292/2/4 291/2/4 293/2/4
f 294/2/4 295/2/4 296/2/4
f 296/2/4 295/2/4 297/2/4
f 298/2/4 299/2/4 300/2/4
f 300/2/4 299/2/4 301/2/4
f 302/1/4 303/1/4 304/1/4
f 304/1/4 303/1/4 305/1/4
f 308/1/5 307/1/5 306/1/5
f 309/1/5 307/1/5 308/1/5
f 310/1/5 308/1/5 306/1/5
f 310/3/5 309/3/5 308/3/5
f 311/3/5 309/3/5 310/3/5
f 312/1/5 307/1/5 309/1/5
f 312/3/5 309/3/5 311/3/5
f 313/2/5 311/2/5 310/2/5
f 313/1/5 310/1/5 306/1/5
f 314/2/5 311/2/5 313/2/5
f 315/1/5 313/1/5 306/1/5
f 316/1/5 307/1/5 312/1/5
f 317/1/5 315/1/5 306/1/5
f 317/1/5 316/1/5 315/1/5
f 318/1/5 307/1/5 316/1/5
f 318/1/5 316/1/5 317/1/5
f 321/2/5 320/2/5 319/2/5
f 322/2/5 320/2/5 321/2/5
f 325/2/5 324/2/5 323/2/5
f 326/2/5 324/2/5 325/2/5
f 329/2/5 328/2/5 327/2/5
f 330/2/5 328/2/5 329/2/5
f 333/2/5 332/2/5 331/2/5
f 334/2/5 332/2/5 333/2/5
f 337/2/5 336/2/5 335/2/5
f 338/2/5 336/2/5 337/2/5
f 341/2/5 340/2/5 339/2/5
f 342/2/5 340/2/5 341/2/5
f 345/2/5 344/2/5 343/2/5
f 347/2/5 345/2/5 343/2/5
f 347/2/5 346/2/5 345/2/5
f 348/2/5 346/2/5 347/2/5
f 349/3/5 348/3/5 347/3/5
f 350/3/5 348/3/5 349/3/5
f 353/2/5 352/2/5 351/2/5
f 354/2/5 352/2/5 353/2/5
f 357/2/5 356/2/5 355/2/5
f 358/2/5 356/2/5 357/2/5
f 361/2/5 360/2/5 359/2/5
f 362/2/5 360/2/5 361/2/5
f 365/2/5 364/2/5 363/2/5
f 366/2/5 364/2/5 365/2/5
f 369/2/5 368/2/5 367/2/5
f 370/2/5 368/2/5 369/2/5
f 373/2/5 372/2/5 371/2/5
f 374/2/5 372/2/5 373/2/5
f 377/1/5 376/1/5 375/1/5
f 378/1/5 376/1/5 377/1/5
f 381/2/5 380/2/5 379/2/5
f 382/2/5 380/2/5 381/2/5
f 383/3/6 384/3/6 385/3/6
f 385/3/6 384/3/6 386/3/6
f 386/3/6 384/3/6 387/3/6
f 388/2/6 389/2/6 390/2/6
f 390/2/6 389/2/6 391/2/6
f 392/2/6 393/2/6 394/2/6
f 394/2/6 393/2/6 395/2/6
f 396/1/6 397/1/6 398/1/6
f 398/1/6 397/1/6 399/1/6
f 400/2/6 401/2/6 402/2/6
f 402/2/6 401/2/6 403/2/6
f 404/2/6 405/2/6 406/2/6
f 406/2/6 405/2/6 407/2/6
f 408/2/6 409/2/6 410/2/6
f 410/2/6 409/2/6 411/2/6
f 412/2/6 413/2/6 414/2/6
f 414/2/6 413/2/6 415/2/6
f 416/2/6 417/2/6 418/2/6
f 416/2/6 418/2/6 419/2/6
f 419/2/6 418/2/6 420/2/6
f 419/3/6 420/3/6 422/3/6
f 420/3/6 421/3/6 422/3/6
f 422/3/6 421/3/6 423/3/6
f 424/2/6 425/2/6 426/2/6
f 426/2/6 425/2/6 427/2/6
f 428/2/6 429/2/6 430/2/6
f 430/2/6 429/2/6 431/2/6
f 432/2/6 433/2/6 434/2/6
f 434/2/6 433/2/6 435/2/6
f 436/2/6 437/2/6 438/2/6
f 438/2/6 437/2/6 439/2/6
f 440/2/6 441/2/6 442/2/6
f 442/2/6 441/2/6 443/2/6
f 444/2/6 445/2/6 446/2/6
f 446/2/6 445/2/6 447/2/6
f 448/1/6 449/1/6 450/1/6
f 450/1/6 449/1/6 451/1/6
f 451/1/6 449/1/6 452/1/6
f 452/1/6 449/1/6 453/1/6
f 448/1/6 450/1/6 454/1/6
f 453/1/6 449/1/6 455/1/6
f 448/1/6 454/1/6 456/1/6
f 454/1/6 455/1/6 456/1/6
f 455/1/6 449/1/6 457/1/6
f 456/1/6 455/1/6 457/1/6
f 458/2/6 459/2/6 460/2/6
f 460/2/6 459/2/6 461/2/6
