# MagicaVoxel @ Ephtracy

# group
g flower_base

# material
mtllib flower_base.mtl
usemtl palette

# normals
vn -1 0 0
vn 1 0 0
vn 0 0 1
vn 0 0 -1
vn 0 -1 0
vn 0 1 0

# texcoords
vt 0.212891 0.5
vt 0.869141 0.5

# verts
v -5.5 2 5.5
v -5.5 2 -5.5
v -5.5 4 5.5
v -5.5 4 -5.5
v -4.5 0 4.5
v -4.5 0 -4.5
v -4.5 2 4.5
v -4.5 2 -4.5
v -3.5 6 0.5
v -3.5 6 -0.5
v -3.5 7 0.5
v -3.5 7 -0.5
v -1.5 10 0.5
v -1.5 10 -0.5
v -1.5 11 0.5
v -1.5 11 -0.5
v -0.5 2 0.5
v -0.5 2 -0.5
v -0.5 6 0.5
v -0.5 6 -0.5
v -0.5 7 3.5
v -0.5 7 0.5
v -0.5 7 -0.5
v -0.5 7 -3.5
v -0.5 8 3.5
v -0.5 8 0.5
v -0.5 8 -0.5
v -0.5 8 -3.5
v -0.5 10 1.5
v -0.5 10 0.5
v -0.5 10 -0.5
v -0.5 10 -1.5
v -0.5 11 1.5
v -0.5 11 0.5
v -0.5 11 -0.5
v -0.5 11 -1.5
v 3.5 2 3.5
v 3.5 2 -3.5
v 3.5 3 3.5
v 3.5 3 -3.5
v 4.5 3 4.5
v 4.5 3 -4.5
v 4.5 4 4.5
v 4.5 4 -4.5
v -4.5 3 4.5
v -4.5 3 -4.5
v -4.5 4 4.5
v -4.5 4 -4.5
v -3.5 2 3.5
v -3.5 2 -3.5
v -3.5 3 3.5
v -3.5 3 -3.5
v 0.5 2 0.5
v 0.5 2 -0.5
v 0.5 6 0.5
v 0.5 6 -0.5
v 0.5 7 3.5
v 0.5 7 0.5
v 0.5 7 -0.5
v 0.5 7 -3.5
v 0.5 8 3.5
v 0.5 8 0.5
v 0.5 8 -0.5
v 0.5 8 -3.5
v 0.5 10 1.5
v 0.5 10 0.5
v 0.5 10 -0.5
v 0.5 10 -1.5
v 0.5 11 1.5
v 0.5 11 0.5
v 0.5 11 -0.5
v 0.5 11 -1.5
v 1.5 10 0.5
v 1.5 10 -0.5
v 1.5 11 0.5
v 1.5 11 -0.5
v 3.5 6 0.5
v 3.5 6 -0.5
v 3.5 7 0.5
v 3.5 7 -0.5
v 4.5 0 4.5
v 4.5 0 -4.5
v 4.5 2 4.5
v 4.5 2 -4.5
v 5.5 2 5.5
v 5.5 2 -5.5
v 5.5 4 5.5
v 5.5 4 -5.5
v -5.5 2 5.5
v -5.5 4 5.5
v 5.5 2 5.5
v 5.5 4 5.5
v -4.5 0 4.5
v -4.5 2 4.5
v 4.5 0 4.5
v 4.5 2 4.5
v -0.5 7 3.5
v -0.5 8 3.5
v 0.5 7 3.5
v 0.5 8 3.5
v -0.5 10 1.5
v -0.5 11 1.5
v 0.5 10 1.5
v 0.5 11 1.5
v -3.5 6 0.5
v -3.5 7 0.5
v -1.5 10 0.5
v -1.5 11 0.5
v -0.5 2 0.5
v -0.5 6 0.5
v -0.5 7 0.5
v -0.5 8 0.5
v -0.5 10 0.5
v -0.5 11 0.5
v 0.5 2 0.5
v 0.5 6 0.5
v 0.5 7 0.5
v 0.5 8 0.5
v 0.5 10 0.5
v 0.5 11 0.5
v 1.5 10 0.5
v 1.5 11 0.5
v 3.5 6 0.5
v 3.5 7 0.5
v -3.5 2 -3.5
v -3.5 3 -3.5
v 3.5 2 -3.5
v 3.5 3 -3.5
v -4.5 3 -4.5
v -4.5 4 -4.5
v 4.5 3 -4.5
v 4.5 4 -4.5
v -4.5 3 4.5
v -4.5 4 4.5
v 4.5 3 4.5
v 4.5 4 4.5
v -3.5 2 3.5
v -3.5 3 3.5
v 3.5 2 3.5
v 3.5 3 3.5
v -3.5 6 -0.5
v -3.5 7 -0.5
v -1.5 10 -0.5
v -1.5 11 -0.5
v -0.5 2 -0.5
v -0.5 6 -0.5
v -0.5 7 -0.5
v -0.5 8 -0.5
v -0.5 10 -0.5
v -0.5 11 -0.5
v 0.5 2 -0.5
v 0.5 6 -0.5
v 0.5 7 -0.5
v 0.5 8 -0.5
v 0.5 10 -0.5
v 0.5 11 -0.5
v 1.5 10 -0.5
v 1.5 11 -0.5
v 3.5 6 -0.5
v 3.5 7 -0.5
v -0.5 10 -1.5
v -0.5 11 -1.5
v 0.5 10 -1.5
v 0.5 11 -1.5
v -0.5 7 -3.5
v -0.5 8 -3.5
v 0.5 7 -3.5
v 0.5 8 -3.5
v -4.5 0 -4.5
v -4.5 2 -4.5
v 4.5 0 -4.5
v 4.5 2 -4.5
v -5.5 2 -5.5
v -5.5 4 -5.5
v 5.5 2 -5.5
v 5.5 4 -5.5
v -4.5 0 4.5
v 4.5 0 4.5
v -4.5 0 -4.5
v 4.5 0 -4.5
v -5.5 2 5.5
v 5.5 2 5.5
v -4.5 2 4.5
v 4.5 2 4.5
v -4.5 2 -4.5
v 4.5 2 -4.5
v -5.5 2 -5.5
v 5.5 2 -5.5
v -3.5 6 0.5
v -0.5 6 0.5
v 0.5 6 0.5
v 3.5 6 0.5
v -3.5 6 -0.5
v -0.5 6 -0.5
v 0.5 6 -0.5
v 3.5 6 -0.5
v -0.5 7 3.5
v 0.5 7 3.5
v -0.5 7 0.5
v 0.5 7 0.5
v -0.5 7 -0.5
v 0.5 7 -0.5
v -0.5 7 -3.5
v 0.5 7 -3.5
v -0.5 10 1.5
v 0.5 10 1.5
v -1.5 10 0.5
v -0.5 10 0.5
v 0.5 10 0.5
v 1.5 10 0.5
v -1.5 10 -0.5
v -0.5 10 -0.5
v 0.5 10 -0.5
v 1.5 10 -0.5
v -0.5 10 -1.5
v 0.5 10 -1.5
v -3.5 2 3.5
v 3.5 2 3.5
v -0.5 2 0.5
v 0.5 2 0.5
v -0.5 2 -0.5
v 0.5 2 -0.5
v -3.5 2 -3.5
v 3.5 2 -3.5
v -4.5 3 4.5
v 4.5 3 4.5
v -3.5 3 3.5
v 3.5 3 3.5
v -3.5 3 -3.5
v 3.5 3 -3.5
v -4.5 3 -4.5
v 4.5 3 -4.5
v -5.5 4 5.5
v 5.5 4 5.5
v -4.5 4 4.5
v 4.5 4 4.5
v -4.5 4 -4.5
v 4.5 4 -4.5
v -5.5 4 -5.5
v 5.5 4 -5.5
v -3.5 7 0.5
v -0.5 7 0.5
v 0.5 7 0.5
v 3.5 7 0.5
v -3.5 7 -0.5
v -0.5 7 -0.5
v 0.5 7 -0.5
v 3.5 7 -0.5
v -0.5 8 3.5
v 0.5 8 3.5
v -0.5 8 0.5
v 0.5 8 0.5
v -0.5 8 -0.5
v 0.5 8 -0.5
v -0.5 8 -3.5
v 0.5 8 -3.5
v -0.5 11 1.5
v 0.5 11 1.5
v -1.5 11 0.5
v -0.5 11 0.5
v 0.5 11 0.5
v 1.5 11 0.5
v -1.5 11 -0.5
v -0.5 11 -0.5
v 0.5 11 -0.5
v 1.5 11 -0.5
v -0.5 11 -1.5
v 0.5 11 -1.5

# faces
f 3/2/1 2/2/1 1/2/1
f 4/2/1 2/2/1 3/2/1
f 7/2/1 6/2/1 5/2/1
f 8/2/1 6/2/1 7/2/1
f 11/1/1 10/1/1 9/1/1
f 12/1/1 10/1/1 11/1/1
f 15/1/1 14/1/1 13/1/1
f 16/1/1 14/1/1 15/1/1
f 19/1/1 18/1/1 17/1/1
f 20/1/1 18/1/1 19/1/1
f 25/1/1 23/1/1 22/1/1
f 25/1/1 24/1/1 23/1/1
f 25/1/1 22/1/1 21/1/1
f 26/1/1 24/1/1 25/1/1
f 27/1/1 24/1/1 26/1/1
f 28/1/1 24/1/1 27/1/1
f 30/1/1 27/1/1 26/1/1
f 31/1/1 27/1/1 30/1/1
f 33/1/1 30/1/1 29/1/1
f 34/1/1 30/1/1 33/1/1
f 35/1/1 32/1/1 31/1/1
f 36/1/1 32/1/1 35/1/1
f 39/2/1 38/2/1 37/2/1
f 40/2/1 38/2/1 39/2/1
f 43/2/1 42/2/1 41/2/1
f 44/2/1 42/2/1 43/2/1
f 45/2/2 46/2/2 47/2/2
f 47/2/2 46/2/2 48/2/2
f 49/2/2 50/2/2 51/2/2
f 51/2/2 50/2/2 52/2/2
f 53/1/2 54/1/2 55/1/2
f 55/1/2 54/1/2 56/1/2
f 58/1/2 59/1/2 61/1/2
f 59/1/2 60/1/2 61/1/2
f 57/1/2 58/1/2 61/1/2
f 61/1/2 60/1/2 62/1/2
f 62/1/2 60/1/2 63/1/2
f 63/1/2 60/1/2 64/1/2
f 62/1/2 63/1/2 66/1/2
f 66/1/2 63/1/2 67/1/2
f 65/1/2 66/1/2 69/1/2
f 69/1/2 66/1/2 70/1/2
f 67/1/2 68/1/2 71/1/2
f 71/1/2 68/1/2 72/1/2
f 73/1/2 74/1/2 75/1/2
f 75/1/2 74/1/2 76/1/2
f 77/1/2 78/1/2 79/1/2
f 79/1/2 78/1/2 80/1/2
f 81/2/2 82/2/2 83/2/2
f 83/2/2 82/2/2 84/2/2
f 85/2/2 86/2/2 87/2/2
f 87/2/2 86/2/2 88/2/2
f 91/2/3 90/2/3 89/2/3
f 92/2/3 90/2/3 91/2/3
f 95/2/3 94/2/3 93/2/3
f 96/2/3 94/2/3 95/2/3
f 99/1/3 98/1/3 97/1/3
f 100/1/3 98/1/3 99/1/3
f 103/1/3 102/1/3 101/1/3
f 104/1/3 102/1/3 103/1/3
f 110/1/3 106/1/3 105/1/3
f 111/1/3 106/1/3 110/1/3
f 113/1/3 108/1/3 107/1/3
f 114/1/3 108/1/3 113/1/3
f 115/1/3 111/1/3 110/1/3
f 115/1/3 110/1/3 109/1/3
f 116/1/3 111/1/3 115/1/3
f 117/1/3 111/1/3 116/1/3
f 118/1/3 113/1/3 112/1/3
f 119/1/3 113/1/3 118/1/3
f 121/1/3 120/1/3 119/1/3
f 122/1/3 120/1/3 121/1/3
f 123/1/3 117/1/3 116/1/3
f 124/1/3 117/1/3 123/1/3
f 127/2/3 126/2/3 125/2/3
f 128/2/3 126/2/3 127/2/3
f 131/2/3 130/2/3 129/2/3
f 132/2/3 130/2/3 131/2/3
f 133/2/4 134/2/4 135/2/4
f 135/2/4 134/2/4 136/2/4
f 137/2/4 138/2/4 139/2/4
f 139/2/4 138/2/4 140/2/4
f 141/1/4 142/1/4 146/1/4
f 146/1/4 142/1/4 147/1/4
f 143/1/4 144/1/4 149/1/4
f 149/1/4 144/1/4 150/1/4
f 146/1/4 147/1/4 151/1/4
f 145/1/4 146/1/4 151/1/4
f 151/1/4 147/1/4 152/1/4
f 152/1/4 147/1/4 153/1/4
f 148/1/4 149/1/4 154/1/4
f 154/1/4 149/1/4 155/1/4
f 155/1/4 156/1/4 157/1/4
f 157/1/4 156/1/4 158/1/4
f 152/1/4 153/1/4 159/1/4
f 159/1/4 153/1/4 160/1/4
f 161/1/4 162/1/4 163/1/4
f 163/1/4 162/1/4 164/1/4
f 165/1/4 166/1/4 167/1/4
f 167/1/4 166/1/4 168/1/4
f 169/2/4 170/2/4 171/2/4
f 171/2/4 170/2/4 172/2/4
f 173/2/4 174/2/4 175/2/4
f 175/2/4 174/2/4 176/2/4
f 179/2/5 178/2/5 177/2/5
f 180/2/5 178/2/5 179/2/5
f 183/2/5 182/2/5 181/2/5
f 184/2/5 182/2/5 183/2/5
f 185/2/5 183/2/5 181/2/5
f 186/2/5 182/2/5 184/2/5
f 187/2/5 185/2/5 181/2/5
f 187/2/5 186/2/5 185/2/5
f 188/2/5 182/2/5 186/2/5
f 188/2/5 186/2/5 187/2/5
f 193/1/5 190/1/5 189/1/5
f 194/1/5 190/1/5 193/1/5
f 195/1/5 192/1/5 191/1/5
f 196/1/5 192/1/5 195/1/5
f 199/1/5 198/1/5 197/1/5
f 200/1/5 198/1/5 199/1/5
f 203/1/5 202/1/5 201/1/5
f 204/1/5 202/1/5 203/1/5
f 208/1/5 206/1/5 205/1/5
f 209/1/5 206/1/5 208/1/5
f 211/1/5 208/1/5 207/1/5
f 212/1/5 208/1/5 211/1/5
f 213/1/5 210/1/5 209/1/5
f 214/1/5 210/1/5 213/1/5
f 215/1/5 213/1/5 212/1/5
f 216/1/5 213/1/5 215/1/5
f 217/2/6 218/2/6 219/2/6
f 219/2/6 218/2/6 220/2/6
f 217/2/6 219/2/6 221/2/6
f 220/2/6 218/2/6 222/2/6
f 217/2/6 221/2/6 223/2/6
f 221/2/6 222/2/6 223/2/6
f 222/2/6 218/2/6 224/2/6
f 223/2/6 222/2/6 224/2/6
f 225/2/6 226/2/6 227/2/6
f 227/2/6 226/2/6 228/2/6
f 225/2/6 227/2/6 229/2/6
f 228/2/6 226/2/6 230/2/6
f 225/2/6 229/2/6 231/2/6
f 229/2/6 230/2/6 231/2/6
f 230/2/6 226/2/6 232/2/6
f 231/2/6 230/2/6 232/2/6
f 233/2/6 234/2/6 235/2/6
f 235/2/6 234/2/6 236/2/6
f 233/2/6 235/2/6 237/2/6
f 236/2/6 234/2/6 238/2/6
f 233/2/6 237/2/6 239/2/6
f 237/2/6 238/2/6 239/2/6
f 238/2/6 234/2/6 240/2/6
f 239/2/6 238/2/6 240/2/6
f 241/1/6 242/1/6 245/1/6
f 245/1/6 242/1/6 246/1/6
f 243/1/6 244/1/6 247/1/6
f 247/1/6 244/1/6 248/1/6
f 249/1/6 250/1/6 251/1/6
f 251/1/6 250/1/6 252/1/6
f 253/1/6 254/1/6 255/1/6
f 255/1/6 254/1/6 256/1/6
f 257/1/6 258/1/6 260/1/6
f 260/1/6 258/1/6 261/1/6
f 259/1/6 260/1/6 263/1/6
f 261/1/6 262/1/6 263/1/6
f 260/1/6 261/1/6 263/1/6
f 263/1/6 262/1/6 264/1/6
f 264/1/6 262/1/6 265/1/6
f 265/1/6 262/1/6 266/1/6
f 264/1/6 265/1/6 267/1/6
f 267/1/6 265/1/6 268/1/6
