# MagicaVoxel @ Ephtracy

# group
g store_rack_1

# material
mtllib store_rack_1.mtl
usemtl palette

# normals
vn -1 0 0
vn 1 0 0
vn 0 0 1
vn 0 0 -1
vn 0 -1 0
vn 0 1 0

# texcoords
vt 0.248047 0.5
vt 0.904297 0.5

# verts
v 0 1 12
v 0 1 11
v 0 1 -8
v 0 1 -9
v 0 2 11
v 0 2 -8
v 0 3 11
v 0 3 -8
v 0 8 11
v 0 8 -8
v 0 9 11
v 0 9 -8
v 0 14 11
v 0 14 -8
v 0 15 11
v 0 15 -8
v 0 20 11
v 0 20 -8
v 0 21 12
v 0 21 -9
v 5 1 12
v 5 1 11
v 5 1 -8
v 5 1 -9
v 5 2 12
v 5 2 11
v 5 2 -8
v 5 2 -9
v 1 1 12
v 1 1 11
v 1 1 -8
v 1 1 -9
v 1 2 12
v 1 2 11
v 1 2 -8
v 1 2 -9
v 1 3 12
v 1 3 11
v 1 3 -8
v 1 3 -9
v 1 8 12
v 1 8 11
v 1 8 -8
v 1 8 -9
v 1 9 12
v 1 9 11
v 1 9 -8
v 1 9 -9
v 1 14 12
v 1 14 11
v 1 14 -8
v 1 14 -9
v 1 15 12
v 1 15 11
v 1 15 -8
v 1 15 -9
v 1 20 12
v 1 20 11
v 1 20 -8
v 1 20 -9
v 6 1 12
v 6 1 11
v 6 1 -8
v 6 1 -9
v 6 2 12
v 6 2 11
v 6 2 -8
v 6 2 -9
v 6 3 12
v 6 3 -9
v 6 8 12
v 6 8 -9
v 6 9 12
v 6 9 -9
v 6 14 12
v 6 14 -9
v 6 15 12
v 6 15 -9
v 6 20 12
v 6 20 -9
v 6 21 12
v 6 21 -9
v 0 1 12
v 0 21 12
v 1 1 12
v 1 2 12
v 1 3 12
v 1 8 12
v 1 9 12
v 1 14 12
v 1 15 12
v 1 20 12
v 1 21 12
v 5 1 12
v 5 2 12
v 6 1 12
v 6 2 12
v 6 3 12
v 6 8 12
v 6 9 12
v 6 14 12
v 6 15 12
v 6 20 12
v 6 21 12
v 0 1 -8
v 0 2 -8
v 1 1 -8
v 1 2 -8
v 5 1 -8
v 5 2 -8
v 6 1 -8
v 6 2 -8
v 0 1 11
v 0 2 11
v 1 1 11
v 1 2 11
v 5 1 11
v 5 2 11
v 6 1 11
v 6 2 11
v 0 1 -9
v 0 21 -9
v 1 1 -9
v 1 2 -9
v 1 3 -9
v 1 8 -9
v 1 9 -9
v 1 14 -9
v 1 15 -9
v 1 20 -9
v 1 21 -9
v 5 1 -9
v 5 2 -9
v 6 1 -9
v 6 2 -9
v 6 3 -9
v 6 8 -9
v 6 9 -9
v 6 14 -9
v 6 15 -9
v 6 20 -9
v 6 21 -9
v 0 1 12
v 1 1 12
v 5 1 12
v 6 1 12
v 0 1 11
v 1 1 11
v 5 1 11
v 6 1 11
v 0 1 -8
v 1 1 -8
v 5 1 -8
v 6 1 -8
v 0 1 -9
v 1 1 -9
v 5 1 -9
v 6 1 -9
v 1 2 12
v 5 2 12
v 0 2 11
v 1 2 11
v 5 2 11
v 6 2 11
v 0 2 -8
v 1 2 -8
v 5 2 -8
v 6 2 -8
v 1 2 -9
v 5 2 -9
v 1 8 12
v 6 8 12
v 1 8 11
v 1 8 -8
v 1 8 -9
v 6 8 -9
v 1 14 12
v 6 14 12
v 1 14 11
v 1 14 -8
v 1 14 -9
v 6 14 -9
v 1 20 12
v 6 20 12
v 1 20 11
v 1 20 -8
v 1 20 -9
v 6 20 -9
v 1 3 12
v 6 3 12
v 1 3 11
v 1 3 -8
v 1 3 -9
v 6 3 -9
v 1 9 12
v 6 9 12
v 1 9 11
v 1 9 -8
v 1 9 -9
v 6 9 -9
v 1 15 12
v 6 15 12
v 1 15 11
v 1 15 -8
v 1 15 -9
v 6 15 -9
v 0 21 12
v 1 21 12
v 6 21 12
v 0 21 -9
v 1 21 -9
v 6 21 -9

# faces
f 5/2/1 2/2/1 1/2/1
f 6/2/1 4/2/1 3/2/1
f 7/2/1 5/2/1 1/2/1
f 7/2/1 6/2/1 5/2/1
f 8/2/1 4/2/1 6/2/1
f 8/2/1 6/2/1 7/2/1
f 9/2/1 7/2/1 1/2/1
f 9/1/1 8/1/1 7/1/1
f 10/2/1 4/2/1 8/2/1
f 10/1/1 8/1/1 9/1/1
f 11/2/1 9/2/1 1/2/1
f 11/2/1 10/2/1 9/2/1
f 12/2/1 4/2/1 10/2/1
f 12/2/1 10/2/1 11/2/1
f 13/2/1 11/2/1 1/2/1
f 13/1/1 12/1/1 11/1/1
f 14/2/1 4/2/1 12/2/1
f 14/1/1 12/1/1 13/1/1
f 15/2/1 13/2/1 1/2/1
f 15/2/1 14/2/1 13/2/1
f 16/2/1 4/2/1 14/2/1
f 16/2/1 14/2/1 15/2/1
f 17/2/1 15/2/1 1/2/1
f 17/1/1 16/1/1 15/1/1
f 18/2/1 4/2/1 16/2/1
f 18/1/1 16/1/1 17/1/1
f 19/2/1 17/2/1 1/2/1
f 19/2/1 18/2/1 17/2/1
f 20/2/1 4/2/1 18/2/1
f 20/2/1 18/2/1 19/2/1
f 25/2/1 22/2/1 21/2/1
f 26/2/1 22/2/1 25/2/1
f 27/2/1 24/2/1 23/2/1
f 28/2/1 24/2/1 27/2/1
f 29/2/2 30/2/2 33/2/2
f 33/2/2 30/2/2 34/2/2
f 31/2/2 32/2/2 35/2/2
f 35/2/2 32/2/2 36/2/2
f 37/2/2 38/2/2 41/2/2
f 38/1/2 39/1/2 42/1/2
f 41/2/2 38/2/2 42/2/2
f 39/2/2 40/2/2 43/2/2
f 42/1/2 39/1/2 43/1/2
f 43/2/2 40/2/2 44/2/2
f 45/2/2 46/2/2 49/2/2
f 46/1/2 47/1/2 50/1/2
f 49/2/2 46/2/2 50/2/2
f 47/2/2 48/2/2 51/2/2
f 50/1/2 47/1/2 51/1/2
f 51/2/2 48/2/2 52/2/2
f 53/2/2 54/2/2 57/2/2
f 54/1/2 55/1/2 58/1/2
f 57/2/2 54/2/2 58/2/2
f 55/2/2 56/2/2 59/2/2
f 58/1/2 55/1/2 59/1/2
f 59/2/2 56/2/2 60/2/2
f 61/2/2 62/2/2 65/2/2
f 65/2/2 62/2/2 66/2/2
f 63/2/2 64/2/2 67/2/2
f 67/2/2 64/2/2 68/2/2
f 65/1/2 66/1/2 69/1/2
f 66/1/2 67/1/2 69/1/2
f 67/1/2 68/1/2 69/1/2
f 69/1/2 68/1/2 70/1/2
f 71/1/2 72/1/2 73/1/2
f 73/1/2 72/1/2 74/1/2
f 75/1/2 76/1/2 77/1/2
f 77/1/2 76/1/2 78/1/2
f 79/1/2 80/1/2 81/1/2
f 81/1/2 80/1/2 82/1/2
f 85/2/3 84/2/3 83/2/3
f 86/2/3 84/2/3 85/2/3
f 87/2/3 84/2/3 86/2/3
f 88/2/3 84/2/3 87/2/3
f 89/2/3 84/2/3 88/2/3
f 90/2/3 84/2/3 89/2/3
f 91/2/3 84/2/3 90/2/3
f 92/2/3 84/2/3 91/2/3
f 93/2/3 84/2/3 92/2/3
f 95/1/3 87/1/3 86/1/3
f 96/2/3 95/2/3 94/2/3
f 97/1/3 87/1/3 95/1/3
f 97/2/3 95/2/3 96/2/3
f 98/1/3 87/1/3 97/1/3
f 99/1/3 89/1/3 88/1/3
f 100/1/3 89/1/3 99/1/3
f 101/1/3 91/1/3 90/1/3
f 102/1/3 91/1/3 101/1/3
f 103/1/3 93/1/3 92/1/3
f 104/1/3 93/1/3 103/1/3
f 107/2/3 106/2/3 105/2/3
f 108/2/3 106/2/3 107/2/3
f 111/2/3 110/2/3 109/2/3
f 112/2/3 110/2/3 111/2/3
f 113/2/4 114/2/4 115/2/4
f 115/2/4 114/2/4 116/2/4
f 117/2/4 118/2/4 119/2/4
f 119/2/4 118/2/4 120/2/4
f 121/2/4 122/2/4 123/2/4
f 123/2/4 122/2/4 124/2/4
f 124/2/4 122/2/4 125/2/4
f 125/2/4 122/2/4 126/2/4
f 126/2/4 122/2/4 127/2/4
f 127/2/4 122/2/4 128/2/4
f 128/2/4 122/2/4 129/2/4
f 129/2/4 122/2/4 130/2/4
f 130/2/4 122/2/4 131/2/4
f 124/1/4 125/1/4 133/1/4
f 132/2/4 133/2/4 134/2/4
f 133/1/4 125/1/4 135/1/4
f 134/2/4 133/2/4 135/2/4
f 135/1/4 125/1/4 136/1/4
f 126/1/4 127/1/4 137/1/4
f 137/1/4 127/1/4 138/1/4
f 128/1/4 129/1/4 139/1/4
f 139/1/4 129/1/4 140/1/4
f 130/1/4 131/1/4 141/1/4
f 141/1/4 131/1/4 142/1/4
f 147/2/5 144/2/5 143/2/5
f 148/2/5 144/2/5 147/2/5
f 149/2/5 146/2/5 145/2/5
f 150/2/5 146/2/5 149/2/5
f 155/2/5 152/2/5 151/2/5
f 156/2/5 152/2/5 155/2/5
f 157/2/5 154/2/5 153/2/5
f 158/2/5 154/2/5 157/2/5
f 162/1/5 160/1/5 159/1/5
f 163/1/5 160/1/5 162/1/5
f 165/2/5 162/2/5 161/2/5
f 166/1/5 164/1/5 163/1/5
f 166/2/5 162/2/5 165/2/5
f 166/1/5 163/1/5 162/1/5
f 167/1/5 164/1/5 166/1/5
f 168/1/5 164/1/5 167/1/5
f 169/1/5 167/1/5 166/1/5
f 170/1/5 167/1/5 169/1/5
f 173/1/5 172/1/5 171/1/5
f 174/1/5 172/1/5 173/1/5
f 175/1/5 172/1/5 174/1/5
f 176/1/5 172/1/5 175/1/5
f 179/1/5 178/1/5 177/1/5
f 180/1/5 178/1/5 179/1/5
f 181/1/5 178/1/5 180/1/5
f 182/1/5 178/1/5 181/1/5
f 185/1/5 184/1/5 183/1/5
f 186/1/5 184/1/5 185/1/5
f 187/1/5 184/1/5 186/1/5
f 188/1/5 184/1/5 187/1/5
f 189/1/6 190/1/6 191/1/6
f 191/1/6 190/1/6 192/1/6
f 192/1/6 190/1/6 193/1/6
f 193/1/6 190/1/6 194/1/6
f 195/1/6 196/1/6 197/1/6
f 197/1/6 196/1/6 198/1/6
f 198/1/6 196/1/6 199/1/6
f 199/1/6 196/1/6 200/1/6
f 201/1/6 202/1/6 203/1/6
f 203/1/6 202/1/6 204/1/6
f 204/1/6 202/1/6 205/1/6
f 205/1/6 202/1/6 206/1/6
f 207/2/6 208/2/6 210/2/6
f 208/1/6 209/1/6 211/1/6
f 210/2/6 208/2/6 211/2/6
f 211/1/6 209/1/6 212/1/6
