# MagicaVoxel @ Ephtracy

# group
g store_rack_3

# material
mtllib store_rack_3.mtl
usemtl palette

# normals
vn -1 0 0
vn 1 0 0
vn 0 0 1
vn 0 0 -1
vn 0 -1 0
vn 0 1 0

# texcoords
vt 0.154297 0.5
vt 0.904297 0.5

# verts
v -20 0 -1
v -20 0 -2
v -20 20 -1
v -20 20 -2
v -13 0 4
v -13 0 3
v -13 1 3
v -13 1 -1
v -13 2 4
v -13 2 -1
v -13 2 -2
v -13 7 -1
v -13 7 -2
v -13 8 -1
v -13 8 -2
v -13 12 -1
v -13 12 -2
v -13 13 -1
v -13 13 -2
v -13 16 -1
v -13 16 -2
v -13 17 -1
v -13 17 -2
v -13 19 -1
v -13 19 -2
v -12 7 4
v -12 7 -1
v -12 8 4
v -12 8 -1
v -12 12 3
v -12 12 -1
v -12 13 3
v -12 13 -1
v -12 16 3
v -12 16 -1
v -12 17 3
v -12 17 -1
v -12 19 2
v -12 19 -1
v -12 20 2
v -12 20 -1
v 12 0 4
v 12 0 3
v 12 1 4
v 12 1 3
v 12 2 -1
v 12 2 -2
v 12 7 -1
v 12 7 -2
v 12 8 -1
v 12 8 -2
v 12 12 -1
v 12 12 -2
v 12 13 -1
v 12 13 -2
v 12 16 -1
v 12 16 -2
v 12 17 -1
v 12 17 -2
v 12 19 -1
v 12 19 -2
v 19 0 -1
v 19 0 -2
v 19 1 -1
v 19 1 -2
v 19 2 -1
v 19 2 -2
v 19 7 -1
v 19 7 -2
v 19 8 -1
v 19 8 -2
v 19 12 -1
v 19 12 -2
v 19 13 -1
v 19 13 -2
v 19 16 -1
v 19 16 -2
v 19 17 -1
v 19 17 -2
v 19 19 -1
v 19 19 -2
v -19 0 -1
v -19 0 -2
v -19 1 -1
v -19 1 -2
v -19 2 -1
v -19 2 -2
v -19 7 -1
v -19 7 -2
v -19 8 -1
v -19 8 -2
v -19 12 -1
v -19 12 -2
v -19 13 -1
v -19 13 -2
v -19 16 -1
v -19 16 -2
v -19 17 -1
v -19 17 -2
v -19 19 -1
v -19 19 -2
v -12 0 4
v -12 0 3
v -12 1 4
v -12 1 3
v -12 2 -1
v -12 2 -2
v -12 7 -1
v -12 7 -2
v -12 8 -1
v -12 8 -2
v -12 12 -1
v -12 12 -2
v -12 13 -1
v -12 13 -2
v -12 16 -1
v -12 16 -2
v -12 17 -1
v -12 17 -2
v -12 19 -1
v -12 19 -2
v 12 7 4
v 12 7 -1
v 12 8 4
v 12 8 -1
v 12 12 3
v 12 12 -1
v 12 13 3
v 12 13 -1
v 12 16 3
v 12 16 -1
v 12 17 3
v 12 17 -1
v 12 19 2
v 12 19 -1
v 12 20 2
v 12 20 -1
v 13 0 4
v 13 0 3
v 13 1 3
v 13 1 -1
v 13 2 4
v 13 2 -1
v 13 2 -2
v 13 7 -1
v 13 7 -2
v 13 8 -1
v 13 8 -2
v 13 12 -1
v 13 12 -2
v 13 13 -1
v 13 13 -2
v 13 16 -1
v 13 16 -2
v 13 17 -1
v 13 17 -2
v 13 19 -1
v 13 19 -2
v 20 0 -1
v 20 0 -2
v 20 20 -1
v 20 20 -2
v -13 0 4
v -13 2 4
v -12 0 4
v -12 1 4
v -12 2 4
v -12 7 4
v -12 8 4
v 12 0 4
v 12 1 4
v 12 2 4
v 12 7 4
v 12 8 4
v 13 0 4
v 13 2 4
v -12 12 3
v -12 13 3
v -12 16 3
v -12 17 3
v 12 12 3
v 12 13 3
v 12 16 3
v 12 17 3
v -12 19 2
v -12 20 2
v 12 19 2
v 12 20 2
v -20 0 -1
v -20 20 -1
v -19 0 -1
v -19 1 -1
v -19 2 -1
v -19 7 -1
v -19 8 -1
v -19 12 -1
v -19 13 -1
v -19 16 -1
v -19 17 -1
v -19 19 -1
v -13 1 -1
v -13 2 -1
v -13 7 -1
v -13 8 -1
v -13 12 -1
v -13 13 -1
v -13 16 -1
v -13 17 -1
v -13 19 -1
v -12 2 -1
v -12 7 -1
v -12 8 -1
v -12 12 -1
v -12 13 -1
v -12 16 -1
v -12 17 -1
v -12 19 -1
v -12 20 -1
v 12 2 -1
v 12 7 -1
v 12 8 -1
v 12 12 -1
v 12 13 -1
v 12 16 -1
v 12 17 -1
v 12 19 -1
v 12 20 -1
v 13 1 -1
v 13 2 -1
v 13 7 -1
v 13 8 -1
v 13 12 -1
v 13 13 -1
v 13 16 -1
v 13 17 -1
v 13 19 -1
v 19 0 -1
v 19 1 -1
v 19 2 -1
v 19 7 -1
v 19 8 -1
v 19 12 -1
v 19 13 -1
v 19 16 -1
v 19 17 -1
v 19 19 -1
v 20 0 -1
v 20 20 -1
v -13 0 3
v -13 1 3
v -12 0 3
v -12 1 3
v 12 0 3
v 12 1 3
v 13 0 3
v 13 1 3
v -20 0 -2
v -20 20 -2
v -19 0 -2
v -19 1 -2
v -19 2 -2
v -19 7 -2
v -19 8 -2
v -19 12 -2
v -19 13 -2
v -19 16 -2
v -19 17 -2
v -19 19 -2
v -13 2 -2
v -13 7 -2
v -13 8 -2
v -13 12 -2
v -13 13 -2
v -13 16 -2
v -13 17 -2
v -13 19 -2
v -12 2 -2
v -12 7 -2
v -12 8 -2
v -12 12 -2
v -12 13 -2
v -12 16 -2
v -12 17 -2
v -12 19 -2
v 12 2 -2
v 12 7 -2
v 12 8 -2
v 12 12 -2
v 12 13 -2
v 12 16 -2
v 12 17 -2
v 12 19 -2
v 13 2 -2
v 13 7 -2
v 13 8 -2
v 13 12 -2
v 13 13 -2
v 13 16 -2
v 13 17 -2
v 13 19 -2
v 19 0 -2
v 19 1 -2
v 19 2 -2
v 19 7 -2
v 19 8 -2
v 19 12 -2
v 19 13 -2
v 19 16 -2
v 19 17 -2
v 19 19 -2
v 20 0 -2
v 20 20 -2
v -13 0 4
v -12 0 4
v 12 0 4
v 13 0 4
v -13 0 3
v -12 0 3
v 12 0 3
v 13 0 3
v -20 0 -1
v -19 0 -1
v 19 0 -1
v 20 0 -1
v -20 0 -2
v -19 0 -2
v 19 0 -2
v 20 0 -2
v -12 1 4
v 12 1 4
v -13 1 3
v -12 1 3
v 12 1 3
v 13 1 3
v -19 1 -1
v -13 1 -1
v -12 1 -1
v 12 1 -1
v 13 1 -1
v 19 1 -1
v -19 1 -2
v 19 1 -2
v -12 7 4
v 12 7 4
v -19 7 -1
v -13 7 -1
v -12 7 -1
v 12 7 -1
v 13 7 -1
v 19 7 -1
v -19 7 -2
v -13 7 -2
v -12 7 -2
v 12 7 -2
v 13 7 -2
v 19 7 -2
v -12 12 3
v 12 12 3
v -19 12 -1
v -13 12 -1
v -12 12 -1
v 12 12 -1
v 13 12 -1
v 19 12 -1
v -19 12 -2
v -13 12 -2
v -12 12 -2
v 12 12 -2
v 13 12 -2
v 19 12 -2
v -12 16 3
v 12 16 3
v -19 16 -1
v -13 16 -1
v -12 16 -1
v 12 16 -1
v 13 16 -1
v 19 16 -1
v -19 16 -2
v -13 16 -2
v -12 16 -2
v 12 16 -2
v 13 16 -2
v 19 16 -2
v -12 19 2
v 12 19 2
v -19 19 -1
v -13 19 -1
v -12 19 -1
v 12 19 -1
v 13 19 -1
v 19 19 -1
v -19 19 -2
v -13 19 -2
v -12 19 -2
v 12 19 -2
v 13 19 -2
v 19 19 -2
v -13 2 4
v -12 2 4
v 12 2 4
v 13 2 4
v -19 2 -1
v -13 2 -1
v -12 2 -1
v 12 2 -1
v 13 2 -1
v 19 2 -1
v -19 2 -2
v -13 2 -2
v -12 2 -2
v 12 2 -2
v 13 2 -2
v 19 2 -2
v -12 8 4
v 12 8 4
v -19 8 -1
v -13 8 -1
v -12 8 -1
v 12 8 -1
v 13 8 -1
v 19 8 -1
v -19 8 -2
v -13 8 -2
v -12 8 -2
v 12 8 -2
v 13 8 -2
v 19 8 -2
v -12 13 3
v 12 13 3
v -19 13 -1
v -13 13 -1
v -12 13 -1
v 12 13 -1
v 13 13 -1
v 19 13 -1
v -19 13 -2
v -13 13 -2
v -12 13 -2
v 12 13 -2
v 13 13 -2
v 19 13 -2
v -12 17 3
v 12 17 3
v -19 17 -1
v -13 17 -1
v -12 17 -1
v 12 17 -1
v 13 17 -1
v 19 17 -1
v -19 17 -2
v -13 17 -2
v -12 17 -2
v 12 17 -2
v 13 17 -2
v 19 17 -2
v -12 20 2
v 12 20 2
v -20 20 -1
v -12 20 -1
v 12 20 -1
v 20 20 -1
v -20 20 -2
v 20 20 -2

# faces
f 3/2/1 2/2/1 1/2/1
f 4/2/1 2/2/1 3/2/1
f 7/2/1 6/2/1 5/2/1
f 9/2/1 7/2/1 5/2/1
f 9/2/1 8/2/1 7/2/1
f 10/2/1 8/2/1 9/2/1
f 12/2/1 11/2/1 10/2/1
f 13/2/1 11/2/1 12/2/1
f 16/2/1 15/2/1 14/2/1
f 17/2/1 15/2/1 16/2/1
f 20/2/1 19/2/1 18/2/1
f 21/2/1 19/2/1 20/2/1
f 24/2/1 23/2/1 22/2/1
f 25/2/1 23/2/1 24/2/1
f 28/1/1 27/1/1 26/1/1
f 29/1/1 27/1/1 28/1/1
f 32/1/1 31/1/1 30/1/1
f 33/1/1 31/1/1 32/1/1
f 36/1/1 35/1/1 34/1/1
f 37/1/1 35/1/1 36/1/1
f 40/1/1 39/1/1 38/1/1
f 41/1/1 39/1/1 40/1/1
f 44/2/1 43/2/1 42/2/1
f 45/2/1 43/2/1 44/2/1
f 48/2/1 47/2/1 46/2/1
f 49/2/1 47/2/1 48/2/1
f 52/2/1 51/2/1 50/2/1
f 53/2/1 51/2/1 52/2/1
f 56/2/1 55/2/1 54/2/1
f 57/2/1 55/2/1 56/2/1
f 60/2/1 59/2/1 58/2/1
f 61/2/1 59/2/1 60/2/1
f 64/2/1 63/2/1 62/2/1
f 65/2/1 63/2/1 64/2/1
f 68/2/1 67/2/1 66/2/1
f 69/2/1 67/2/1 68/2/1
f 72/2/1 71/2/1 70/2/1
f 73/2/1 71/2/1 72/2/1
f 76/2/1 75/2/1 74/2/1
f 77/2/1 75/2/1 76/2/1
f 80/2/1 79/2/1 78/2/1
f 81/2/1 79/2/1 80/2/1
f 82/2/2 83/2/2 84/2/2
f 84/2/2 83/2/2 85/2/2
f 86/2/2 87/2/2 88/2/2
f 88/2/2 87/2/2 89/2/2
f 90/2/2 91/2/2 92/2/2
f 92/2/2 91/2/2 93/2/2
f 94/2/2 95/2/2 96/2/2
f 96/2/2 95/2/2 97/2/2
f 98/2/2 99/2/2 100/2/2
f 100/2/2 99/2/2 101/2/2
f 102/2/2 103/2/2 104/2/2
f 104/2/2 103/2/2 105/2/2
f 106/2/2 107/2/2 108/2/2
f 108/2/2 107/2/2 109/2/2
f 110/2/2 111/2/2 112/2/2
f 112/2/2 111/2/2 113/2/2
f 114/2/2 115/2/2 116/2/2
f 116/2/2 115/2/2 117/2/2
f 118/2/2 119/2/2 120/2/2
f 120/2/2 119/2/2 121/2/2
f 122/1/2 123/1/2 124/1/2
f 124/1/2 123/1/2 125/1/2
f 126/1/2 127/1/2 128/1/2
f 128/1/2 127/1/2 129/1/2
f 130/1/2 131/1/2 132/1/2
f 132/1/2 131/1/2 133/1/2
f 134/1/2 135/1/2 136/1/2
f 136/1/2 135/1/2 137/1/2
f 138/2/2 139/2/2 140/2/2
f 138/2/2 140/2/2 142/2/2
f 140/2/2 141/2/2 142/2/2
f 142/2/2 141/2/2 143/2/2
f 143/2/2 144/2/2 145/2/2
f 145/2/2 144/2/2 146/2/2
f 147/2/2 148/2/2 149/2/2
f 149/2/2 148/2/2 150/2/2
f 151/2/2 152/2/2 153/2/2
f 153/2/2 152/2/2 154/2/2
f 155/2/2 156/2/2 157/2/2
f 157/2/2 156/2/2 158/2/2
f 159/2/2 160/2/2 161/2/2
f 161/2/2 160/2/2 162/2/2
f 165/2/3 164/2/3 163/2/3
f 166/2/3 164/2/3 165/2/3
f 167/2/3 164/2/3 166/2/3
f 171/1/3 167/1/3 166/1/3
f 172/1/3 167/1/3 171/1/3
f 173/1/3 169/1/3 168/1/3
f 174/1/3 169/1/3 173/1/3
f 175/2/3 172/2/3 171/2/3
f 175/2/3 171/2/3 170/2/3
f 176/2/3 172/2/3 175/2/3
f 181/1/3 178/1/3 177/1/3
f 182/1/3 178/1/3 181/1/3
f 183/1/3 180/1/3 179/1/3
f 184/1/3 180/1/3 183/1/3
f 187/1/3 186/1/3 185/1/3
f 188/1/3 186/1/3 187/1/3
f 191/2/3 190/2/3 189/2/3
f 192/2/3 190/2/3 191/2/3
f 193/2/3 190/2/3 192/2/3
f 194/2/3 190/2/3 193/2/3
f 195/2/3 190/2/3 194/2/3
f 196/2/3 190/2/3 195/2/3
f 197/2/3 190/2/3 196/2/3
f 198/2/3 190/2/3 197/2/3
f 199/2/3 190/2/3 198/2/3
f 200/2/3 190/2/3 199/2/3
f 201/2/3 193/2/3 192/2/3
f 202/2/3 193/2/3 201/2/3
f 203/2/3 195/2/3 194/2/3
f 204/2/3 195/2/3 203/2/3
f 205/2/3 197/2/3 196/2/3
f 206/2/3 197/2/3 205/2/3
f 207/2/3 199/2/3 198/2/3
f 208/2/3 199/2/3 207/2/3
f 209/2/3 190/2/3 200/2/3
f 210/2/3 208/2/3 207/2/3
f 210/2/3 209/2/3 208/2/3
f 210/2/3 206/2/3 205/2/3
f 210/2/3 204/2/3 203/2/3
f 210/2/3 207/2/3 206/2/3
f 210/2/3 205/2/3 204/2/3
f 210/2/3 203/2/3 202/2/3
f 211/2/3 209/2/3 210/2/3
f 212/2/3 209/2/3 211/2/3
f 213/2/3 209/2/3 212/2/3
f 214/2/3 209/2/3 213/2/3
f 215/2/3 209/2/3 214/2/3
f 216/2/3 209/2/3 215/2/3
f 217/2/3 190/2/3 209/2/3
f 217/2/3 209/2/3 216/2/3
f 218/2/3 190/2/3 217/2/3
f 229/2/3 220/2/3 219/2/3
f 229/2/3 227/2/3 226/2/3
f 229/2/3 226/2/3 225/2/3
f 229/2/3 225/2/3 224/2/3
f 229/2/3 224/2/3 223/2/3
f 229/2/3 223/2/3 222/2/3
f 229/2/3 222/2/3 221/2/3
f 229/2/3 221/2/3 220/2/3
f 230/2/3 227/2/3 229/2/3
f 231/2/3 227/2/3 230/2/3
f 232/2/3 227/2/3 231/2/3
f 233/2/3 227/2/3 232/2/3
f 234/2/3 227/2/3 233/2/3
f 235/2/3 227/2/3 234/2/3
f 236/2/3 227/2/3 235/2/3
f 238/2/3 229/2/3 228/2/3
f 239/2/3 229/2/3 238/2/3
f 240/2/3 231/2/3 230/2/3
f 241/2/3 231/2/3 240/2/3
f 242/2/3 233/2/3 232/2/3
f 243/2/3 233/2/3 242/2/3
f 244/2/3 235/2/3 234/2/3
f 245/2/3 235/2/3 244/2/3
f 246/2/3 227/2/3 236/2/3
f 247/2/3 241/2/3 240/2/3
f 247/2/3 246/2/3 245/2/3
f 247/2/3 245/2/3 244/2/3
f 247/2/3 239/2/3 238/2/3
f 247/2/3 244/2/3 243/2/3
f 247/2/3 243/2/3 242/2/3
f 247/2/3 242/2/3 241/2/3
f 247/2/3 238/2/3 237/2/3
f 247/2/3 240/2/3 239/2/3
f 248/2/3 227/2/3 246/2/3
f 248/2/3 246/2/3 247/2/3
f 249/2/4 250/2/4 251/2/4
f 251/2/4 250/2/4 252/2/4
f 253/2/4 254/2/4 255/2/4
f 255/2/4 254/2/4 256/2/4
f 257/2/4 258/2/4 259/2/4
f 259/2/4 258/2/4 260/2/4
f 260/2/4 258/2/4 261/2/4
f 261/2/4 258/2/4 262/2/4
f 262/2/4 258/2/4 263/2/4
f 263/2/4 258/2/4 264/2/4
f 264/2/4 258/2/4 265/2/4
f 265/2/4 258/2/4 266/2/4
f 266/2/4 258/2/4 267/2/4
f 267/2/4 258/2/4 268/2/4
f 260/2/4 261/2/4 269/2/4
f 262/2/4 263/2/4 270/2/4
f 270/2/4 263/2/4 271/2/4
f 264/2/4 265/2/4 272/2/4
f 272/2/4 265/2/4 273/2/4
f 266/2/4 267/2/4 274/2/4
f 274/2/4 267/2/4 275/2/4
f 268/2/4 258/2/4 276/2/4
f 274/2/4 275/2/4 277/2/4
f 275/2/4 276/2/4 277/2/4
f 272/2/4 273/2/4 277/2/4
f 270/2/4 271/2/4 277/2/4
f 273/2/4 274/2/4 277/2/4
f 260/2/4 269/2/4 277/2/4
f 271/2/4 272/2/4 277/2/4
f 269/2/4 270/2/4 277/2/4
f 277/2/4 276/2/4 278/2/4
f 278/2/4 276/2/4 279/2/4
f 279/2/4 276/2/4 280/2/4
f 280/2/4 276/2/4 281/2/4
f 281/2/4 276/2/4 282/2/4
f 282/2/4 276/2/4 283/2/4
f 276/2/4 258/2/4 284/2/4
f 283/2/4 276/2/4 284/2/4
f 260/2/4 277/2/4 285/2/4
f 278/2/4 279/2/4 286/2/4
f 286/2/4 279/2/4 287/2/4
f 280/2/4 281/2/4 288/2/4
f 288/2/4 281/2/4 289/2/4
f 282/2/4 283/2/4 290/2/4
f 290/2/4 283/2/4 291/2/4
f 284/2/4 258/2/4 292/2/4
f 288/2/4 289/2/4 293/2/4
f 291/2/4 292/2/4 293/2/4
f 290/2/4 291/2/4 293/2/4
f 286/2/4 287/2/4 293/2/4
f 289/2/4 290/2/4 293/2/4
f 260/2/4 285/2/4 293/2/4
f 287/2/4 288/2/4 293/2/4
f 285/2/4 286/2/4 293/2/4
f 293/2/4 292/2/4 294/2/4
f 294/2/4 292/2/4 295/2/4
f 295/2/4 292/2/4 296/2/4
f 296/2/4 292/2/4 297/2/4
f 297/2/4 292/2/4 298/2/4
f 298/2/4 292/2/4 299/2/4
f 292/2/4 258/2/4 300/2/4
f 299/2/4 292/2/4 300/2/4
f 260/2/4 293/2/4 302/2/4
f 302/2/4 293/2/4 303/2/4
f 294/2/4 295/2/4 304/2/4
f 304/2/4 295/2/4 305/2/4
f 296/2/4 297/2/4 306/2/4
f 306/2/4 297/2/4 307/2/4
f 298/2/4 299/2/4 308/2/4
f 308/2/4 299/2/4 309/2/4
f 300/2/4 258/2/4 310/2/4
f 306/2/4 307/2/4 311/2/4
f 309/2/4 310/2/4 311/2/4
f 304/2/4 305/2/4 311/2/4
f 308/2/4 309/2/4 311/2/4
f 307/2/4 308/2/4 311/2/4
f 302/2/4 303/2/4 311/2/4
f 305/2/4 306/2/4 311/2/4
f 301/2/4 302/2/4 311/2/4
f 303/2/4 304/2/4 311/2/4
f 310/2/4 258/2/4 312/2/4
f 311/2/4 310/2/4 312/2/4
f 317/2/5 314/2/5 313/2/5
f 318/2/5 314/2/5 317/2/5
f 319/2/5 316/2/5 315/2/5
f 320/2/5 316/2/5 319/2/5
f 325/2/5 322/2/5 321/2/5
f 326/2/5 322/2/5 325/2/5
f 327/2/5 324/2/5 323/2/5
f 328/2/5 324/2/5 327/2/5
f 332/1/5 330/1/5 329/1/5
f 333/1/5 330/1/5 332/1/5
f 336/2/5 332/2/5 331/2/5
f 337/1/5 333/1/5 332/1/5
f 337/2/5 332/2/5 336/2/5
f 338/2/5 334/2/5 333/2/5
f 338/1/5 333/1/5 337/1/5
f 339/2/5 334/2/5 338/2/5
f 341/2/5 337/2/5 336/2/5
f 341/2/5 340/2/5 339/2/5
f 341/2/5 339/2/5 338/2/5
f 341/2/5 338/2/5 337/2/5
f 341/2/5 336/2/5 335/2/5
f 342/2/5 340/2/5 341/2/5
f 347/1/5 344/1/5 343/1/5
f 348/1/5 344/1/5 347/1/5
f 351/2/5 346/2/5 345/2/5
f 352/2/5 346/2/5 351/2/5
f 353/2/5 348/2/5 347/2/5
f 354/2/5 348/2/5 353/2/5
f 355/2/5 350/2/5 349/2/5
f 356/2/5 350/2/5 355/2/5
f 361/1/5 358/1/5 357/1/5
f 362/1/5 358/1/5 361/1/5
f 365/2/5 360/2/5 359/2/5
f 366/2/5 360/2/5 365/2/5
f 367/2/5 362/2/5 361/2/5
f 368/2/5 362/2/5 367/2/5
f 369/2/5 364/2/5 363/2/5
f 370/2/5 364/2/5 369/2/5
f 375/1/5 372/1/5 371/1/5
f 376/1/5 372/1/5 375/1/5
f 379/2/5 374/2/5 373/2/5
f 380/2/5 374/2/5 379/2/5
f 381/2/5 376/2/5 375/2/5
f 382/2/5 376/2/5 381/2/5
f 383/2/5 378/2/5 377/2/5
f 384/2/5 378/2/5 383/2/5
f 389/1/5 386/1/5 385/1/5
f 390/1/5 386/1/5 389/1/5
f 393/2/5 388/2/5 387/2/5
f 394/2/5 388/2/5 393/2/5
f 395/2/5 390/2/5 389/2/5
f 396/2/5 390/2/5 395/2/5
f 397/2/5 392/2/5 391/2/5
f 398/2/5 392/2/5 397/2/5
f 399/2/6 400/2/6 404/2/6
f 400/1/6 401/1/6 405/1/6
f 404/2/6 400/2/6 405/2/6
f 401/2/6 402/2/6 406/2/6
f 405/1/6 401/1/6 406/1/6
f 406/2/6 402/2/6 407/2/6
f 403/2/6 404/2/6 409/2/6
f 409/2/6 404/2/6 410/2/6
f 405/2/6 406/2/6 411/2/6
f 411/2/6 406/2/6 412/2/6
f 407/2/6 408/2/6 413/2/6
f 413/2/6 408/2/6 414/2/6
f 415/1/6 416/1/6 419/1/6
f 419/1/6 416/1/6 420/1/6
f 417/2/6 418/2/6 423/2/6
f 423/2/6 418/2/6 424/2/6
f 419/2/6 420/2/6 425/2/6
f 425/2/6 420/2/6 426/2/6
f 421/2/6 422/2/6 427/2/6
f 427/2/6 422/2/6 428/2/6
f 429/1/6 430/1/6 433/1/6
f 433/1/6 430/1/6 434/1/6
f 431/2/6 432/2/6 437/2/6
f 437/2/6 432/2/6 438/2/6
f 433/2/6 434/2/6 439/2/6
f 439/2/6 434/2/6 440/2/6
f 435/2/6 436/2/6 441/2/6
f 441/2/6 436/2/6 442/2/6
f 443/1/6 444/1/6 447/1/6
f 447/1/6 444/1/6 448/1/6
f 445/2/6 446/2/6 451/2/6
f 451/2/6 446/2/6 452/2/6
f 447/2/6 448/2/6 453/2/6
f 453/2/6 448/2/6 454/2/6
f 449/2/6 450/2/6 455/2/6
f 455/2/6 450/2/6 456/2/6
f 457/1/6 458/1/6 460/1/6
f 460/1/6 458/1/6 461/1/6
f 459/2/6 460/2/6 463/2/6
f 461/2/6 462/2/6 463/2/6
f 460/2/6 461/2/6 463/2/6
f 463/2/6 462/2/6 464/2/6
